<?xml version="1.0" standalone="no"?>
<!DOCTYPE svg PUBLIC "-//W3C//DTD SVG 1.1//EN" "http://www.w3.org/Graphics/SVG/1.1/DTD/svg11.dtd" >
<svg xmlns="http://www.w3.org/2000/svg" xmlns:xlink="http://www.w3.org/1999/xlink" version="1.1">
<metadata>
Created by FontForge 20170731 at Tue Oct 13 12:54:24 2020
 By Aleksey,,,
Copyright (c) The Font Bureau, Inc., 2006. All rights reserved.
</metadata>
<defs>
<font id="FordAntenna-Bold" horiz-adv-x="1536" >
  <font-face 
    font-family="Ford Antenna Regular"
    font-weight="700"
    font-stretch="normal"
    units-per-em="2048"
    panose-1="2 0 5 5 0 0 0 2 0 4"
    ascent="1638"
    descent="-410"
    x-height="1159"
    cap-height="1518"
    bbox="-195 -676 3533 2595"
    underline-thickness="102"
    underline-position="-307"
    unicode-range="U+0020-FB04"
  />
<missing-glyph horiz-adv-x="1024" 
d="M0 0v1434h1024v-1434h-1024zM102 1331v-1229h820v1229h-820z" />
    <glyph glyph-name="f_f" unicode="ff" horiz-adv-x="1646" 
d="M1008 0v885h-418v-885h-320v885h-219v274h219v55q0 103 21 176.5t70 128t135.5 81t212.5 26.5q79 0 153 -4v-262h-110q-93 0 -127.5 -34.5t-34.5 -108.5v-58h418v55q0 103 20.5 176.5t70 128t135.5 81t212 26.5q79 0 153 -4v-262h-110q-93 0 -126.5 -34.5t-33.5 -108.5
v-58h270v-274h-270v-885h-321z" />
    <glyph glyph-name="fi" unicode="fi" horiz-adv-x="1468" 
d="M51 885v274h219v55q0 103 21 176.5t70 128t135.5 81t212.5 26.5q79 0 153 -4v-262h-110q-93 0 -127.5 -34.5t-34.5 -108.5v-58h272v-274h-272v-885h-320v885h-219zM1008 0v1159h321v-1159h-321zM1006 1266v293h325v-293h-325z" />
    <glyph glyph-name="fl" unicode="fl" horiz-adv-x="1564" 
d="M51 885v274h219v55q0 103 21 176.5t70 128t135.5 81t212.5 26.5q79 0 153 -4v-262h-110q-93 0 -127.5 -34.5t-34.5 -108.5v-58h272v-274h-272v-885h-320v885h-219zM1325 -4q-81 0 -138 17t-98.5 57t-61 109t-19.5 171v1239h321v-1200q0 -72 21.5 -96.5t91.5 -24.5h39
v-264q-54 -8 -156 -8z" />
    <glyph glyph-name="f_f_i" unicode="ffi" horiz-adv-x="2205" 
d="M1008 0v885h-418v-885h-320v885h-219v274h219v55q0 103 21 176.5t70 128t135.5 81t212.5 26.5q79 0 153 -4v-262h-110q-93 0 -127.5 -34.5t-34.5 -108.5v-58h418v55q0 103 20.5 176.5t70 128t135.5 81t212 26.5q79 0 153 -4v-262h-110q-93 0 -126.5 -34.5t-33.5 -108.5
v-58h270v-274h-270v-885h-321zM1745 0v1159h321v-1159h-321zM1743 1266v293h325v-293h-325z" />
    <glyph glyph-name="f_f_l" unicode="ffl" horiz-adv-x="2304" 
d="M1008 0v885h-418v-885h-320v885h-219v274h219v55q0 103 21 176.5t70 128t135.5 81t212.5 26.5q79 0 153 -4v-262h-110q-93 0 -127.5 -34.5t-34.5 -108.5v-58h418v55q0 103 20.5 176.5t70 128t135.5 81t212 26.5q79 0 153 -4v-262h-110q-93 0 -126.5 -34.5t-33.5 -108.5
v-58h270v-274h-270v-885h-321zM2062 -4q-81 0 -138 17t-98.5 57t-61 109t-19.5 171v1239h321v-1200q0 -72 21.5 -96.5t91.5 -24.5h39v-264q-50 -8 -156 -8z" />
    <glyph glyph-name="f_j" unicode="fj" horiz-adv-x="1468" 
d="M51 885v274h219v55q0 103 21 176.5t70 128t135.5 81t212.5 26.5q79 0 153 -4v-262h-110q-93 0 -127.5 -34.5t-34.5 -108.5v-58h272v-274h-272v-885h-320v885h-219zM874 -346v244h27q70 0 88.5 27.5t18.5 121.5v1112h321v-1110q0 -121 -17 -194.5t-63.5 -120t-120 -63.5
t-194.5 -17h-60zM1006 1266v293h325v-293h-325z" />
    <glyph glyph-name="f_t" unicode="ft" horiz-adv-x="1685" 
d="M1403 -4q-156 0 -244.5 38.5t-124 115.5t-35.5 210v525h-409v-885h-320v885h-219v274h219v55q0 103 21 176.5t70 128t135.5 81t212.5 26.5q79 0 153 -4v-262h-110q-93 0 -127.5 -34.5t-34.5 -108.5v-58h424l55 283l250 51v-334h274v-274h-274v-477q0 -39 4 -61t19 -42
t46 -28.5t82 -8.5h123v-268q-47 -4 -190 -4z" />
    <glyph glyph-name=".notdef" horiz-adv-x="1024" 
d="M0 0v1434h1024v-1434h-1024zM102 1331v-1229h820v1229h-820z" />
    <glyph glyph-name=".null" horiz-adv-x="0" 
 />
    <glyph glyph-name="nonmarkingreturn" horiz-adv-x="682" 
 />
    <glyph glyph-name="space" unicode=" " horiz-adv-x="440" 
 />
    <glyph glyph-name="exclam" unicode="!" horiz-adv-x="823" 
d="M223 0v360h373v-360h-373zM266 477l-30 1041h352l-35 -1041h-287z" />
    <glyph glyph-name="quotedbl" unicode="&#x22;" horiz-adv-x="1183" 
d="M195 815l-21 703h334l-19 -703h-294zM694 815l-20 703h336l-21 -703h-295z" />
    <glyph glyph-name="numbersign" unicode="#" horiz-adv-x="1642" 
d="M268 0l70 365h-223v278h276l33 180h-309v281h364l80 414h307l-82 -414h203l80 414h305l-78 -414h236v-281h-289l-33 -180h322v-278h-377l-70 -365h-307l70 365h-201l-70 -365h-307zM670 627h252l41 215h-252z" />
    <glyph glyph-name="dollar" unicode="$" horiz-adv-x="1404" 
d="M559 -193v197q-301 27 -491 158l135 223q214 -131 481 -131q177 0 244 46t67 142q0 42 -12.5 71.5t-34.5 49t-65.5 34.5t-90 24t-124.5 20q-54 8 -87.5 13.5t-84.5 16.5t-83 22.5t-73.5 30t-68 40t-54.5 52.5t-44 67.5t-26 84.5t-10 105q0 203 105 308.5t317 129.5v152
h295v-150q211 -19 377 -114l-137 -238q-65 41 -174.5 66.5t-212.5 25.5q-151 0 -206 -39.5t-55 -121.5q0 -41 16 -70.5t37 -47.5t74 -33t92 -22.5t126 -21.5q67 -10 111.5 -19t103 -25.5t96.5 -36.5t79 -52.5t64.5 -72.5t39 -97t15.5 -127q0 -197 -107.5 -313t-338.5 -146
v-201h-295z" />
    <glyph glyph-name="percent" unicode="%" horiz-adv-x="2553" 
d="M553 539q-236 0 -361.5 130t-125.5 371q0 237 126 369.5t361 132.5q230 0 355.5 -132t125.5 -370q0 -240 -125 -370.5t-356 -130.5zM553 778q104 0 149.5 67.5t45.5 194.5q0 254 -195 254q-201 0 -201 -254q0 -262 201 -262zM2003 -18q-234 0 -358.5 131t-124.5 372
q0 237 125 369.5t358 132.5q231 0 357 -132.5t126 -369.5q0 -240 -125.5 -371.5t-357.5 -131.5zM2003 221q106 0 151.5 68t45.5 196q0 252 -197 252t-197 -252q0 -128 46.5 -196t150.5 -68zM702 0l848 1520h299l-850 -1520h-297z" />
    <glyph glyph-name="ampersand" unicode="&#x26;" horiz-adv-x="1736" 
d="M662 -18q-304 0 -446 100.5t-142 343.5q0 83 24 152t69 120.5t96.5 89t119.5 70.5q-68 152 -68 289q0 196 113.5 295.5t314.5 99.5q199 0 299.5 -96t100.5 -299q0 -78 -26.5 -142.5t-77.5 -113t-105 -82.5t-127 -68q74 -92 156 -168q62 -60 129 -110q83 135 174 459
l270 -64q-94 -356 -209 -539q112 -45 256 -45h14v-274h-26q-142 0 -247.5 19.5t-211.5 74.5q-172 -112 -450 -112zM662 233q114 0 202 31q-110 96 -151 137q-112 106 -197 228q-129 -83 -129 -199q0 -37 4.5 -62.5t20.5 -53t45 -44t80.5 -27t124.5 -10.5zM618 1147
q0 -84 56 -199q92 42 141 89t49 110q0 67 -27 99t-94 32q-68 0 -96.5 -32t-28.5 -99z" />
    <glyph glyph-name="quotesingle" unicode="'" horiz-adv-x="686" 
d="M195 815l-21 705h334l-19 -705h-294z" />
    <glyph glyph-name="parenleft" unicode="(" horiz-adv-x="1067" 
d="M631 -393q-78 66 -149 159t-135.5 219t-103 291.5t-38.5 344.5q0 164 39 327t102 293t136.5 231.5t148.5 165.5l233 -149q-67 -73 -118.5 -147.5t-103 -180.5t-79.5 -243t-28 -295q0 -128 21.5 -248t54.5 -210t78.5 -172t87 -136.5t87.5 -100.5z" />
    <glyph glyph-name="parenright" unicode=")" horiz-adv-x="1067" 
d="M434 -393l-229 149q52 58 93.5 113t87.5 137t76 168t50 202.5t20 244.5q0 158 -31 301t-83 250.5t-104 183t-109 133.5l229 149q61 -52 118.5 -120t115 -164t99.5 -203.5t68.5 -245t26.5 -282.5q0 -164 -39 -327.5t-103 -293t-137 -230.5t-149 -165z" />
    <glyph glyph-name="asterisk" unicode="*" horiz-adv-x="1247" 
d="M498 483l28 334l-284 -190l-127 229l311 143l-311 148l125 227l286 -192l-28 338h250l-29 -342l287 196l127 -225l-314 -150l314 -145l-125 -225l-289 192l26 -338h-247z" />
    <glyph glyph-name="plus" unicode="+" horiz-adv-x="1478" 
d="M580 188v390h-390v288h390v387h319v-387h389v-288h-389v-390h-319z" />
    <glyph glyph-name="comma" unicode="," horiz-adv-x="600" 
d="M201 -319l-78 155q108 53 137 80t29 84h-176v369h372v-263q0 -66 -3.5 -110t-15 -85.5t-30 -69.5t-51 -57t-76.5 -52.5t-108 -50.5z" />
    <glyph glyph-name="hyphen" unicode="-" horiz-adv-x="870" 
d="M78 528v287h710v-287h-710z" />
    <glyph glyph-name="hyphen" unicode="&#xad;" horiz-adv-x="870" 
d="M78 528v287h710v-287h-710z" />
    <glyph glyph-name="period" unicode="." horiz-adv-x="600" 
d="M113 0v369h372v-369h-372z" />
    <glyph glyph-name="slash" unicode="/" horiz-adv-x="1175" 
d="M0 0l848 1518h328l-848 -1518h-328z" />
    <glyph glyph-name="zero" unicode="0" horiz-adv-x="1581" 
d="M793 -23q-181 0 -309.5 50t-206.5 151t-114 243.5t-36 338.5t36 339t114.5 243.5t206.5 150t309 49.5q351 0 506 -193.5t155 -588.5q0 -394 -155.5 -588.5t-505.5 -194.5zM793 256q97 0 162.5 33t101.5 100.5t50.5 156t14.5 214.5q0 127 -14.5 213.5t-51 151t-101 94.5
t-162.5 30q-79 0 -137 -20.5t-95.5 -58.5t-60.5 -99.5t-32 -135.5t-9 -175q0 -126 15 -214.5t52 -156t103 -100.5t164 -33z" />
    <glyph glyph-name="one" unicode="1" horiz-adv-x="849" 
d="M322 0v1229h-259v289h574v-1518h-315z" />
    <glyph glyph-name="two" unicode="2" horiz-adv-x="1320" 
d="M68 0v252l495 428q80 70 121.5 107.5t85 82t61.5 75t29.5 66t11.5 74.5q0 95 -55 136t-205 41q-107 0 -223.5 -27.5t-187.5 -67.5l-146 248q130 68 258 97.5t332 29.5q278 0 412.5 -100t134.5 -326q0 -86 -20 -157.5t-67.5 -141.5t-109 -133t-159.5 -147l-314 -271h686
v-266h-1140z" />
    <glyph glyph-name="three" unicode="3" horiz-adv-x="1331" 
d="M643 -25q-206 0 -350.5 39t-284.5 125l150 242q122 -69 234 -103t235 -34q160 0 225.5 46.5t65.5 174.5q0 118 -65.5 163.5t-246.5 45.5h-266v270h262q155 0 213.5 35.5t58.5 132.5q0 91 -52.5 123.5t-200.5 32.5q-107 0 -222.5 -29.5t-189.5 -75.5l-164 236
q112 69 271 106t335 37q273 0 406 -83.5t133 -280.5q0 -156 -42.5 -235.5t-137.5 -113.5q79 -21 126 -63.5t71 -121.5t24 -204q0 -109 -28.5 -190.5t-78.5 -133.5t-126 -84t-161 -44.5t-194 -12.5z" />
    <glyph glyph-name="four" unicode="4" horiz-adv-x="1433" 
d="M70 311v240l665 967h344l-657 -949h426l65 432h226v-432h241v-258h-241v-311h-295v311h-774z" />
    <glyph glyph-name="five" unicode="5" horiz-adv-x="1376" 
d="M682 -23q-353 0 -610 164l149 242q117 -65 223 -102t230 -37q73 0 123 8.5t96.5 33.5t70 77.5t23.5 132.5q0 79 -22.5 131.5t-66.5 78t-93.5 35t-120.5 9.5q-167 0 -281 -54l-268 80l39 742h1016v-275h-744l-16 -285q115 56 334 56q67 0 121.5 -4.5t112.5 -18.5t102 -37
t85 -62t67 -91t41.5 -127t15.5 -168q0 -95 -16 -171t-44 -131t-72 -95.5t-94.5 -65.5t-117 -40t-133.5 -20.5t-150 -5.5z" />
    <glyph glyph-name="six" unicode="6" horiz-adv-x="1492" 
d="M784 -23q-351 0 -508 166.5t-157 511.5q0 162 16.5 281t57.5 219t109 165.5t173 111.5t246.5 66t331.5 20h141v-275h-152q-118 0 -210 -11t-153.5 -27t-105.5 -46t-68 -55t-39 -67.5t-19.5 -71t-8.5 -76.5q53 71 163 105t290 34q144 0 244 -33.5t158 -101.5t83 -158.5
t25 -216.5q0 -131 -32.5 -228.5t-104 -169t-191.5 -107.5t-289 -36zM786 240q92 0 153 18t92.5 55t43.5 82t12 111q0 133 -66 200.5t-233 67.5q-335 0 -335 -252q0 -151 81 -216.5t252 -65.5z" />
    <glyph glyph-name="seven" unicode="7" horiz-adv-x="1206" 
d="M266 0l537 1243h-780v275h1132v-234l-551 -1284h-338z" />
    <glyph glyph-name="eight" unicode="8" horiz-adv-x="1513" 
d="M756 -33q-145 0 -258 24t-186.5 65.5t-121.5 101t-68 125.5t-20 145q0 324 244 403q-111 44 -151.5 124t-40.5 198q0 66 15.5 120t56.5 105.5t107 86.5t173.5 56t249.5 21q143 0 251.5 -21.5t174.5 -56.5t107 -87t56 -105.5t15 -118.5q0 -56 -8.5 -101.5t-29.5 -89.5
t-60.5 -77t-96.5 -54q248 -78 248 -403q0 -79 -20 -145t-68 -125.5t-122 -101t-188 -65.5t-259 -24zM756 225q176 0 253.5 59.5t77.5 170.5q0 114 -77.5 172.5t-253.5 58.5t-252 -58.5t-76 -172.5q0 -112 76.5 -171t251.5 -59zM756 930q161 0 226 45.5t65 134.5
q0 87 -65 131.5t-226 44.5q-83 0 -140 -12t-89 -35.5t-46 -54.5t-14 -74q0 -89 64.5 -134.5t224.5 -45.5z" />
    <glyph glyph-name="nine" unicode="9" horiz-adv-x="1492" 
d="M315 0v266h154q119 0 212.5 11.5t155 27.5t105.5 47t67 55.5t37.5 68.5t18.5 71t8 76q-53 -71 -162 -104.5t-290 -33.5q-143 0 -244 35.5t-158 105t-82.5 159.5t-25.5 210q0 131 32.5 229.5t103.5 171t191.5 109.5t288.5 37q351 0 508.5 -166.5t157.5 -511.5
q0 -162 -16.5 -281t-57.5 -219.5t-108.5 -166t-172.5 -111.5t-246.5 -66t-332.5 -20h-144zM723 733q336 0 336 250q0 151 -81 217t-251 66q-93 0 -154 -18t-93 -55t-44 -82.5t-12 -111.5q0 -132 66.5 -199t232.5 -67z" />
    <glyph glyph-name="colon" unicode=":" horiz-adv-x="641" 
d="M133 0v356h373v-356h-373zM133 803v356h373v-356h-373z" />
    <glyph glyph-name="semicolon" unicode=";" horiz-adv-x="641" 
d="M221 -319l-78 155q108 53 137 80t29 84h-176v356h373v-250q0 -89 -9.5 -144.5t-39.5 -108.5t-86.5 -92.5t-149.5 -79.5zM133 803v356h373v-356h-373z" />
    <glyph glyph-name="less" unicode="&#x3c;" horiz-adv-x="1478" 
d="M1171 129l-944 471v219l944 467v-289l-608 -286l608 -289v-293z" />
    <glyph glyph-name="equal" unicode="=" horiz-adv-x="1478" 
d="M203 330v286h1075v-286h-1075zM203 827v285h1075v-285h-1075z" />
    <glyph glyph-name="greater" unicode="&#x3e;" horiz-adv-x="1478" 
d="M307 129v293l611 285l-611 288v291l946 -469v-221z" />
    <glyph glyph-name="question" unicode="?" horiz-adv-x="1437" 
d="M520 440q-10 71 -12 124.5t7.5 98t27.5 77t51 62.5t74.5 53.5t101.5 49.5q131 59 169 96t38 109q0 38 -9.5 62t-36 44.5t-79 29.5t-135.5 9q-229 0 -434 -100l-136 266q110 56 270.5 88.5t323.5 32.5q294 0 431 -94t137 -309q0 -83 -18 -144.5t-57 -107.5t-87 -78
t-121 -64q-52 -23 -83 -39t-56 -36.5t-36 -37.5t-16.5 -48t-5 -61t4.5 -83h-314zM489 0v322h373v-322h-373z" />
    <glyph glyph-name="at" unicode="@" horiz-adv-x="2177" 
d="M1122 -338q-193 0 -344.5 31t-273 100t-200.5 177.5t-121 265t-42 360.5q0 205 45.5 366t127.5 269.5t201 179.5t259.5 102t310.5 31q953 0 953 -948q0 -160 -18.5 -260t-65.5 -164t-121.5 -88.5t-194.5 -24.5q-82 0 -141 13t-91.5 36.5t-49.5 48.5t-25 58
q-49 -71 -129 -106t-235 -35q-101 0 -178.5 27.5t-126.5 74.5t-80 116t-43.5 145.5t-12.5 170.5q0 531 457 531q148 0 218.5 -29t111.5 -96l71 108l189 -16v-737q2 -75 28 -112.5t105 -37.5q31 0 54 6.5t40 17.5t28 35t18 49.5t10.5 70t4.5 87.5t1 111q0 214 -52.5 366.5
t-156 242.5t-242.5 130.5t-326 40.5q-142 0 -256.5 -25t-211.5 -82.5t-162.5 -146.5t-101.5 -222t-36 -304q0 -208 53.5 -356.5t159 -238t250.5 -130.5t340 -41q145 0 290 30.5t249 82.5l74 -150q-262 -131 -611 -131zM1038 313q133 0 192.5 71t59.5 224q0 150 -55.5 212.5
t-196.5 62.5q-125 0 -175 -71t-50 -204q0 -138 51 -216.5t174 -78.5z" />
    <glyph glyph-name="A" unicode="A" horiz-adv-x="1617" 
d="M29 0l608 1528h340l612 -1528h-348l-98 250h-688l-99 -250h-327zM561 526h475l-237 604z" />
    <glyph glyph-name="B" unicode="B" horiz-adv-x="1546" 
d="M152 0v1518h704q304 0 440 -92t136 -300q0 -263 -203 -335q131 -32 187.5 -120.5t56.5 -252.5q0 -122 -38.5 -204t-120 -129t-192 -66t-270.5 -19h-700zM481 279h410q130 0 186 39.5t56 132.5t-55.5 131.5t-186.5 38.5h-410v-342zM481 911h387q127 0 175.5 40.5
t48.5 125.5q0 82 -50 119t-174 37h-387v-322z" />
    <glyph glyph-name="C" unicode="C" horiz-adv-x="1554" 
d="M850 -23q-210 0 -360.5 51t-242.5 153t-134.5 244.5t-42.5 334.5q0 399 206 590.5t594 191.5q202 0 344 -53.5t252 -165.5l-231 -231q-73 71 -160 107t-207 36q-239 0 -349.5 -119t-110.5 -360q0 -118 23.5 -204t76.5 -149.5t143 -95t219 -31.5q135 0 219 38.5t166 115.5
l222 -217q-51 -53 -102.5 -91t-125.5 -73t-174.5 -53.5t-224.5 -18.5z" />
    <glyph glyph-name="D" unicode="D" horiz-adv-x="1609" 
d="M152 0v1518h544q155 0 271 -14.5t213.5 -48.5t163 -90t111.5 -141t66.5 -199t20.5 -265q0 -178 -32 -306.5t-95.5 -216.5t-168.5 -140t-239 -74.5t-319 -22.5h-536zM487 293h220q104 0 180.5 10.5t132.5 35t91 59t56 89.5t29 119t8 154q0 91 -7 153t-27.5 117t-55 87.5
t-91.5 56.5t-135 33.5t-188 9.5h-213v-924z" />
    <glyph glyph-name="E" unicode="E" horiz-adv-x="1406" 
d="M152 0v1518h1140v-304h-805v-294h785v-293h-785v-336h813v-291h-1148z" />
    <glyph glyph-name="F" unicode="F" horiz-adv-x="1335" 
d="M152 0v1518h1103v-304h-768v-325h748v-299h-748v-590h-335z" />
    <glyph glyph-name="G" unicode="G" horiz-adv-x="1636" 
d="M846 -23q-180 0 -313.5 33.5t-221.5 96t-142 161t-76.5 217t-22.5 275.5q0 403 202.5 592.5t595.5 189.5q407 0 615 -215l-230 -231q-69 66 -156.5 102.5t-230.5 36.5q-244 0 -352 -118.5t-108 -360.5q0 -104 12 -179.5t42.5 -138t82.5 -100t131 -58t188 -20.5
q146 0 230 34.5t117.5 100t33.5 176.5v33h-424v279h756v-248q0 -134 -22.5 -235t-74 -182.5t-135.5 -133.5t-207.5 -79.5t-289.5 -27.5z" />
    <glyph glyph-name="H" unicode="H" horiz-adv-x="1669" 
d="M152 0v1518h335v-582h695v582h336v-1518h-336v623h-695v-623h-335z" />
    <glyph glyph-name="I" unicode="I" horiz-adv-x="681" 
d="M174 0v1518h334v-1518h-334z" />
    <glyph glyph-name="J" unicode="J" horiz-adv-x="931" 
d="M268 -4q-153 0 -223 4v291h182q128 0 178 46t50 155v1026h333v-1039q0 -112 -25.5 -197t-69.5 -139t-111 -87t-142.5 -46.5t-171.5 -13.5z" />
    <glyph glyph-name="K" unicode="K" horiz-adv-x="1556" 
d="M1124 0l-426 662l-215 -254v-408h-331v1518h331v-687l576 687h371l-515 -600l588 -918h-379z" />
    <glyph glyph-name="L" unicode="L" horiz-adv-x="1263" 
d="M152 0v1518h335v-1227h746v-291h-1081z" />
    <glyph glyph-name="M" unicode="M" horiz-adv-x="2002" 
d="M152 0v1518h438l411 -1037l412 1037h436v-1518h-327v1014l-408 -1014h-254l-405 1008v-1008h-303z" />
    <glyph glyph-name="N" unicode="N" horiz-adv-x="1685" 
d="M152 0v1518h362l698 -957v957h320v-1518h-307l-752 1024v-1024h-321z" />
    <glyph glyph-name="O" unicode="O" horiz-adv-x="1746" 
d="M872 -25q-802 0 -802 785q0 782 802 782q805 0 805 -782q0 -785 -805 -785zM872 270q128 0 219 33t144.5 98t77.5 151.5t24 201.5t-24 201t-77.5 150t-144.5 97t-219 33t-219 -33t-144 -97t-77 -150t-24 -201t24 -201.5t77 -151.5t144 -98t219 -33z" />
    <glyph glyph-name="P" unicode="P" horiz-adv-x="1556" 
d="M152 0v1518h729q171 0 291 -35t188 -103.5t97.5 -158t29.5 -211.5q0 -98 -17 -176.5t-60.5 -149t-113 -117.5t-179 -74.5t-253.5 -27.5h-385v-465h-327zM479 752h400q144 0 208 55t64 186q0 134 -62.5 186t-214.5 52h-395v-479z" />
    <glyph glyph-name="Q" unicode="Q" horiz-adv-x="1746" 
d="M1122 -406q-154 0 -251.5 22t-152 75t-72.5 128t-13 193q-274 46 -418.5 225.5t-144.5 522.5q0 168 37 299.5t104.5 222t167.5 149t221.5 85t271.5 26.5q805 0 805 -782q0 -199 -50.5 -344t-147.5 -234t-226.5 -133.5t-300.5 -52.5q-3 -81 29 -105t139 -24h195v-268
q-103 -5 -193 -5zM872 270q130 0 221.5 33t144 98t76 151t23.5 202t-23.5 201.5t-76 150t-144 97t-221.5 32.5q-105 0 -184.5 -22t-132 -61.5t-86 -100t-47.5 -133t-14 -164.5q0 -116 23 -201.5t75.5 -151t144 -98.5t221.5 -33z" />
    <glyph glyph-name="R" unicode="R" horiz-adv-x="1581" 
d="M1100 0l-281 504h-340v-504h-327v1518h733q140 0 244.5 -24t170 -66t106 -106t56 -136t15.5 -164q0 -83 -15 -153t-50 -135t-99.5 -114.5t-155.5 -78.5l301 -541h-358zM479 793h395q142 0 203.5 46t61.5 171q0 128 -60.5 174.5t-208.5 46.5h-391v-438z" />
    <glyph glyph-name="S" unicode="S" horiz-adv-x="1517" 
d="M768 -23q-453 0 -723 199l168 242q241 -162 545 -162q146 0 223.5 20.5t103 58t25.5 105.5q0 31 -9.5 54.5t-33 41.5t-49 30t-72.5 23t-87.5 17.5t-108.5 16.5q-94 13 -162.5 26t-137 32t-114.5 43t-87.5 57.5t-65 76t-37 99t-13.5 126.5q0 248 152 353.5t481 105.5
q390 0 614 -149l-180 -260q-75 49 -197 82.5t-241 33.5q-173 0 -234 -35t-61 -122q0 -30 9.5 -53.5t33 -40.5t49 -29t74 -23t89 -18t112.5 -17q89 -13 149.5 -24t130 -29.5t114 -40t89 -55t69.5 -75.5t40.5 -100t15.5 -130q0 -119 -34.5 -205t-112 -149.5t-209 -94.5
t-318.5 -31z" />
    <glyph glyph-name="T" unicode="T" horiz-adv-x="1445" 
d="M555 0v1214h-526v304h1388v-304h-524v-1214h-338z" />
    <glyph glyph-name="U" unicode="U" horiz-adv-x="1671" 
d="M836 -29q-105 0 -192.5 11.5t-153.5 31.5t-119 51t-89 64t-62 77.5t-41 86t-24 94t-11.5 96t-2.5 97.5v938h336v-895q0 -72 8 -123.5t31 -98t63.5 -74t105 -43.5t155.5 -16t155 15t104.5 42t64 73t32 98.5t8.5 126.5v895h326v-938q0 -54 -2.5 -97.5t-11.5 -96t-24 -94
t-41.5 -86t-62.5 -77.5t-88.5 -64t-118 -51t-153.5 -31.5t-192 -11.5z" />
    <glyph glyph-name="V" unicode="V" horiz-adv-x="1599" 
d="M631 -10l-600 1528h352l424 -1110l422 1110h346l-604 -1528h-340z" />
    <glyph glyph-name="W" unicode="W" horiz-adv-x="2215" 
d="M502 -10l-463 1528h350l283 -975l295 975h303l297 -975l282 975h328l-461 -1528h-297l-311 1020l-311 -1020h-295z" />
    <glyph glyph-name="X" unicode="X" horiz-adv-x="1599" 
d="M1165 0l-381 547l-360 -547h-371l557 797l-499 721h376l326 -467l307 467h371l-506 -715l561 -803h-381z" />
    <glyph glyph-name="Y" unicode="Y" horiz-adv-x="1556" 
d="M610 0v532l-604 986h361l417 -684l418 684h346l-604 -986v-532h-334z" />
    <glyph glyph-name="Z" unicode="Z" horiz-adv-x="1417" 
d="M66 0v250l833 964h-799v304h1223v-275l-821 -952h844v-291h-1280z" />
    <glyph glyph-name="bracketleft" unicode="[" horiz-adv-x="1056" 
d="M223 -338v1927h656v-276h-330v-1383h336v-268h-662z" />
    <glyph glyph-name="backslash" unicode="\" horiz-adv-x="1175" 
d="M848 0l-848 1518h328l848 -1518h-328z" />
    <glyph glyph-name="bracketright" unicode="]" horiz-adv-x="1056" 
d="M172 -338v268h334v1383h-330v276h655v-1927h-659z" />
    <glyph glyph-name="asciicircum" unicode="^" horiz-adv-x="1208" 
d="M121 1130l317 375h332l317 -375h-301l-186 177l-184 -177h-295z" />
    <glyph glyph-name="underscore" unicode="_" horiz-adv-x="927" 
d="M-76 -322v240h1080v-240h-1080z" />
    <glyph glyph-name="grave" unicode="`" horiz-adv-x="1208" 
d="M530 1270l-391 375h387l289 -375h-285z" />
    <glyph glyph-name="a" unicode="a" horiz-adv-x="1320" 
d="M487 -18q-105 0 -182.5 18t-125.5 49t-77.5 78t-40 97.5t-10.5 115.5q0 98 29 168t84 116t148 73t207.5 37.5t275.5 10.5h47q-1 34 -5.5 56.5t-18.5 43.5t-39 32.5t-66 18.5t-101 7q-96 0 -185 -28t-151 -66l-159 235q78 52 222 97t308 45q126 0 213 -17t144.5 -50
t89.5 -91t44.5 -128.5t12.5 -174.5v-352q0 -71 15.5 -89t84.5 -18v-262q-31 -8 -135 -8q-93 0 -140.5 24t-80.5 91q-95 -129 -408 -129zM551 240q153 0 222 57t69 184v43h-27q-126 0 -205.5 -5t-132.5 -14t-78 -29t-34 -44t-9 -65q0 -66 44 -96.5t151 -30.5z" />
    <glyph glyph-name="b" unicode="b" horiz-adv-x="1394" 
d="M807 -18q-304 0 -401 118l-64 -112l-215 22v1579h319v-514q94 111 379 111q117 0 205 -31.5t143 -84.5t89.5 -132t47.5 -164.5t13 -191.5t-14 -191.5t-50 -163.5t-93 -130.5t-148 -83.5t-211 -31zM745 252q75 0 126 23t78 67.5t37.5 98.5t10.5 128q0 76 -10 130
t-36.5 100.5t-77.5 70t-128 23.5q-162 0 -229 -77t-67 -247q0 -172 63 -244.5t233 -72.5z" />
    <glyph glyph-name="c" unicode="c" horiz-adv-x="1202" 
d="M666 -18q-140 0 -245.5 30.5t-171 82t-106 130t-56 164t-15.5 193.5q0 89 10.5 162t35.5 143.5t70.5 123t111.5 93t162 61.5t218 21q303 0 471 -189l-225 -213q-47 49 -102.5 78t-143.5 29q-84 0 -141 -22t-88 -65.5t-43.5 -98.5t-12.5 -132q0 -78 12 -132.5t42.5 -99.5
t88.5 -67t144 -22q80 0 139.5 26.5t122.5 86.5l205 -197q-108 -100 -212 -143t-271 -43z" />
    <glyph glyph-name="d" unicode="d" horiz-adv-x="1394" 
d="M575 -23q-116 0 -205 32t-144.5 85.5t-91 133t-49 166t-13.5 192.5q0 105 14 190.5t50 163.5t93.5 131t147.5 84t209 31q272 0 360 -109v512h322v-1577l-246 -22l-33 116q-110 -129 -414 -129zM651 254q161 0 228 80t67 252q0 170 -62.5 240.5t-232.5 70.5
q-77 0 -128.5 -22t-78 -65.5t-37 -96t-10.5 -127.5q0 -60 6 -106.5t23 -90.5t44.5 -72.5t73 -45.5t107.5 -17z" />
    <glyph glyph-name="e" unicode="e" horiz-adv-x="1267" 
d="M676 -23q-123 0 -219 21.5t-161 62.5t-110 94t-69.5 124t-34.5 143t-10 160q0 104 14.5 188t55 164t106 133.5t174 86t252.5 32.5q107 0 190 -20t137.5 -56.5t93 -88t57 -114t29.5 -135t10 -151.5t-1 -162h-807q14 -111 79.5 -166t213.5 -55q125 0 209 27t155 79
l162 -209q-113 -85 -234 -121.5t-292 -36.5zM664 918q-142 0 -205 -58t-76 -172h514q-3 57 -12 93t-32.5 70.5t-70 50.5t-118.5 16z" />
    <glyph glyph-name="f" unicode="f" horiz-adv-x="909" 
d="M51 885v274h219v55q0 103 21 176.5t70 128t135.5 81t212.5 26.5q79 0 153 -4v-262h-110q-93 0 -127.5 -34.5t-34.5 -108.5v-58h272v-274h-272v-885h-320v885h-219z" />
    <glyph glyph-name="g" unicode="g" horiz-adv-x="1335" 
d="M641 426q-83 0 -154 6q-10 -20 -10 -41q0 -41 36 -52t155 -11q244 0 371 -29t178 -95.5t51 -193.5q0 -205 -151 -291t-480 -86q-139 0 -233 7t-169 25t-116.5 50.5t-62.5 81t-21 119.5q0 210 227 260q-42 29 -55.5 69t-13.5 95q0 99 57 162q-150 87 -150 291
q0 195 130 294t411 99q41 0 64 -2l516 102v-244h-166q129 -69 129 -249q0 -191 -129.5 -279t-413.5 -88zM649 -145q115 0 180 16t88 43.5t23 73.5q0 63 -60.5 84.5t-230.5 21.5q-95 0 -154 -7.5t-88.5 -24.5t-39 -37t-9.5 -52q0 -44 23.5 -68.5t87 -37t180.5 -12.5zM641 639
q127 0 177 36t50 113t-51.5 113.5t-175.5 36.5q-126 0 -176.5 -36t-50.5 -114q0 -77 50.5 -113t176.5 -36z" />
    <glyph glyph-name="h" unicode="h" horiz-adv-x="1359" 
d="M127 0v1589h319v-508q41 45 133.5 75t243.5 30q103 0 177.5 -23.5t120 -63t72.5 -103t36.5 -132.5t9.5 -162v-702h-319v639q0 49 -3 80.5t-15 65.5t-34.5 53.5t-62 32t-96.5 12.5q-81 0 -134 -17.5t-80 -54.5t-36.5 -80t-9.5 -106v-625h-322z" />
    <glyph glyph-name="i" unicode="i" horiz-adv-x="600" 
d="M139 0v1159h320v-1159h-320zM137 1266v293h324v-293h-324z" />
    <glyph glyph-name="j" unicode="j" horiz-adv-x="600" 
d="M6 -346v244h25q71 0 89.5 27.5t18.5 121.5v1112h320v-1110q0 -121 -17 -194.5t-63 -120t-119 -63.5t-194 -17h-60zM137 1266v293h324v-293h-324z" />
    <glyph glyph-name="k" unicode="k" horiz-adv-x="1239" 
d="M127 0v1589h317v-909l396 479h350l-389 -473l424 -686h-357l-284 446l-140 -165v-281h-317z" />
    <glyph glyph-name="l" unicode="l" horiz-adv-x="698" 
d="M457 -4q-109 0 -176.5 31t-104.5 109.5t-37 213.5v1239h320v-1200q0 -72 22 -96.5t92 -24.5h39v-264q-54 -8 -155 -8z" />
    <glyph glyph-name="m" unicode="m" horiz-adv-x="2103" 
d="M127 0v1141l250 18l26 -100q93 127 408 127q92 0 154 -9t97.5 -29.5t53 -40t33.5 -52.5q102 131 430 131q103 0 176.5 -23.5t117.5 -62.5t69.5 -103.5t34 -132.5t8.5 -162v-702h-324v639q0 30 -0.5 46t-2 41t-5 39t-10.5 33.5t-16.5 29.5t-24.5 22.5t-34.5 18.5t-45.5 10
t-58 4q-81 0 -132 -17.5t-75.5 -55t-32 -78.5t-7.5 -107v-625h-322v639q0 33 -0.5 51.5t-3 45.5t-8 42.5t-15 35t-24 30t-35 20.5t-49 14.5t-64.5 4.5q-81 0 -132 -17.5t-75.5 -55t-32 -78.5t-7.5 -107v-625h-322z" />
    <glyph glyph-name="n" unicode="n" horiz-adv-x="1359" 
d="M127 0v1141l250 18l26 -100q114 127 420 127q103 0 177.5 -23.5t120 -63t72.5 -103t36.5 -132.5t9.5 -162v-702h-319v639q0 49 -3 80.5t-15 65.5t-34.5 53.5t-62 32t-96.5 12.5q-81 0 -134 -17.5t-80 -54.5t-36.5 -80t-9.5 -106v-625h-322z" />
    <glyph glyph-name="o" unicode="o" horiz-adv-x="1353" 
d="M678 -23q-318 0 -462 152t-144 453t143.5 452.5t462.5 151.5q318 0 461 -151.5t143 -452.5t-143 -453t-461 -152zM678 252q157 0 220 81t63 240t-63 239.5t-220 80.5q-158 0 -220.5 -80.5t-62.5 -239.5q0 -78 13 -134t44.5 -99.5t87.5 -65.5t138 -22z" />
    <glyph glyph-name="p" unicode="p" horiz-adv-x="1394" 
d="M127 -338v1479l250 18l26 -102q106 129 424 129q116 0 204 -31.5t142.5 -84.5t89 -132t47.5 -164.5t13 -191.5t-14 -191.5t-49.5 -163.5t-92.5 -130.5t-147.5 -83.5t-210.5 -31q-150 0 -234 27t-126 81v-428h-322zM745 254q75 0 126 22.5t78 67t37.5 98t10.5 127.5
q0 76 -10 130t-36.5 100.5t-77.5 70t-128 23.5q-162 0 -229 -76.5t-67 -247.5t63 -243t233 -72z" />
    <glyph glyph-name="q" unicode="q" horiz-adv-x="1394" 
d="M946 -338v420q-55 -57 -142 -81t-229 -24q-98 0 -176 21.5t-132 62t-93 94t-60.5 124t-31.5 144.5t-10 161q0 105 14 191t50 164.5t93.5 131.5t147.5 84t209 31q302 0 403 -119l64 98l215 -18v-1485h-322zM651 254q161 0 228 79.5t67 250.5t-62.5 242t-232.5 71
q-77 0 -128.5 -22t-78 -66t-37 -97t-10.5 -128q0 -59 6 -105.5t23 -90t44.5 -72t73 -45.5t107.5 -17z" />
    <glyph glyph-name="r" unicode="r" horiz-adv-x="827" 
d="M127 0v1141l250 18l33 -127q38 57 138 96t232 43v-307q-100 -1 -166 -20t-101.5 -58.5t-49.5 -89.5t-14 -123v-573h-322z" />
    <glyph glyph-name="s" unicode="s" horiz-adv-x="1173" 
d="M573 -18q-335 0 -553 145l164 235q89 -57 199 -88.5t211 -31.5q124 0 166.5 18.5t42.5 77.5q0 49 -40.5 67.5t-164.5 34.5q-57 8 -93.5 13.5t-85.5 15.5t-80.5 20.5t-69 26.5t-61.5 35.5t-48 46.5t-37.5 59t-22 74t-8.5 92q0 182 119 272.5t387 90.5q142 0 270 -27.5
t219 -79.5l-153 -250q-64 33 -152.5 54.5t-173.5 21.5q-116 0 -156 -19.5t-40 -64.5q0 -48 36.5 -66t153.5 -34q79 -11 122.5 -18t107 -21.5t98 -30.5t76 -43t61.5 -60.5t34.5 -82t14.5 -109.5q0 -201 -123 -287.5t-420 -86.5z" />
    <glyph glyph-name="t" unicode="t" horiz-adv-x="927" 
d="M51 885v274h205l55 283l250 51v-334h275v-274h-275v-477q0 -38 4.5 -60.5t19 -42.5t45.5 -28.5t81 -8.5h125v-268q-47 -4 -191 -4q-118 0 -195 20t-123.5 65.5t-65.5 112t-19 166.5v525h-191z" />
    <glyph glyph-name="u" unicode="u" horiz-adv-x="1343" 
d="M674 -18q-166 0 -273 30.5t-169.5 101.5t-86.5 171.5t-24 255.5v618h321v-624q0 -37 0.5 -58.5t3.5 -52t9.5 -48t17.5 -39t28.5 -33.5t41.5 -23.5t57.5 -16t75.5 -4.5q48 0 84.5 7.5t61 18.5t41 33t25 40.5t13 52.5t5.5 58t1 67v622h316v-616q0 -124 -15 -211.5t-51 -157
t-99 -110t-157 -61.5t-227 -21z" />
    <glyph glyph-name="v" unicode="v" horiz-adv-x="1255" 
d="M459 -12l-461 1171h346l293 -786l293 786h325l-460 -1171h-336z" />
    <glyph glyph-name="w" unicode="w" horiz-adv-x="1884" 
d="M397 -12l-379 1171h338l213 -706l222 706h317l221 -704l213 704h324l-377 -1171h-307l-240 745l-240 -745h-305z" />
    <glyph glyph-name="x" unicode="x" horiz-adv-x="1226" 
d="M856 0l-260 373l-248 -373h-338l424 606l-385 553h359l223 -321l211 321h338l-385 -555l422 -604h-361z" />
    <glyph glyph-name="y" unicode="y" horiz-adv-x="1196" 
d="M274 -348q-44 0 -114 4v242h86q95 0 130 17t50 69l14 43l-442 1132h346l268 -737l260 737h326l-465 -1210q-42 -112 -93.5 -174t-138.5 -92.5t-227 -30.5z" />
    <glyph glyph-name="z" unicode="z" horiz-adv-x="1105" 
d="M41 0v215l575 670h-542v274h975v-219l-580 -682h602v-258h-1030z" />
    <glyph glyph-name="braceleft" unicode="{" horiz-adv-x="1132" 
d="M700 -338q-208 0 -304.5 71t-96.5 218q0 68 51 237t51 211q0 61 -52 78t-210 17v262q158 0 210 16.5t52 79.5q0 42 -51 211t-51 237q0 147 96.5 218t304.5 71h261v-276h-183q-84 0 -115.5 -22t-31.5 -81q0 -26 46 -186t46 -229q0 -129 -137 -168q137 -41 137 -170
q0 -68 -46 -232.5t-46 -191.5q0 -59 31.5 -81t115.5 -22h183v-268h-261z" />
    <glyph glyph-name="bar" unicode="|" horiz-adv-x="774" 
d="M223 -338v1927h326v-1927h-326z" />
    <glyph glyph-name="braceright" unicode="}" horiz-adv-x="1132" 
d="M172 -338v268h184q85 0 116.5 22t31.5 81q0 27 -47 191.5t-47 232.5q0 128 137 170q-137 39 -137 168q0 69 47 229t47 186q0 59 -31.5 81t-116.5 22h-184v276h260q210 0 307 -71t97 -218q0 -68 -52.5 -237t-52.5 -211q0 -61 52 -77.5t210 -16.5v-262q-157 0 -209.5 -17
t-52.5 -80q0 -42 52.5 -211t52.5 -237q0 -147 -97 -218t-307 -71h-260z" />
    <glyph glyph-name="asciitilde" unicode="~" horiz-adv-x="1208" 
d="M291 754l-178 145q179 221 344 221q48 0 91 -17t68.5 -38t58.5 -38t64 -17q72 0 172 120l179 -145q-182 -225 -345 -225q-46 0 -88 17t-68.5 38t-60 38t-65.5 17q-78 0 -172 -116z" />
    <glyph glyph-name="uni00A0" unicode="&#xa0;" horiz-adv-x="440" 
 />
    <glyph glyph-name="exclamdown" unicode="&#xa1;" horiz-adv-x="823" 
d="M236 0l32 1040h287l33 -1040h-352zM225 1157v361h373v-361h-373z" />
    <glyph glyph-name="cent" unicode="&#xa2;" horiz-adv-x="1208" 
d="M510 -193v191q-101 15 -177.5 52.5t-124.5 89t-77.5 123.5t-41 148.5t-11.5 170.5q0 92 11 167t40.5 147t77 124t124.5 90.5t179 54.5v142h305v-140q202 -34 326 -170l-215 -204q-46 47 -102.5 75.5t-143.5 28.5q-161 0 -226 -82.5t-65 -241.5q0 -77 13.5 -134t46 -102
t91 -68t142.5 -23q80 0 140.5 25t121.5 83l195 -186q-82 -73 -155.5 -113.5t-168.5 -54.5v-193h-305z" />
    <glyph glyph-name="sterling" unicode="&#xa3;" horiz-adv-x="1376" 
d="M879 -14q-205 0 -398 106q-140 -92 -424 -92v260q68 0 116 4t79.5 15t49.5 23t27 36t11 45t2 59q0 63 -41 209h-250v246h180q-32 139 -32 221q0 98 26 172.5t85.5 133.5t165 89.5t255.5 30.5q254 0 461 -82l-123 -266q-136 61 -346 61q-121 0 -164 -45.5t-43 -138.5
q0 -61 27 -176h381v-246h-322q29 -134 29 -200q0 -79 -15 -144q130 -53 254 -53q103 0 134.5 39t31.5 143v60h279v-72q0 -242 -101 -340t-335 -98z" />
    <glyph glyph-name="yen" unicode="&#xa5;" horiz-adv-x="1398" 
d="M152 469v225h374l-508 824h342l338 -578l340 578h340l-508 -824h373v-225h-387v-119h387v-225h-387v-125h-317v125h-387v225h387v119h-387z" />
    <glyph glyph-name="brokenbar" unicode="&#xa6;" horiz-adv-x="774" 
d="M223 -338v803h326v-803h-326zM223 786v803h326v-803h-326z" />
    <glyph glyph-name="section" unicode="&#xa7;" horiz-adv-x="1241" 
d="M340 -10q-76 0 -154 4v250h113q53 0 86 8.5t48.5 29t20.5 43.5t5 62v39q-169 23 -250.5 103.5t-81.5 222.5q0 140 79 221.5t243 107.5v33q0 77 9 133t36.5 111.5t75 90t128 56t191.5 21.5q75 0 153 -4v-262h-112q-53 0 -86 -9t-49.5 -29.5t-21.5 -43.5t-5 -62v-33
q175 -23 260.5 -104.5t85.5 -226.5q0 -280 -334 -326v-25q0 -77 -9 -133t-36.5 -111.5t-75 -90t-128 -55.5t-191.5 -21zM618 618q129 0 183.5 29.5t54.5 95.5q0 67 -54.5 96t-183.5 29q-127 0 -180 -29t-53 -96q0 -66 53 -95.5t180 -29.5z" />
    <glyph glyph-name="dieresis" unicode="&#xa8;" horiz-adv-x="1208" 
d="M227 1280v279h291v-279h-291zM692 1280v279h289v-279h-289z" />
    <glyph glyph-name="copyright" unicode="&#xa9;" horiz-adv-x="1656" 
d="M844 272q-496 0 -496 498q0 251 135 374.5t373 123.5q240 0 377 -140l-146 -145q-90 90 -233 90q-293 0 -293 -305q0 -307 295 -307q84 0 138.5 24.5t105.5 71.5l139 -135q-68 -70 -159 -110t-236 -40zM827 -25q-186 0 -332 60t-238.5 167t-140.5 248.5t-48 309.5
t48 309.5t140.5 248t238.5 166.5t332 60t332.5 -60t239.5 -166.5t141.5 -248t48.5 -309.5t-48.5 -309.5t-141.5 -248.5t-239.5 -167t-332.5 -60zM827 92q134 0 241.5 34t180.5 93.5t122 144.5t71 183.5t22 212.5t-22 212.5t-71 183t-122 144t-180.5 93.5t-241.5 34
q-135 0 -242.5 -34t-180.5 -93.5t-121.5 -144t-70.5 -182.5t-22 -213q0 -144 36 -262.5t110 -211t199 -143.5t292 -51z" />
    <glyph glyph-name="ordfeminine" unicode="&#xaa;" horiz-adv-x="1263" 
d="M453 565q-96 0 -163 22t-103.5 63.5t-52 91t-15.5 114.5q0 99 35.5 164t113.5 102.5t185.5 52.5t269.5 15h35q-2 45 -14.5 69t-52.5 38t-116 14q-78 0 -150 -22.5t-120 -53.5l-131 192q63 42 180 77.5t250 35.5q102 0 172.5 -14t116.5 -40.5t71.5 -73t35.5 -104
t10 -141.5v-280q0 -58 14 -73t70 -15v-217q-70 -7 -109 -7q-87 0 -133 23t-64 86q-39 -64 -109.5 -91.5t-225.5 -27.5zM209 238v227h801v-227h-801zM522 776q120 0 178 46.5t58 148.5v39h-19q-161 0 -240 -13t-104.5 -38.5t-25.5 -79.5t34 -78.5t119 -24.5z" />
    <glyph glyph-name="guillemotleft" unicode="&#xab;" horiz-adv-x="1570" 
d="M514 0l-309 578l309 581h281l-285 -581l285 -578h-281zM1026 0l-309 578l309 581h283l-285 -581l285 -578h-283z" />
    <glyph glyph-name="logicalnot" unicode="&#xac;" horiz-adv-x="1478" 
d="M190 866h1098v-678h-319v390h-779v288z" />
    <glyph glyph-name="registered" unicode="&#xae;" horiz-adv-x="1656" 
d="M827 -25q-186 0 -332 60t-238.5 167t-140.5 248.5t-48 309.5t48 309.5t140.5 248t238.5 166.5t332 60t332.5 -60t239.5 -166.5t141.5 -248t48.5 -309.5t-48.5 -309.5t-141.5 -248.5t-239.5 -167t-332.5 -60zM827 92q134 0 241.5 34t180.5 93.5t122 144.5t71 183.5
t22 212.5t-22 212.5t-71 183t-122 144t-180.5 93.5t-241.5 34q-135 0 -242.5 -34t-180.5 -93.5t-121.5 -144t-70.5 -182.5t-22 -213q0 -144 36 -262.5t110 -211t199 -143.5t292 -51zM1036 291l-176 321h-215v-321h-194v932h444q89 0 154 -14.5t104 -39.5t61.5 -64.5
t30.5 -82t8 -100.5q0 -54 -8 -95.5t-28 -81.5t-59.5 -69t-98.5 -45l188 -340h-211zM645 780h244q93 0 128.5 28t35.5 107t-35.5 107.5t-130.5 28.5h-242v-271z" />
    <glyph glyph-name="macron" unicode="&#xaf;" horiz-adv-x="1208" 
d="M174 1249v256h860v-256h-860z" />
    <glyph glyph-name="macron" unicode="&#x304;" horiz-adv-x="1208" 
d="M174 1249v256h860v-256h-860z" />
    <glyph glyph-name="degree" unicode="&#xb0;" horiz-adv-x="1165" 
d="M582 547q-125 0 -221.5 39t-154.5 108t-87 157t-29 193q0 83 18 156.5t56.5 136.5t95.5 108t139 71t183 26q125 0 221.5 -39t154.5 -108.5t87.5 -157.5t29.5 -193q0 -104 -29.5 -192.5t-87.5 -157.5t-154.5 -108t-221.5 -39zM582 780q126 0 181.5 69.5t55.5 186.5
t-55.5 186.5t-181.5 69.5q-236 0 -236 -256t236 -256z" />
    <glyph glyph-name="plusminus" unicode="&#xb1;" horiz-adv-x="1478" 
d="M190 12v287h390v279h-390v288h390v387h319v-387h389v-288h-389v-279h389v-287h-1098z" />
    <glyph glyph-name="two.superior" unicode="&#xb2;" horiz-adv-x="1050" 
d="M127 520v172l317 273q131 111 165 153.5t34 102.5q0 53 -35.5 78.5t-130.5 25.5q-68 0 -139 -17.5t-117 -43.5l-110 186q84 44 173.5 64t225.5 20q189 0 283 -67t94 -218q0 -110 -54 -188t-194 -197l-162 -145h418v-199h-768z" />
    <glyph glyph-name="threesuperior" unicode="&#xb3;" horiz-adv-x="1075" 
d="M522 508q-144 0 -242.5 27t-191.5 86l123 176q139 -82 287 -82q106 0 146 25.5t40 101.5q0 67 -41 90.5t-160 23.5h-176v195h172q105 0 140.5 15t35.5 71q0 52 -34.5 69t-128.5 17q-161 0 -273 -68l-115 185q73 46 184.5 71t239.5 25q200 0 288.5 -60t88.5 -182
q0 -90 -31 -143t-96 -78q79 -24 116.5 -85t37.5 -175q0 -159 -101 -232t-309 -73z" />
    <glyph glyph-name="acute" unicode="&#xb4;" horiz-adv-x="1208" 
d="M393 1270l289 375h387l-391 -375h-285z" />
    <glyph glyph-name="mu" unicode="&#xb5;" horiz-adv-x="1363" 
d="M549 -23q-59 0 -127 11v-326h-295v1497h322v-649q0 -50 4 -84.5t16.5 -68.5t35 -53.5t60.5 -31.5t92 -12q65 0 111.5 13t74 34t43 56t20.5 71t5 88v637h324v-1147l-246 -22l-31 116q-111 -129 -409 -129z" />
    <glyph glyph-name="paragraph" unicode="&#xb6;" horiz-adv-x="1390" 
d="M461 0v510q-89 18 -155 52t-107 77.5t-65.5 103.5t-34 123.5t-9.5 143.5q0 99 15 173t55.5 139.5t108 107t174.5 65t253 23.5h535v-1518h-301v489h-168v-489h-301zM686 745h244v494h-240q-158 0 -217 -52.5t-59 -193.5q0 -137 60 -192.5t212 -55.5z" />
    <glyph glyph-name="periodcentered" unicode="&#xb7;" horiz-adv-x="600" 
d="M113 561v377h372v-377h-372z" />
    <glyph glyph-name="periodcentered" unicode="&#x2219;" horiz-adv-x="600" 
d="M113 561v377h372v-377h-372z" />
    <glyph glyph-name="cedilla" unicode="&#xb8;" horiz-adv-x="1208" 
d="M604 -510q-151 0 -274 68l80 149q96 -49 182 -49q72 0 100.5 19.5t28.5 64.5q0 50 -45.5 64.5t-134.5 7.5l-62 39l35 161h180l-18 -100q44 1 76 -1t68.5 -12.5t59 -31t37.5 -58.5t15 -92q0 -124 -84.5 -176.5t-243.5 -52.5z" />
    <glyph glyph-name="one.superior" unicode="&#xb9;" horiz-adv-x="768" 
d="M295 520v783h-172v215h424v-998h-252z" />
    <glyph glyph-name="ordmasculine" unicode="&#xba;" horiz-adv-x="1251" 
d="M627 565q-255 0 -373.5 124t-118.5 366t118 364.5t374 122.5q253 0 371 -122.5t118 -364.5t-118 -366t-371 -124zM627 791q121 0 173 65.5t52 190.5t-52 190.5t-173 65.5t-173.5 -65.5t-52.5 -190.5t52.5 -190.5t173.5 -65.5zM195 233v230h862v-230h-862z" />
    <glyph glyph-name="guillemotright" unicode="&#xbb;" horiz-adv-x="1570" 
d="M264 0l285 580l-285 579h281l309 -579l-309 -580h-281zM774 0l285 580l-285 579h283l309 -579l-309 -580h-283z" />
    <glyph glyph-name="onequarter" unicode="&#xbc;" horiz-adv-x="2136" 
d="M1686 0v184h-502v178l444 633h273l-433 -614h222l47 209h186v-209h152v-197h-152v-184h-237zM250 522v781h-172v215h432v-996h-260zM432 0l850 1518h281l-848 -1518h-283z" />
    <glyph glyph-name="onehalf" unicode="&#xbd;" horiz-adv-x="2240" 
d="M1352 0v174l315 270q135 115 168 154t33 96q0 53 -35.5 79t-130.5 26q-69 0 -139 -18t-117 -44l-113 187q87 44 176.5 64t225.5 20q188 0 281 -67t93 -218q0 -109 -53 -185t-194 -194l-162 -145h416v-199h-764zM250 522v781h-172v215h432v-996h-260zM432 0l850 1518h281
l-848 -1518h-283z" />
    <glyph glyph-name="threequarters" unicode="&#xbe;" horiz-adv-x="2410" 
d="M510 514q-145 0 -243 26.5t-193 84.5l125 178q139 -82 284 -82q107 0 147 24.5t40 100.5q0 68 -41.5 92.5t-157.5 24.5h-176v194h172q104 0 140 16t36 72q0 52 -35 68t-129 16q-160 0 -274 -67l-113 184q154 96 424 96q199 0 287 -60t88 -182q0 -168 -137 -221
q166 -51 166 -260q0 -159 -101 -232t-309 -73zM1960 0v184h-502v178l445 633h274l-434 -614h223l47 209h187v-209h149v-197h-149v-184h-240zM711 0l848 1518h280l-848 -1518h-280z" />
    <glyph glyph-name="questiondown" unicode="&#xbf;" horiz-adv-x="1437" 
d="M696 -25q-294 0 -430.5 94.5t-136.5 309.5q0 83 18 144.5t56.5 107t87 77.5t121.5 64q52 22 83 38t55.5 36.5t35.5 38t16.5 48t4.5 61t-5 83.5h313q10 -71 11.5 -124.5t-8 -98t-27.5 -77t-51 -62t-73.5 -52.5t-100.5 -49q-130 -59 -168.5 -97t-38.5 -109q0 -38 9.5 -62.5
t36.5 -45.5t80.5 -30.5t135.5 -9.5q230 3 434 102l135 -266q-113 -56 -272.5 -88.5t-321.5 -32.5zM573 1196v322h375v-322h-375z" />
    <glyph glyph-name="Agrave" unicode="&#xc0;" horiz-adv-x="1615" 
d="M29 0l608 1528h340l612 -1528h-348l-98 250h-688l-99 -250h-327zM561 526h475l-237 604zM731 1599l-391 375h387l289 -375h-285z" />
    <glyph glyph-name="Aacute" unicode="&#xc1;" horiz-adv-x="1615" 
d="M29 0l608 1528h340l612 -1528h-348l-98 250h-688l-99 -250h-327zM561 526h475l-237 604zM594 1599l289 375h387l-391 -375h-285z" />
    <glyph glyph-name="Acircumflex" unicode="&#xc2;" horiz-adv-x="1615" 
d="M29 0l608 1528h340l612 -1528h-348l-98 250h-688l-99 -250h-327zM561 526h475l-237 604zM322 1599l317 375h332l317 -375h-301l-186 177l-185 -177h-294z" />
    <glyph glyph-name="Atilde" unicode="&#xc3;" horiz-adv-x="1615" 
d="M29 0l608 1528h340l612 -1528h-348l-98 250h-688l-99 -250h-327zM561 526h475l-237 604zM492 1591l-179 146q179 221 344 221q48 0 91 -17.5t69 -38t59 -38t64 -17.5q71 0 172 121l178 -145q-183 -226 -344 -226q-46 0 -88 17.5t-68.5 38t-60 38t-65.5 17.5
q-77 0 -172 -117z" />
    <glyph glyph-name="Adieresis" unicode="&#xc4;" horiz-adv-x="1615" 
d="M29 0l608 1528h340l612 -1528h-348l-98 250h-688l-99 -250h-327zM561 526h475l-237 604zM428 1610v278h291v-278h-291zM893 1610v278h289v-278h-289z" />
    <glyph glyph-name="Aring" unicode="&#xc5;" horiz-adv-x="1615" 
d="M29 0l567 1425q-82 76 -82 226q0 135 72 218t221 83q143 0 217 -84t74 -217q0 -142 -82 -224l573 -1427h-348l-98 250h-688l-99 -250h-327zM561 526h475l-237 604zM807 1511q68 0 99.5 38.5t31.5 101.5q0 65 -31.5 103t-99.5 38q-133 0 -133 -141q0 -63 32 -101.5
t101 -38.5z" />
    <glyph glyph-name="AE" unicode="&#xc6;" horiz-adv-x="2351" 
d="M6 0l952 1518h1278v-304h-804v-294h784v-293h-784v-336h813v-291h-1135v260h-604l-174 -260h-326zM666 532h444v693z" />
    <glyph glyph-name="Ccedilla" unicode="&#xc7;" horiz-adv-x="1554" 
d="M776 -510q-151 0 -274 68l80 149q96 -49 182 -49q72 0 100.5 19.5t28.5 64.5q0 50 -45.5 64.5t-134.5 7.5l-62 39l29 135q-321 37 -465.5 230.5t-144.5 541.5q0 399 206 590.5t594 191.5q202 0 344 -53.5t252 -165.5l-231 -231q-73 71 -160 107t-207 36
q-239 0 -349.5 -119t-110.5 -360q0 -118 23.5 -204t76.5 -149.5t143 -95t219 -31.5q135 0 219 38.5t166 115.5l222 -217q-51 -52 -102 -90t-124.5 -73t-172 -53.5t-220.5 -19.5l-10 -63q44 1 76 -1t68.5 -12.5t59 -31t37.5 -58.5t15 -92q0 -124 -84.5 -176.5t-243.5 -52.5z
" />
    <glyph glyph-name="Egrave" unicode="&#xc8;" horiz-adv-x="1406" 
d="M152 0v1518h1140v-304h-805v-294h785v-293h-785v-336h813v-291h-1148zM629 1599l-391 375h387l288 -375h-284z" />
    <glyph glyph-name="Eacute" unicode="&#xc9;" horiz-adv-x="1406" 
d="M492 1599l288 375h387l-391 -375h-284zM152 0v1518h1140v-304h-805v-294h785v-293h-785v-336h813v-291h-1148z" />
    <glyph glyph-name="Ecircumflex" unicode="&#xca;" horiz-adv-x="1406" 
d="M219 1599l318 375h331l318 -375h-301l-187 177l-184 -177h-295zM152 0v1518h1140v-304h-805v-294h785v-293h-785v-336h813v-291h-1148z" />
    <glyph glyph-name="Edieresis" unicode="&#xcb;" horiz-adv-x="1406" 
d="M326 1610v278h290v-278h-290zM791 1610v278h288v-278h-288zM152 0v1518h1140v-304h-805v-294h785v-293h-785v-336h813v-291h-1148z" />
    <glyph glyph-name="Igrave" unicode="&#xcc;" horiz-adv-x="681" 
d="M209 1599l-381 377h401l279 -377h-299zM174 0v1518h334v-1518h-334z" />
    <glyph glyph-name="Iacute" unicode="&#xcd;" horiz-adv-x="681" 
d="M174 1599l277 377h401l-379 -377h-299zM174 0v1518h334v-1518h-334z" />
    <glyph glyph-name="Icircumflex" unicode="&#xce;" horiz-adv-x="681" 
d="M-113 1599l287 377h332l287 -377h-301l-156 177l-154 -177h-295zM174 0v1518h334v-1518h-334z" />
    <glyph glyph-name="Idieresis" unicode="&#xcf;" horiz-adv-x="681" 
d="M174 0v1518h334v-1518h-334zM-35 1610v278h291v-278h-291zM430 1610v278h289v-278h-289z" />
    <glyph glyph-name="Eth" unicode="&#xd0;" horiz-adv-x="1609" 
d="M0 635v264h152v619h544q155 0 271 -14.5t213.5 -48.5t163 -90t111.5 -141t66.5 -199t20.5 -265q0 -221 -51 -368.5t-161 -234t-263.5 -122t-378.5 -35.5h-536v635h-152zM487 293h220q104 0 180.5 10.5t132.5 35t91 59t56 89.5t29 119t8 154q0 91 -7 153t-27.5 117
t-55 87.5t-91.5 56.5t-135 33.5t-188 9.5h-213v-318h283v-264h-283v-342z" />
    <glyph glyph-name="Ntilde" unicode="&#xd1;" horiz-adv-x="1685" 
d="M152 0v1518h362l698 -957v957h320v-1518h-307l-752 1024v-1024h-321zM526 1591l-178 146q179 221 344 221q48 0 91 -17.5t69 -38t59 -38t64 -17.5q71 0 172 121l178 -145q-183 -226 -344 -226q-46 0 -88.5 17.5t-68.5 38t-60 38t-66 17.5q-77 0 -172 -117z" />
    <glyph glyph-name="Ograve" unicode="&#xd2;" horiz-adv-x="1746" 
d="M872 -25q-802 0 -802 785q0 782 802 782q805 0 805 -782q0 -785 -805 -785zM872 270q128 0 219 33t144.5 98t77.5 151.5t24 201.5t-24 201t-77.5 150t-144.5 97t-219 33t-219 -33t-144 -97t-77 -150t-24 -201t24 -201.5t77 -151.5t144 -98t219 -33zM799 1599l-391 375
h387l288 -375h-284z" />
    <glyph glyph-name="Oacute" unicode="&#xd3;" horiz-adv-x="1746" 
d="M662 1599l288 375h387l-391 -375h-284zM872 -25q-802 0 -802 785q0 782 802 782q805 0 805 -782q0 -785 -805 -785zM872 270q128 0 219 33t144.5 98t77.5 151.5t24 201.5t-24 201t-77.5 150t-144.5 97t-219 33t-219 -33t-144 -97t-77 -150t-24 -201t24 -201.5t77 -151.5
t144 -98t219 -33z" />
    <glyph glyph-name="Ocircumflex" unicode="&#xd4;" horiz-adv-x="1746" 
d="M389 1599l318 375h331l318 -375h-301l-187 177l-184 -177h-295zM872 -25q-802 0 -802 785q0 782 802 782q805 0 805 -782q0 -785 -805 -785zM872 270q128 0 219 33t144.5 98t77.5 151.5t24 201.5t-24 201t-77.5 150t-144.5 97t-219 33t-219 -33t-144 -97t-77 -150
t-24 -201t24 -201.5t77 -151.5t144 -98t219 -33z" />
    <glyph glyph-name="Otilde" unicode="&#xd5;" horiz-adv-x="1746" 
d="M872 -25q-802 0 -802 785q0 782 802 782q805 0 805 -782q0 -785 -805 -785zM872 270q128 0 219 33t144.5 98t77.5 151.5t24 201.5t-24 201t-77.5 150t-144.5 97t-219 33t-219 -33t-144 -97t-77 -150t-24 -201t24 -201.5t77 -151.5t144 -98t219 -33zM559 1591l-178 146
q179 221 344 221q48 0 91 -17.5t69 -38t59 -38t64 -17.5q71 0 172 121l178 -145q-183 -226 -344 -226q-46 0 -88.5 17.5t-68.5 38t-60 38t-66 17.5q-77 0 -172 -117z" />
    <glyph glyph-name="Odieresis" unicode="&#xd6;" horiz-adv-x="1746" 
d="M496 1610v278h290v-278h-290zM961 1610v278h288v-278h-288zM872 -25q-802 0 -802 785q0 782 802 782q805 0 805 -782q0 -785 -805 -785zM872 270q128 0 219 33t144.5 98t77.5 151.5t24 201.5t-24 201t-77.5 150t-144.5 97t-219 33t-219 -33t-144 -97t-77 -150t-24 -201
t24 -201.5t77 -151.5t144 -98t219 -33z" />
    <glyph glyph-name="multiply" unicode="&#xd7;" horiz-adv-x="1478" 
d="M432 213l-194 203l305 305l-305 305l198 203l305 -305l303 305l197 -203l-305 -305l305 -303l-197 -203l-303 305z" />
    <glyph glyph-name="Oslash" unicode="&#xd8;" horiz-adv-x="1746" 
d="M872 -25q-154 0 -290 31l-54 -90h-313l119 199q-264 188 -264 645q0 168 37 299.5t104.5 222t167.5 149t221.5 85t271.5 26.5t283 -31l55 93h312l-119 -197q274 -191 274 -647q0 -785 -805 -785zM872 258q134 0 228 34t148 101t78 155t24 206q0 263 -121 381l-506 -865
q67 -12 149 -12zM395 754q0 -254 113 -373l498 856q-65 10 -134 10q-134 0 -228 -33.5t-148 -100t-77.5 -154t-23.5 -205.5z" />
    <glyph glyph-name="Ugrave" unicode="&#xd9;" horiz-adv-x="1671" 
d="M836 -29q-105 0 -192.5 11.5t-153.5 31.5t-119 51t-89 64t-62 77.5t-41 86t-24 94t-11.5 96t-2.5 97.5v938h336v-895q0 -72 8 -123.5t31 -98t63.5 -74t105 -43.5t155.5 -16t155 15t104.5 42t64 73t32 98.5t8.5 126.5v895h326v-938q0 -54 -2.5 -97.5t-11.5 -96t-24 -94
t-41.5 -86t-62.5 -77.5t-88.5 -64t-118 -51t-153.5 -31.5t-192 -11.5zM760 1599l-391 375h387l288 -375h-284z" />
    <glyph glyph-name="Uacute" unicode="&#xda;" horiz-adv-x="1671" 
d="M623 1599l288 375h387l-391 -375h-284zM836 -29q-105 0 -192.5 11.5t-153.5 31.5t-119 51t-89 64t-62 77.5t-41 86t-24 94t-11.5 96t-2.5 97.5v938h336v-895q0 -72 8 -123.5t31 -98t63.5 -74t105 -43.5t155.5 -16t155 15t104.5 42t64 73t32 98.5t8.5 126.5v895h326v-938
q0 -54 -2.5 -97.5t-11.5 -96t-24 -94t-41.5 -86t-62.5 -77.5t-88.5 -64t-118 -51t-153.5 -31.5t-192 -11.5z" />
    <glyph glyph-name="Ucircumflex" unicode="&#xdb;" horiz-adv-x="1671" 
d="M350 1599l318 375h331l318 -375h-301l-187 177l-184 -177h-295zM836 -29q-105 0 -192.5 11.5t-153.5 31.5t-119 51t-89 64t-62 77.5t-41 86t-24 94t-11.5 96t-2.5 97.5v938h336v-895q0 -72 8 -123.5t31 -98t63.5 -74t105 -43.5t155.5 -16t155 15t104.5 42t64 73t32 98.5
t8.5 126.5v895h326v-938q0 -54 -2.5 -97.5t-11.5 -96t-24 -94t-41.5 -86t-62.5 -77.5t-88.5 -64t-118 -51t-153.5 -31.5t-192 -11.5z" />
    <glyph glyph-name="Udieresis" unicode="&#xdc;" horiz-adv-x="1671" 
d="M457 1610v278h291v-278h-291zM922 1610v278h288v-278h-288zM836 -29q-105 0 -192.5 11.5t-153.5 31.5t-119 51t-89 64t-62 77.5t-41 86t-24 94t-11.5 96t-2.5 97.5v938h336v-895q0 -72 8 -123.5t31 -98t63.5 -74t105 -43.5t155.5 -16t155 15t104.5 42t64 73t32 98.5
t8.5 126.5v895h326v-938q0 -54 -2.5 -97.5t-11.5 -96t-24 -94t-41.5 -86t-62.5 -77.5t-88.5 -64t-118 -51t-153.5 -31.5t-192 -11.5z" />
    <glyph glyph-name="Yacute" unicode="&#xdd;" horiz-adv-x="1556" 
d="M610 0v532l-604 986h361l417 -684l418 684h346l-604 -986v-532h-334zM565 1599l289 375h387l-391 -375h-285z" />
    <glyph glyph-name="Thorn" unicode="&#xde;" horiz-adv-x="1556" 
d="M152 0v1518h327v-203h402q146 0 253.5 -24t174.5 -66t107.5 -108t55.5 -140.5t15 -173.5q0 -100 -14.5 -176.5t-55.5 -148t-109 -117.5t-180 -73.5t-264 -27.5h-385v-260h-327zM479 549h400q152 0 212 54.5t60 187.5q0 137 -58.5 187t-218.5 50h-395v-479z" />
    <glyph glyph-name="germandbls" unicode="&#xdf;" horiz-adv-x="1423" 
d="M127 0v1063q0 63 6.5 117t24 110.5t45 101.5t72.5 86t104.5 68.5t143 43.5t184.5 16q266 0 398 -106t132 -308q0 -160 -40.5 -240.5t-135.5 -120.5q74 -15 126.5 -40t92 -68.5t59 -111.5t19.5 -162q0 -99 -15.5 -167.5t-56.5 -125t-113.5 -89t-184.5 -50t-271 -17.5h-123
v272h113q106 0 174 13t102 41t45.5 61t11.5 84q0 75 -32 113t-116.5 55.5t-250.5 17.5v252q111 0 172 21t84 62t23 114q0 95 -50 141.5t-170 46.5q-136 0 -196 -59t-60 -184v-1051h-317z" />
    <glyph glyph-name="agrave" unicode="&#xe0;" horiz-adv-x="1320" 
d="M487 -18q-105 0 -182.5 18t-125.5 49t-77.5 78t-40 97.5t-10.5 115.5q0 98 29 168t84 116t148 73t207.5 37.5t275.5 10.5h47q-1 34 -5.5 56.5t-18.5 43.5t-39 32.5t-66 18.5t-101 7q-96 0 -185 -28t-151 -66l-159 235q78 52 222 97t308 45q126 0 213 -17t144.5 -50
t89.5 -91t44.5 -128.5t12.5 -174.5v-352q0 -71 15.5 -89t84.5 -18v-262q-31 -8 -135 -8q-93 0 -140.5 24t-80.5 91q-95 -129 -408 -129zM551 240q153 0 222 57t69 184v43h-27q-126 0 -205.5 -5t-132.5 -14t-78 -29t-34 -44t-9 -65q0 -66 44 -96.5t151 -30.5zM588 1270
l-391 375h387l288 -375h-284z" />
    <glyph glyph-name="aacute" unicode="&#xe1;" horiz-adv-x="1320" 
d="M487 -18q-105 0 -182.5 18t-125.5 49t-77.5 78t-40 97.5t-10.5 115.5q0 98 29 168t84 116t148 73t207.5 37.5t275.5 10.5h47q-1 34 -5.5 56.5t-18.5 43.5t-39 32.5t-66 18.5t-101 7q-96 0 -185 -28t-151 -66l-159 235q78 52 222 97t308 45q126 0 213 -17t144.5 -50
t89.5 -91t44.5 -128.5t12.5 -174.5v-352q0 -71 15.5 -89t84.5 -18v-262q-31 -8 -135 -8q-93 0 -140.5 24t-80.5 91q-95 -129 -408 -129zM551 240q153 0 222 57t69 184v43h-27q-126 0 -205.5 -5t-132.5 -14t-78 -29t-34 -44t-9 -65q0 -66 44 -96.5t151 -30.5zM451 1270
l288 375h387l-391 -375h-284z" />
    <glyph glyph-name="acircumflex" unicode="&#xe2;" horiz-adv-x="1320" 
d="M487 -18q-105 0 -182.5 18t-125.5 49t-77.5 78t-40 97.5t-10.5 115.5q0 98 29 168t84 116t148 73t207.5 37.5t275.5 10.5h47q-1 34 -5.5 56.5t-18.5 43.5t-39 32.5t-66 18.5t-101 7q-96 0 -185 -28t-151 -66l-159 235q78 52 222 97t308 45q126 0 213 -17t144.5 -50
t89.5 -91t44.5 -128.5t12.5 -174.5v-352q0 -71 15.5 -89t84.5 -18v-262q-31 -8 -135 -8q-93 0 -140.5 24t-80.5 91q-95 -129 -408 -129zM551 240q153 0 222 57t69 184v43h-27q-126 0 -205.5 -5t-132.5 -14t-78 -29t-34 -44t-9 -65q0 -66 44 -96.5t151 -30.5zM178 1270
l318 375h331l318 -375h-301l-187 176l-184 -176h-295z" />
    <glyph glyph-name="atilde" unicode="&#xe3;" horiz-adv-x="1320" 
d="M487 -18q-105 0 -182.5 18t-125.5 49t-77.5 78t-40 97.5t-10.5 115.5q0 98 29 168t84 116t148 73t207.5 37.5t275.5 10.5h47q-1 34 -5.5 56.5t-18.5 43.5t-39 32.5t-66 18.5t-101 7q-96 0 -185 -28t-151 -66l-159 235q78 52 222 97t308 45q126 0 213 -17t144.5 -50
t89.5 -91t44.5 -128.5t12.5 -174.5v-352q0 -71 15.5 -89t84.5 -18v-262q-31 -8 -135 -8q-93 0 -140.5 24t-80.5 91q-95 -129 -408 -129zM551 240q153 0 222 57t69 184v43h-27q-126 0 -205.5 -5t-132.5 -14t-78 -29t-34 -44t-9 -65q0 -66 44 -96.5t151 -30.5zM348 1262
l-178 145q179 221 344 221q48 0 91 -17t69 -38t59 -38t64 -17q72 0 172 120l178 -145q-182 -225 -344 -225q-46 0 -88.5 17t-68.5 38t-60 38t-66 17q-78 0 -172 -116z" />
    <glyph glyph-name="adieresis" unicode="&#xe4;" horiz-adv-x="1320" 
d="M487 -18q-105 0 -182.5 18t-125.5 49t-77.5 78t-40 97.5t-10.5 115.5q0 98 29 168t84 116t148 73t207.5 37.5t275.5 10.5h47q-1 34 -5.5 56.5t-18.5 43.5t-39 32.5t-66 18.5t-101 7q-96 0 -185 -28t-151 -66l-159 235q78 52 222 97t308 45q126 0 213 -17t144.5 -50
t89.5 -91t44.5 -128.5t12.5 -174.5v-352q0 -71 15.5 -89t84.5 -18v-262q-31 -8 -135 -8q-93 0 -140.5 24t-80.5 91q-95 -129 -408 -129zM551 240q153 0 222 57t69 184v43h-27q-126 0 -205.5 -5t-132.5 -14t-78 -29t-34 -44t-9 -65q0 -66 44 -96.5t151 -30.5zM285 1280v279
h290v-279h-290zM750 1280v279h288v-279h-288z" />
    <glyph glyph-name="aring" unicode="&#xe5;" horiz-adv-x="1320" 
d="M487 -18q-105 0 -182.5 18t-125.5 49t-77.5 78t-40 97.5t-10.5 115.5q0 98 29 168t84 116t148 73t207.5 37.5t275.5 10.5h47q-1 34 -5.5 56.5t-18.5 43.5t-39 32.5t-66 18.5t-101 7q-96 0 -185 -28t-151 -66l-159 235q78 52 222 97t308 45q126 0 213 -17t144.5 -50
t89.5 -91t44.5 -128.5t12.5 -174.5v-352q0 -71 15.5 -89t84.5 -18v-262q-31 -8 -135 -8q-93 0 -140.5 24t-80.5 91q-95 -129 -408 -129zM551 240q153 0 222 57t69 184v43h-27q-126 0 -205.5 -5t-132.5 -14t-78 -29t-34 -44t-9 -65q0 -66 44 -96.5t151 -30.5zM662 1237
q-149 0 -221 81t-72 216t72 218t221 83q143 0 216.5 -84t73.5 -217t-73.5 -215t-216.5 -82zM662 1395q68 0 99.5 38t31.5 101q0 65 -31.5 103t-99.5 38q-70 0 -102 -38t-32 -103q0 -63 32 -101t102 -38z" />
    <glyph glyph-name="ae" unicode="&#xe6;" horiz-adv-x="2025" 
d="M1434 -23q-342 0 -473 170q-25 -38 -54 -65.5t-65.5 -45.5t-72 -29t-85.5 -16.5t-92 -7t-105 -1.5q-129 0 -217 25t-134.5 75t-65.5 111.5t-19 146.5q0 99 28 168.5t82.5 115.5t147 73t207.5 37.5t279 10.5h47q-1 34 -5.5 56.5t-18.5 43.5t-39 32.5t-66 18.5t-101 7
q-96 0 -185 -28t-151 -66l-159 235q78 52 222 97t308 45q274 0 373 -113q139 113 412 113q125 0 217 -27t147 -75.5t90.5 -116t47 -148t16 -172t-1.5 -188.5h-807q14 -111 79.5 -166t213.5 -55q125 0 210 27t154 79l162 -209q-112 -86 -230 -122t-296 -36zM549 240
q155 0 224 56.5t69 184.5v43h-27q-127 0 -206.5 -5t-132.5 -14t-78 -29t-33.5 -44t-8.5 -65q0 -68 40.5 -97.5t152.5 -29.5zM1423 918q-143 0 -206 -58t-76 -172h514q-2 40 -4.5 64t-10.5 54t-23.5 47.5t-40 34t-63 23.5t-90.5 7z" />
    <glyph glyph-name="ccedilla" unicode="&#xe7;" horiz-adv-x="1202" 
d="M600 -510q-151 0 -274 68l80 149q96 -49 182 -49q72 0 100.5 19.5t28.5 64.5q0 50 -45.5 64.5t-134.5 7.5l-62 39l31 141q-101 16 -177.5 53.5t-125 89.5t-78.5 124.5t-41.5 149t-11.5 171.5q0 89 10.5 162t35.5 143.5t70.5 123t111.5 93t162 61.5t218 21q303 0 471 -189
l-225 -213q-47 49 -102.5 78t-143.5 29q-84 0 -141 -22t-88 -65.5t-43.5 -98.5t-12.5 -132q0 -78 12 -132.5t42.5 -99.5t88.5 -67t144 -22q80 0 139.5 26.5t122.5 86.5l205 -197q-104 -97 -205 -140t-260 -46l-12 -68q44 1 76 -1t68.5 -12.5t59 -31t37.5 -58.5t15 -92
q0 -124 -84.5 -176.5t-243.5 -52.5z" />
    <glyph glyph-name="egrave" unicode="&#xe8;" horiz-adv-x="1267" 
d="M676 -23q-123 0 -219 21.5t-161 62.5t-110 94t-69.5 124t-34.5 143t-10 160q0 104 14.5 188t55 164t106 133.5t174 86t252.5 32.5q107 0 190 -20t137.5 -56.5t93 -88t57 -114t29.5 -135t10 -151.5t-1 -162h-807q14 -111 79.5 -166t213.5 -55q125 0 209 27t155 79
l162 -209q-113 -85 -234 -121.5t-292 -36.5zM664 918q-142 0 -205 -58t-76 -172h514q-3 57 -12 93t-32.5 70.5t-70 50.5t-118.5 16zM559 1270l-391 375h387l289 -375h-285z" />
    <glyph glyph-name="eacute" unicode="&#xe9;" horiz-adv-x="1267" 
d="M422 1270l289 375h387l-391 -375h-285zM676 -23q-123 0 -219 21.5t-161 62.5t-110 94t-69.5 124t-34.5 143t-10 160q0 104 14.5 188t55 164t106 133.5t174 86t252.5 32.5q107 0 190 -20t137.5 -56.5t93 -88t57 -114t29.5 -135t10 -151.5t-1 -162h-807q14 -111 79.5 -166
t213.5 -55q125 0 209 27t155 79l162 -209q-113 -85 -234 -121.5t-292 -36.5zM664 918q-142 0 -205 -58t-76 -172h514q-3 57 -12 93t-32.5 70.5t-70 50.5t-118.5 16z" />
    <glyph glyph-name="ecircumflex" unicode="&#xea;" horiz-adv-x="1267" 
d="M150 1270l317 375h332l317 -375h-301l-186 176l-185 -176h-294zM676 -23q-123 0 -219 21.5t-161 62.5t-110 94t-69.5 124t-34.5 143t-10 160q0 104 14.5 188t55 164t106 133.5t174 86t252.5 32.5q107 0 190 -20t137.5 -56.5t93 -88t57 -114t29.5 -135t10 -151.5t-1 -162
h-807q14 -111 79.5 -166t213.5 -55q125 0 209 27t155 79l162 -209q-113 -85 -234 -121.5t-292 -36.5zM664 918q-142 0 -205 -58t-76 -172h514q-3 57 -12 93t-32.5 70.5t-70 50.5t-118.5 16z" />
    <glyph glyph-name="edieresis" unicode="&#xeb;" horiz-adv-x="1267" 
d="M256 1280v279h291v-279h-291zM721 1280v279h289v-279h-289zM676 -23q-123 0 -219 21.5t-161 62.5t-110 94t-69.5 124t-34.5 143t-10 160q0 104 14.5 188t55 164t106 133.5t174 86t252.5 32.5q107 0 190 -20t137.5 -56.5t93 -88t57 -114t29.5 -135t10 -151.5t-1 -162h-807
q14 -111 79.5 -166t213.5 -55q125 0 209 27t155 79l162 -209q-113 -85 -234 -121.5t-292 -36.5zM664 918q-142 0 -205 -58t-76 -172h514q-3 57 -12 93t-32.5 70.5t-70 50.5t-118.5 16z" />
    <glyph glyph-name="igrave" unicode="&#xec;" horiz-adv-x="600" 
d="M166 1270l-291 375h391l191 -375h-291zM139 0v1159h320v-1159h-320z" />
    <glyph glyph-name="iacute" unicode="&#xed;" horiz-adv-x="600" 
d="M143 1270l189 375h393l-291 -375h-291zM139 0v1159h320v-1159h-320z" />
    <glyph glyph-name="icircumflex" unicode="&#xee;" horiz-adv-x="600" 
d="M-125 1270l266 375h316l266 -375h-293l-135 176l-135 -176h-285zM139 0v1159h320v-1159h-320z" />
    <glyph glyph-name="idieresis" unicode="&#xef;" horiz-adv-x="600" 
d="M-33 1280v279h258v-279h-258zM375 1280v279h258v-279h-258zM139 0v1159h320v-1159h-320z" />
    <glyph glyph-name="eth" unicode="&#xf0;" horiz-adv-x="1357" 
d="M569 1174v208l127 25q-55 72 -100 125l309 100q70 -67 131 -155l267 55v-209l-160 -33q141 -304 141 -663q0 -344 -148.5 -497t-459.5 -153q-129 0 -230.5 26.5t-171.5 75t-115.5 119t-66 155.5t-20.5 188q0 557 508 557q125 0 204 -18.5t121 -63.5q-23 97 -86 209z
M676 252q154 0 219.5 76t65.5 221t-65 217t-220 72q-151 0 -216 -72.5t-65 -216.5t65.5 -220.5t215.5 -76.5z" />
    <glyph glyph-name="ntilde" unicode="&#xf1;" horiz-adv-x="1359" 
d="M127 0v1141l250 18l26 -100q114 127 420 127q103 0 177.5 -23.5t120 -63t72.5 -103t36.5 -132.5t9.5 -162v-702h-319v639q0 49 -3 80.5t-15 65.5t-34.5 53.5t-62 32t-96.5 12.5q-81 0 -134 -17.5t-80 -54.5t-36.5 -80t-9.5 -106v-625h-322zM365 1262l-179 145
q179 221 344 221q48 0 91 -17t69 -38t59 -38t64 -17q72 0 172 120l178 -145q-182 -225 -344 -225q-46 0 -88 17t-68.5 38t-60 38t-65.5 17q-78 0 -172 -116z" />
    <glyph glyph-name="ograve" unicode="&#xf2;" horiz-adv-x="1353" 
d="M678 -23q-318 0 -462 152t-144 453t143.5 452.5t462.5 151.5q318 0 461 -151.5t143 -452.5t-143 -453t-461 -152zM678 252q157 0 220 81t63 240t-63 239.5t-220 80.5q-158 0 -220.5 -80.5t-62.5 -239.5q0 -78 13 -134t44.5 -99.5t87.5 -65.5t138 -22zM602 1270l-391 375
h387l289 -375h-285z" />
    <glyph glyph-name="oacute" unicode="&#xf3;" horiz-adv-x="1353" 
d="M465 1270l289 375h387l-391 -375h-285zM678 -23q-318 0 -462 152t-144 453t143.5 452.5t462.5 151.5q318 0 461 -151.5t143 -452.5t-143 -453t-461 -152zM678 252q157 0 220 81t63 240t-63 239.5t-220 80.5q-158 0 -220.5 -80.5t-62.5 -239.5q0 -78 13 -134t44.5 -99.5
t87.5 -65.5t138 -22z" />
    <glyph glyph-name="ocircumflex" unicode="&#xf4;" horiz-adv-x="1353" 
d="M193 1270l317 375h332l317 -375h-301l-186 176l-185 -176h-294zM678 -23q-318 0 -462 152t-144 453t143.5 452.5t462.5 151.5q318 0 461 -151.5t143 -452.5t-143 -453t-461 -152zM678 252q157 0 220 81t63 240t-63 239.5t-220 80.5q-158 0 -220.5 -80.5t-62.5 -239.5
q0 -78 13 -134t44.5 -99.5t87.5 -65.5t138 -22z" />
    <glyph glyph-name="otilde" unicode="&#xf5;" horiz-adv-x="1353" 
d="M678 -23q-318 0 -462 152t-144 453t143.5 452.5t462.5 151.5q318 0 461 -151.5t143 -452.5t-143 -453t-461 -152zM678 252q157 0 220 81t63 240t-63 239.5t-220 80.5q-158 0 -220.5 -80.5t-62.5 -239.5q0 -78 13 -134t44.5 -99.5t87.5 -65.5t138 -22zM362 1262l-178 145
q179 221 344 221q48 0 91 -17t69 -38t59 -38t64 -17q72 0 172 120l178 -145q-182 -225 -344 -225q-46 0 -88 17t-68.5 38t-60 38t-65.5 17q-79 0 -173 -116z" />
    <glyph glyph-name="odieresis" unicode="&#xf6;" horiz-adv-x="1353" 
d="M299 1280v279h291v-279h-291zM764 1280v279h289v-279h-289zM678 -23q-318 0 -462 152t-144 453t143.5 452.5t462.5 151.5q318 0 461 -151.5t143 -452.5t-143 -453t-461 -152zM678 252q157 0 220 81t63 240t-63 239.5t-220 80.5q-158 0 -220.5 -80.5t-62.5 -239.5
q0 -78 13 -134t44.5 -99.5t87.5 -65.5t138 -22z" />
    <glyph glyph-name="divide" unicode="&#xf7;" horiz-adv-x="1478" 
d="M578 162v276h323v-276h-323zM190 578v288h1098v-288h-1098zM578 1006v276h323v-276h-323z" />
    <glyph glyph-name="oslash" unicode="&#xf8;" horiz-adv-x="1353" 
d="M678 -23q-117 0 -225 23l-56 -88h-286l122 192q-161 140 -161 478q0 150 31.5 259t101.5 188t187.5 118t285.5 39q118 0 221 -23l57 88h289l-125 -194q162 -144 162 -475q0 -150 -31 -259t-100.5 -188.5t-187 -118.5t-285.5 -39zM678 244q162 0 225.5 83.5t63.5 245.5
q0 134 -39 205l-330 -528q34 -6 80 -6zM389 573q0 -128 33 -198l323 520q-30 6 -67 6q-85 0 -142.5 -22.5t-89 -67.5t-44.5 -102t-13 -136z" />
    <glyph glyph-name="ugrave" unicode="&#xf9;" horiz-adv-x="1343" 
d="M674 -18q-166 0 -273 30.5t-169.5 101.5t-86.5 171.5t-24 255.5v618h321v-624q0 -37 0.5 -58.5t3.5 -52t9.5 -48t17.5 -39t28.5 -33.5t41.5 -23.5t57.5 -16t75.5 -4.5q48 0 84.5 7.5t61 18.5t41 33t25 40.5t13 52.5t5.5 58t1 67v622h316v-616q0 -124 -15 -211.5t-51 -157
t-99 -110t-157 -61.5t-227 -21zM598 1270l-391 375h387l289 -375h-285z" />
    <glyph glyph-name="uacute" unicode="&#xfa;" horiz-adv-x="1343" 
d="M461 1270l289 375h387l-392 -375h-284zM674 -18q-166 0 -273 30.5t-169.5 101.5t-86.5 171.5t-24 255.5v618h321v-624q0 -37 0.5 -58.5t3.5 -52t9.5 -48t17.5 -39t28.5 -33.5t41.5 -23.5t57.5 -16t75.5 -4.5q48 0 84.5 7.5t61 18.5t41 33t25 40.5t13 52.5t5.5 58t1 67
v622h316v-616q0 -124 -15 -211.5t-51 -157t-99 -110t-157 -61.5t-227 -21z" />
    <glyph glyph-name="ucircumflex" unicode="&#xfb;" horiz-adv-x="1343" 
d="M188 1270l318 375h332l317 -375h-301l-186 176l-185 -176h-295zM674 -18q-166 0 -273 30.5t-169.5 101.5t-86.5 171.5t-24 255.5v618h321v-624q0 -37 0.5 -58.5t3.5 -52t9.5 -48t17.5 -39t28.5 -33.5t41.5 -23.5t57.5 -16t75.5 -4.5q48 0 84.5 7.5t61 18.5t41 33t25 40.5
t13 52.5t5.5 58t1 67v622h316v-616q0 -124 -15 -211.5t-51 -157t-99 -110t-157 -61.5t-227 -21z" />
    <glyph glyph-name="udieresis" unicode="&#xfc;" horiz-adv-x="1343" 
d="M295 1280v279h291v-279h-291zM760 1280v279h289v-279h-289zM674 -18q-166 0 -273 30.5t-169.5 101.5t-86.5 171.5t-24 255.5v618h321v-624q0 -37 0.5 -58.5t3.5 -52t9.5 -48t17.5 -39t28.5 -33.5t41.5 -23.5t57.5 -16t75.5 -4.5q48 0 84.5 7.5t61 18.5t41 33t25 40.5
t13 52.5t5.5 58t1 67v622h316v-616q0 -124 -15 -211.5t-51 -157t-99 -110t-157 -61.5t-227 -21z" />
    <glyph glyph-name="yacute" unicode="&#xfd;" horiz-adv-x="1196" 
d="M274 -348q-44 0 -114 4v242h86q95 0 130 17t50 69l14 43l-442 1132h346l268 -737l260 737h326l-465 -1210q-42 -112 -93.5 -174t-138.5 -92.5t-227 -30.5zM389 1270l289 375h387l-391 -375h-285z" />
    <glyph glyph-name="thorn" unicode="&#xfe;" horiz-adv-x="1394" 
d="M127 -338v1927h319v-514q94 111 381 111q116 0 204 -31.5t142.5 -84.5t89 -132t47.5 -164.5t13 -191.5t-14 -191.5t-49.5 -164t-92.5 -131.5t-147.5 -84t-210.5 -31q-150 0 -234 27t-126 81v-426h-322zM745 254q75 0 126 22.5t78 67t37.5 98t10.5 127.5q0 76 -10 130
t-36.5 100.5t-77.5 70t-128 23.5q-162 0 -229 -76.5t-67 -247.5t63 -243t233 -72z" />
    <glyph glyph-name="ydieresis" unicode="&#xff;" horiz-adv-x="1196" 
d="M274 -348q-44 0 -114 4v242h86q95 0 130 17t50 69l14 43l-442 1132h346l268 -737l260 737h326l-465 -1210q-42 -112 -93.5 -174t-138.5 -92.5t-227 -30.5zM223 1280v279h291v-279h-291zM688 1280v279h289v-279h-289z" />
    <glyph glyph-name="Amacron" unicode="&#x100;" horiz-adv-x="1615" 
d="M29 0l608 1528h340l612 -1528h-348l-98 250h-688l-99 -250h-327zM561 526h475l-237 604zM375 1579v256h860v-256h-860z" />
    <glyph glyph-name="amacron" unicode="&#x101;" horiz-adv-x="1320" 
d="M487 -18q-105 0 -182.5 18t-125.5 49t-77.5 78t-40 97.5t-10.5 115.5q0 98 29 168t84 116t148 73t207.5 37.5t275.5 10.5h47q-1 34 -5.5 56.5t-18.5 43.5t-39 32.5t-66 18.5t-101 7q-96 0 -185 -28t-151 -66l-159 235q78 52 222 97t308 45q126 0 213 -17t144.5 -50
t89.5 -91t44.5 -128.5t12.5 -174.5v-352q0 -71 15.5 -89t84.5 -18v-262q-31 -8 -135 -8q-93 0 -140.5 24t-80.5 91q-95 -129 -408 -129zM551 240q153 0 222 57t69 184v43h-27q-126 0 -205.5 -5t-132.5 -14t-78 -29t-34 -44t-9 -65q0 -66 44 -96.5t151 -30.5zM231 1249v256
h861v-256h-861z" />
    <glyph glyph-name="Abreve" unicode="&#x102;" horiz-adv-x="1615" 
d="M29 0l608 1528h340l612 -1528h-348l-98 250h-688l-99 -250h-327zM561 526h475l-237 604zM805 1569q-111 0 -189.5 27.5t-127.5 83.5t-76.5 124t-46.5 166l231 43q12 -56 26 -90.5t37.5 -60t58.5 -36.5t87 -11t87 11t58.5 36.5t37.5 60t26 90.5l233 -41q-21 -99 -49 -167
t-77.5 -124.5t-127.5 -84t-188 -27.5z" />
    <glyph glyph-name="abreve" unicode="&#x103;" horiz-adv-x="1320" 
d="M487 -18q-105 0 -182.5 18t-125.5 49t-77.5 78t-40 97.5t-10.5 115.5q0 98 29 168t84 116t148 73t207.5 37.5t275.5 10.5h47q-1 34 -5.5 56.5t-18.5 43.5t-39 32.5t-66 18.5t-101 7q-96 0 -185 -28t-151 -66l-159 235q78 52 222 97t308 45q126 0 213 -17t144.5 -50
t89.5 -91t44.5 -128.5t12.5 -174.5v-352q0 -71 15.5 -89t84.5 -18v-262q-31 -8 -135 -8q-93 0 -140.5 24t-80.5 91q-95 -129 -408 -129zM551 240q153 0 222 57t69 184v43h-27q-126 0 -205.5 -5t-132.5 -14t-78 -29t-34 -44t-9 -65q0 -66 44 -96.5t151 -30.5zM662 1239
q-89 0 -157.5 19t-115 52t-80 85t-53.5 109.5t-35 135.5l232 43q12 -56 26 -90.5t37.5 -60t58.5 -36.5t87 -11q100 0 141.5 43.5t66.5 154.5l234 -41q-21 -99 -49 -167t-77.5 -124.5t-127.5 -84t-188 -27.5z" />
    <glyph glyph-name="Aogonek" unicode="&#x104;" horiz-adv-x="1615" 
d="M29 0l608 1528h340l612 -1528h-98q-93 -58 -137.5 -112t-44.5 -95q0 -40 21 -59t83 -19q73 0 158 29l59 -174q-124 -57 -260 -57q-167 0 -237 55.5t-70 161.5q0 89 52 162t120 118l-92 240h-688l-99 -250h-327zM561 526h475l-237 604z" />
    <glyph glyph-name="aogonek" unicode="&#x105;" horiz-adv-x="1320" 
d="M487 -18q-105 0 -182.5 18t-125.5 49t-77.5 78t-40 97.5t-10.5 115.5q0 98 29 168t84 116t148 73t207.5 37.5t275.5 10.5h47q-1 34 -5.5 56.5t-18.5 43.5t-39 32.5t-66 18.5t-101 7q-96 0 -185 -28t-151 -66l-159 235q78 52 222 97t308 45q126 0 213 -17t144.5 -50
t89.5 -91t44.5 -128.5t12.5 -174.5v-352q0 -71 15.5 -89t84.5 -18v-262q-202 -123 -202 -211q0 -40 21 -59t83 -19q73 0 158 29l59 -174q-124 -57 -260 -57q-167 0 -237 55.5t-70 161.5q0 53 18.5 100.5t49.5 82t60.5 58t61.5 41.5q-33 13 -53 33q-26 23 -45 66
q-95 -129 -408 -129zM551 240q153 0 222 57t69 184v43h-27q-126 0 -205.5 -5t-132.5 -14t-78 -29t-34 -44t-9 -65q0 -66 44 -96.5t151 -30.5z" />
    <glyph glyph-name="Cacute" unicode="&#x106;" horiz-adv-x="1554" 
d="M565 1599l289 375h387l-391 -375h-285zM850 -23q-210 0 -360.5 51t-242.5 153t-134.5 244.5t-42.5 334.5q0 399 206 590.5t594 191.5q202 0 344 -53.5t252 -165.5l-231 -231q-73 71 -160 107t-207 36q-239 0 -349.5 -119t-110.5 -360q0 -118 23.5 -204t76.5 -149.5
t143 -95t219 -31.5q135 0 219 38.5t166 115.5l222 -217q-51 -53 -102.5 -91t-125.5 -73t-174.5 -53.5t-224.5 -18.5z" />
    <glyph glyph-name="cacute" unicode="&#x107;" horiz-adv-x="1202" 
d="M389 1270l289 375h387l-391 -375h-285zM666 -18q-140 0 -245.5 30.5t-171 82t-106 130t-56 164t-15.5 193.5q0 89 10.5 162t35.5 143.5t70.5 123t111.5 93t162 61.5t218 21q303 0 471 -189l-225 -213q-47 49 -102.5 78t-143.5 29q-84 0 -141 -22t-88 -65.5t-43.5 -98.5
t-12.5 -132q0 -78 12 -132.5t42.5 -99.5t88.5 -67t144 -22q80 0 139.5 26.5t122.5 86.5l205 -197q-108 -100 -212 -143t-271 -43z" />
    <glyph glyph-name="Ccircumflex" unicode="&#x108;" horiz-adv-x="1554" 
d="M313 1599l318 375h332l317 -375h-301l-186 177l-185 -177h-295zM850 -23q-210 0 -360.5 51t-242.5 153t-134.5 244.5t-42.5 334.5q0 399 206 590.5t594 191.5q202 0 344 -53.5t252 -165.5l-231 -231q-73 71 -160 107t-207 36q-239 0 -349.5 -119t-110.5 -360
q0 -118 23.5 -204t76.5 -149.5t143 -95t219 -31.5q135 0 219 38.5t166 115.5l222 -217q-51 -53 -102.5 -91t-125.5 -73t-174.5 -53.5t-224.5 -18.5z" />
    <glyph glyph-name="ccircumflex" unicode="&#x109;" horiz-adv-x="1202" 
d="M135 1270l318 375h331l318 -375h-301l-187 176l-184 -176h-295zM666 -18q-140 0 -245.5 30.5t-171 82t-106 130t-56 164t-15.5 193.5q0 89 10.5 162t35.5 143.5t70.5 123t111.5 93t162 61.5t218 21q303 0 471 -189l-225 -213q-47 49 -102.5 78t-143.5 29q-84 0 -141 -22
t-88 -65.5t-43.5 -98.5t-12.5 -132q0 -78 12 -132.5t42.5 -99.5t88.5 -67t144 -22q80 0 139.5 26.5t122.5 86.5l205 -197q-108 -100 -212 -143t-271 -43z" />
    <glyph glyph-name="Cdotaccent" unicode="&#x10a;" horiz-adv-x="1554" 
d="M850 -23q-210 0 -360.5 51t-242.5 153t-134.5 244.5t-42.5 334.5q0 399 206 590.5t594 191.5q202 0 344 -53.5t252 -165.5l-231 -231q-73 71 -160 107t-207 36q-239 0 -349.5 -119t-110.5 -360q0 -118 23.5 -204t76.5 -149.5t143 -95t219 -31.5q135 0 219 38.5t166 115.5
l222 -217q-51 -53 -102.5 -91t-125.5 -73t-174.5 -53.5t-224.5 -18.5zM641 1595v285h326v-285h-326z" />
    <glyph glyph-name="cdotaccent" unicode="&#x10b;" horiz-adv-x="1202" 
d="M666 -18q-140 0 -245.5 30.5t-171 82t-106 130t-56 164t-15.5 193.5q0 89 10.5 162t35.5 143.5t70.5 123t111.5 93t162 61.5t218 21q303 0 471 -189l-225 -213q-47 49 -102.5 78t-143.5 29q-84 0 -141 -22t-88 -65.5t-43.5 -98.5t-12.5 -132q0 -78 12 -132.5t42.5 -99.5
t88.5 -67t144 -22q80 0 139.5 26.5t122.5 86.5l205 -197q-108 -100 -212 -143t-271 -43zM471 1266v284h326v-284h-326z" />
    <glyph glyph-name="Ccaron" unicode="&#x10c;" horiz-adv-x="1554" 
d="M610 1599l-317 375h301l186 -176l185 176h295l-318 -375h-332zM850 -23q-210 0 -360.5 51t-242.5 153t-134.5 244.5t-42.5 334.5q0 399 206 590.5t594 191.5q202 0 344 -53.5t252 -165.5l-231 -231q-73 71 -160 107t-207 36q-239 0 -349.5 -119t-110.5 -360
q0 -118 23.5 -204t76.5 -149.5t143 -95t219 -31.5q135 0 219 38.5t166 115.5l222 -217q-51 -53 -102.5 -91t-125.5 -73t-174.5 -53.5t-224.5 -18.5z" />
    <glyph glyph-name="ccaron" unicode="&#x10d;" horiz-adv-x="1202" 
d="M434 1270l-317 375h301l186 -177l184 177h295l-317 -375h-332zM666 -18q-140 0 -245.5 30.5t-171 82t-106 130t-56 164t-15.5 193.5q0 89 10.5 162t35.5 143.5t70.5 123t111.5 93t162 61.5t218 21q303 0 471 -189l-225 -213q-47 49 -102.5 78t-143.5 29q-84 0 -141 -22
t-88 -65.5t-43.5 -98.5t-12.5 -132q0 -78 12 -132.5t42.5 -99.5t88.5 -67t144 -22q80 0 139.5 26.5t122.5 86.5l205 -197q-108 -100 -212 -143t-271 -43z" />
    <glyph glyph-name="Dcaron" unicode="&#x10e;" horiz-adv-x="1609" 
d="M637 1599l-318 375h302l186 -176l184 176h295l-317 -375h-332zM152 0v1518h544q155 0 271 -14.5t213.5 -48.5t163 -90t111.5 -141t66.5 -199t20.5 -265q0 -178 -32 -306.5t-95.5 -216.5t-168.5 -140t-239 -74.5t-319 -22.5h-536zM487 293h220q104 0 180.5 10.5t132.5 35
t91 59t56 89.5t29 119t8 154q0 91 -7 153t-27.5 117t-55 87.5t-91.5 56.5t-135 33.5t-188 9.5h-213v-924z" />
    <glyph glyph-name="dcaron" unicode="&#x10f;" horiz-adv-x="1714" 
d="M1464 991l-69 137q93 43 118 68t25 76h-135v317h307v-225q0 -69 -5.5 -113t-19 -83.5t-42.5 -67.5t-70.5 -54t-108.5 -55zM575 -23q-116 0 -205 32t-144.5 85.5t-91 133t-49 166t-13.5 192.5q0 105 14 190.5t50 163.5t93.5 131t147.5 84t209 31q272 0 360 -109v512h322
v-1577l-246 -22l-33 116q-110 -129 -414 -129zM651 254q161 0 228 80t67 252q0 170 -62.5 240.5t-232.5 70.5q-77 0 -128.5 -22t-78 -65.5t-37 -96t-10.5 -127.5q0 -60 6 -106.5t23 -90.5t44.5 -72.5t73 -45.5t107.5 -17z" />
    <glyph glyph-name="Dcroat" unicode="&#x110;" horiz-adv-x="1609" 
d="M0 635v264h152v619h544q155 0 271 -14.5t213.5 -48.5t163 -90t111.5 -141t66.5 -199t20.5 -265q0 -221 -51 -368.5t-161 -234t-263.5 -122t-378.5 -35.5h-536v635h-152zM487 293h220q104 0 180.5 10.5t132.5 35t91 59t56 89.5t29 119t8 154q0 91 -7 153t-27.5 117
t-55 87.5t-91.5 56.5t-135 33.5t-188 9.5h-213v-318h283v-264h-283v-342z" />
    <glyph glyph-name="dcroat" unicode="&#x111;" horiz-adv-x="1394" 
d="M711 1235v252h235v102h322v-102h127v-252h-127v-1223l-246 -22l-33 116q-110 -129 -414 -129q-116 0 -205 32t-144.5 85.5t-91 133t-49 166t-13.5 192.5q0 105 14 190.5t50 163.5t93.5 131t147.5 84t209 31q272 0 360 -109v158h-235zM651 254q161 0 228 80t67 252
q0 170 -62.5 240.5t-232.5 70.5q-77 0 -128.5 -22t-78 -65.5t-37 -96t-10.5 -127.5q0 -60 6 -106.5t23 -90.5t44.5 -72.5t73 -45.5t107.5 -17z" />
    <glyph glyph-name="Emacron" unicode="&#x112;" horiz-adv-x="1406" 
d="M152 0v1518h1140v-304h-805v-294h785v-293h-785v-336h813v-291h-1148zM272 1579v256h861v-256h-861z" />
    <glyph glyph-name="emacron" unicode="&#x113;" horiz-adv-x="1267" 
d="M676 -23q-123 0 -219 21.5t-161 62.5t-110 94t-69.5 124t-34.5 143t-10 160q0 104 14.5 188t55 164t106 133.5t174 86t252.5 32.5q107 0 190 -20t137.5 -56.5t93 -88t57 -114t29.5 -135t10 -151.5t-1 -162h-807q14 -111 79.5 -166t213.5 -55q125 0 209 27t155 79
l162 -209q-113 -85 -234 -121.5t-292 -36.5zM664 918q-142 0 -205 -58t-76 -172h514q-3 57 -12 93t-32.5 70.5t-70 50.5t-118.5 16zM203 1249v256h860v-256h-860z" />
    <glyph glyph-name="Ebreve" unicode="&#x114;" horiz-adv-x="1406" 
d="M152 0v1518h1140v-304h-805v-294h785v-293h-785v-336h813v-291h-1148zM705 1569q-89 0 -157.5 19t-115 52t-80 85t-53.5 109.5t-35 135.5l232 43q12 -56 26 -90.5t37.5 -60t58.5 -36.5t87 -11q100 0 141.5 43.5t66.5 154.5l234 -41q-21 -99 -49 -167t-77.5 -124.5
t-127.5 -84t-188 -27.5z" />
    <glyph glyph-name="ebreve" unicode="&#x115;" horiz-adv-x="1267" 
d="M676 -23q-123 0 -219 21.5t-161 62.5t-110 94t-69.5 124t-34.5 143t-10 160q0 104 14.5 188t55 164t106 133.5t174 86t252.5 32.5q107 0 190 -20t137.5 -56.5t93 -88t57 -114t29.5 -135t10 -151.5t-1 -162h-807q14 -111 79.5 -166t213.5 -55q125 0 209 27t155 79
l162 -209q-113 -85 -234 -121.5t-292 -36.5zM664 918q-142 0 -205 -58t-76 -172h514q-3 57 -12 93t-32.5 70.5t-70 50.5t-118.5 16zM635 1239q-111 0 -189.5 27.5t-127.5 83.5t-76.5 124t-46.5 166l231 43q12 -56 26 -90.5t37.5 -60t58.5 -36.5t87 -11t87 11t58.5 36.5
t37.5 60t26 90.5l233 -41q-21 -99 -49 -167t-77.5 -124.5t-127.5 -84t-188 -27.5z" />
    <glyph glyph-name="Edotaccent" unicode="&#x116;" horiz-adv-x="1406" 
d="M152 0v1518h1140v-304h-805v-294h785v-293h-785v-336h813v-291h-1148zM539 1595v285h325v-285h-325z" />
    <glyph glyph-name="edotaccent" unicode="&#x117;" horiz-adv-x="1267" 
d="M676 -23q-123 0 -219 21.5t-161 62.5t-110 94t-69.5 124t-34.5 143t-10 160q0 104 14.5 188t55 164t106 133.5t174 86t252.5 32.5q107 0 190 -20t137.5 -56.5t93 -88t57 -114t29.5 -135t10 -151.5t-1 -162h-807q14 -111 79.5 -166t213.5 -55q125 0 209 27t155 79
l162 -209q-113 -85 -234 -121.5t-292 -36.5zM664 918q-142 0 -205 -58t-76 -172h514q-3 57 -12 93t-32.5 70.5t-70 50.5t-118.5 16zM469 1266v284h326v-284h-326z" />
    <glyph glyph-name="Eogonek" unicode="&#x118;" horiz-adv-x="1406" 
d="M152 0v1518h1140v-304h-805v-294h785v-293h-785v-336h813v-291h-167q-86 -56 -129 -111.5t-43 -95.5t21 -59t83 -19q87 0 178 31l60 -174q-57 -26 -134.5 -42.5t-146.5 -16.5q-167 0 -237 55.5t-70 161.5q0 89 48 158t114 112h-725z" />
    <glyph glyph-name="eogonek" unicode="&#x119;" horiz-adv-x="1267" 
d="M842 -487q-167 0 -237 55.5t-70 161.5q0 146 131 247q-104 1 -188.5 18t-145.5 46t-107 73t-75 93.5t-46.5 112.5t-24.5 125.5t-7 136.5q0 104 14.5 188t55 164t106 133.5t174 86t252.5 32.5q107 0 190 -20t137.5 -56.5t93 -88t57 -114t29.5 -135t10 -151.5t-1 -162h-807
q14 -111 79.5 -166t213.5 -55q125 0 209 27t155 79l162 -209q-113 -83 -221 -117h2q-102 -62 -152.5 -121.5t-50.5 -103.5q0 -40 21.5 -59t83.5 -19q87 0 178 31l59 -174q-57 -26 -134 -42.5t-146 -16.5zM664 918q-142 0 -205 -58t-76 -172h514q-3 57 -12 93t-32.5 70.5
t-70 50.5t-118.5 16z" />
    <glyph glyph-name="Ecaron" unicode="&#x11a;" horiz-adv-x="1406" 
d="M537 1599l-318 375h301l187 -176l184 176h295l-318 -375h-331zM152 0v1518h1140v-304h-805v-294h785v-293h-785v-336h813v-291h-1148z" />
    <glyph glyph-name="ecaron" unicode="&#x11b;" horiz-adv-x="1267" 
d="M467 1270l-317 375h301l186 -177l184 177h295l-317 -375h-332zM676 -23q-123 0 -219 21.5t-161 62.5t-110 94t-69.5 124t-34.5 143t-10 160q0 104 14.5 188t55 164t106 133.5t174 86t252.5 32.5q107 0 190 -20t137.5 -56.5t93 -88t57 -114t29.5 -135t10 -151.5t-1 -162
h-807q14 -111 79.5 -166t213.5 -55q125 0 209 27t155 79l162 -209q-113 -85 -234 -121.5t-292 -36.5zM664 918q-142 0 -205 -58t-76 -172h514q-3 57 -12 93t-32.5 70.5t-70 50.5t-118.5 16z" />
    <glyph glyph-name="Gcircumflex" unicode="&#x11c;" horiz-adv-x="1636" 
d="M338 1599l317 375h332l318 -375h-301l-187 177l-184 -177h-295zM846 -23q-180 0 -313.5 33.5t-221.5 96t-142 161t-76.5 217t-22.5 275.5q0 403 202.5 592.5t595.5 189.5q407 0 615 -215l-230 -231q-69 66 -156.5 102.5t-230.5 36.5q-244 0 -352 -118.5t-108 -360.5
q0 -104 12 -179.5t42.5 -138t82.5 -100t131 -58t188 -20.5q146 0 230 34.5t117.5 100t33.5 176.5v33h-424v279h756v-248q0 -134 -22.5 -235t-74 -182.5t-135.5 -133.5t-207.5 -79.5t-289.5 -27.5z" />
    <glyph glyph-name="gcircumflex" unicode="&#x11d;" horiz-adv-x="1335" 
d="M166 1323l317 375h332l318 -375h-302l-186 176l-184 -176h-295zM641 426q-83 0 -154 6q-10 -20 -10 -41q0 -41 36 -52t155 -11q244 0 371 -29t178 -95.5t51 -193.5q0 -205 -151 -291t-480 -86q-139 0 -233 7t-169 25t-116.5 50.5t-62.5 81t-21 119.5q0 210 227 260
q-42 29 -55.5 69t-13.5 95q0 99 57 162q-150 87 -150 291q0 195 130 294t411 99q41 0 64 -2l516 102v-244h-166q129 -69 129 -249q0 -191 -129.5 -279t-413.5 -88zM649 -145q115 0 180 16t88 43.5t23 73.5q0 63 -60.5 84.5t-230.5 21.5q-95 0 -154 -7.5t-88.5 -24.5t-39 -37
t-9.5 -52q0 -44 23.5 -68.5t87 -37t180.5 -12.5zM641 639q127 0 177 36t50 113t-51.5 113.5t-175.5 36.5q-126 0 -176.5 -36t-50.5 -114q0 -77 50.5 -113t176.5 -36z" />
    <glyph glyph-name="Gbreve" unicode="&#x11e;" horiz-adv-x="1636" 
d="M846 -23q-180 0 -313.5 33.5t-221.5 96t-142 161t-76.5 217t-22.5 275.5q0 403 202.5 592.5t595.5 189.5q407 0 615 -215l-230 -231q-69 66 -156.5 102.5t-230.5 36.5q-244 0 -352 -118.5t-108 -360.5q0 -104 12 -179.5t42.5 -138t82.5 -100t131 -58t188 -20.5
q146 0 230 34.5t117.5 100t33.5 176.5v33h-424v279h756v-248q0 -134 -22.5 -235t-74 -182.5t-135.5 -133.5t-207.5 -79.5t-289.5 -27.5zM817 1569q-111 0 -189.5 27.5t-127.5 83.5t-76.5 124t-46.5 166l231 43q12 -56 26 -90.5t37.5 -60t58.5 -36.5t87 -11t87 11t58.5 36.5
t37.5 60t26 90.5l234 -41q-16 -79 -36.5 -136.5t-54.5 -110t-80.5 -85.5t-114.5 -52t-157 -19z" />
    <glyph glyph-name="gbreve" unicode="&#x11f;" horiz-adv-x="1335" 
d="M641 426q-83 0 -154 6q-10 -20 -10 -41q0 -41 36 -52t155 -11q244 0 371 -29t178 -95.5t51 -193.5q0 -205 -151 -291t-480 -86q-139 0 -233 7t-169 25t-116.5 50.5t-62.5 81t-21 119.5q0 210 227 260q-42 29 -55.5 69t-13.5 95q0 99 57 162q-150 87 -150 291
q0 195 130 294t411 99q41 0 64 -2l516 102v-244h-166q129 -69 129 -249q0 -191 -129.5 -279t-413.5 -88zM649 -145q115 0 180 16t88 43.5t23 73.5q0 63 -60.5 84.5t-230.5 21.5q-95 0 -154 -7.5t-88.5 -24.5t-39 -37t-9.5 -52q0 -44 23.5 -68.5t87 -37t180.5 -12.5zM641 639
q127 0 177 36t50 113t-51.5 113.5t-175.5 36.5q-126 0 -176.5 -36t-50.5 -114q0 -77 50.5 -113t176.5 -36zM666 1239q-89 0 -157.5 19t-115 52t-80 85t-53.5 109.5t-35 135.5l232 43q12 -56 26 -90.5t37.5 -60t58.5 -36.5t87 -11q100 0 141.5 43.5t66.5 154.5l234 -41
q-21 -99 -49 -167t-77.5 -124.5t-127.5 -84t-188 -27.5z" />
    <glyph glyph-name="Gdotaccent" unicode="&#x120;" horiz-adv-x="1636" 
d="M846 -23q-180 0 -313.5 33.5t-221.5 96t-142 161t-76.5 217t-22.5 275.5q0 403 202.5 592.5t595.5 189.5q407 0 615 -215l-230 -231q-69 66 -156.5 102.5t-230.5 36.5q-244 0 -352 -118.5t-108 -360.5q0 -104 12 -179.5t42.5 -138t82.5 -100t131 -58t188 -20.5
q146 0 230 34.5t117.5 100t33.5 176.5v33h-424v279h756v-248q0 -134 -22.5 -235t-74 -182.5t-135.5 -133.5t-207.5 -79.5t-289.5 -27.5zM664 1595v285h325v-285h-325z" />
    <glyph glyph-name="gdotaccent" unicode="&#x121;" horiz-adv-x="1335" 
d="M641 426q-83 0 -154 6q-10 -20 -10 -41q0 -41 36 -52t155 -11q244 0 371 -29t178 -95.5t51 -193.5q0 -205 -151 -291t-480 -86q-139 0 -233 7t-169 25t-116.5 50.5t-62.5 81t-21 119.5q0 210 227 260q-42 29 -55.5 69t-13.5 95q0 99 57 162q-150 87 -150 291
q0 195 130 294t411 99q41 0 64 -2l516 102v-244h-166q129 -69 129 -249q0 -191 -129.5 -279t-413.5 -88zM649 -145q115 0 180 16t88 43.5t23 73.5q0 63 -60.5 84.5t-230.5 21.5q-95 0 -154 -7.5t-88.5 -24.5t-39 -37t-9.5 -52q0 -44 23.5 -68.5t87 -37t180.5 -12.5zM641 639
q127 0 177 36t50 113t-51.5 113.5t-175.5 36.5q-126 0 -176.5 -36t-50.5 -114q0 -77 50.5 -113t176.5 -36zM504 1266v284h325v-284h-325z" />
    <glyph glyph-name="Gcommaaccent" unicode="&#x122;" horiz-adv-x="1636" 
d="M733 -676l-69 135q93 45 118 70t25 76h-152v317h324v-225q0 -70 -5.5 -114t-19 -83.5t-42.5 -67.5t-70.5 -53.5t-108.5 -54.5zM846 -23q-180 0 -313.5 33.5t-221.5 96t-142 161t-76.5 217t-22.5 275.5q0 403 202.5 592.5t595.5 189.5q407 0 615 -215l-230 -231
q-69 66 -156.5 102.5t-230.5 36.5q-244 0 -352 -118.5t-108 -360.5q0 -104 12 -179.5t42.5 -138t82.5 -100t131 -58t188 -20.5q146 0 230 34.5t117.5 100t33.5 176.5v33h-424v279h756v-248q0 -134 -22.5 -235t-74 -182.5t-135.5 -133.5t-207.5 -79.5t-289.5 -27.5z" />
    <glyph glyph-name="gcommaaccent" unicode="&#x123;" horiz-adv-x="1335" 
d="M504 1268v196q0 86 8 136.5t36 94.5t75 75t131 67l65 -135q-91 -45 -116 -70t-25 -76h149v-288h-323zM641 426q-83 0 -154 6q-10 -20 -10 -41q0 -41 36 -52t155 -11q244 0 371 -29t178 -95.5t51 -193.5q0 -205 -151 -291t-480 -86q-139 0 -233 7t-169 25t-116.5 50.5
t-62.5 81t-21 119.5q0 210 227 260q-42 29 -55.5 69t-13.5 95q0 99 57 162q-150 87 -150 291q0 195 130 294t411 99q41 0 64 -2l516 102v-244h-166q129 -69 129 -249q0 -191 -129.5 -279t-413.5 -88zM649 -145q115 0 180 16t88 43.5t23 73.5q0 63 -60.5 84.5t-230.5 21.5
q-95 0 -154 -7.5t-88.5 -24.5t-39 -37t-9.5 -52q0 -44 23.5 -68.5t87 -37t180.5 -12.5zM641 639q127 0 177 36t50 113t-51.5 113.5t-175.5 36.5q-126 0 -176.5 -36t-50.5 -114q0 -77 50.5 -113t176.5 -36z" />
    <glyph glyph-name="Hcircumflex" unicode="&#x124;" horiz-adv-x="1669" 
d="M350 1599l318 375h331l318 -375h-301l-187 177l-184 -177h-295zM152 0v1518h335v-582h695v582h336v-1518h-336v623h-695v-623h-335z" />
    <glyph glyph-name="hcircumflex" unicode="&#x125;" horiz-adv-x="1359" 
d="M-195 1630l318 375h332l317 -375h-301l-186 176l-185 -176h-295zM127 0v1589h319v-508q41 45 133.5 75t243.5 30q103 0 177.5 -23.5t120 -63t72.5 -103t36.5 -132.5t9.5 -162v-702h-319v639q0 49 -3 80.5t-15 65.5t-34.5 53.5t-62 32t-96.5 12.5q-81 0 -134 -17.5
t-80 -54.5t-36.5 -80t-9.5 -106v-625h-322z" />
    <glyph glyph-name="Hbar" unicode="&#x126;" horiz-adv-x="1669" 
d="M57 1094v256h95v168h335v-168h695v168h336v-168h92v-256h-92v-1094h-336v623h-695v-623h-335v1094h-95zM487 936h695v158h-695v-158z" />
    <glyph glyph-name="hbar" unicode="&#x127;" horiz-adv-x="1359" 
d="M127 0v1255h-127v211h127v123h319v-123h238v-211h-238v-174q41 45 133.5 75t243.5 30q103 0 177.5 -23.5t120 -63t72.5 -103t36.5 -132.5t9.5 -162v-702h-319v639q0 49 -3 80.5t-15 65.5t-34.5 53.5t-62 32t-96.5 12.5q-81 0 -134 -17.5t-80 -54.5t-36.5 -80t-9.5 -106
v-625h-322z" />
    <glyph glyph-name="Itilde" unicode="&#x128;" horiz-adv-x="681" 
d="M174 0v1518h334v-1518h-334zM27 1591l-179 146q179 221 345 221q48 0 91 -17.5t68.5 -38t58.5 -38t64 -17.5q71 0 172 121l178 -145q-183 -226 -344 -226q-46 0 -88 17.5t-68.5 38t-60 38t-65.5 17.5q-77 0 -172 -117z" />
    <glyph glyph-name="itilde" unicode="&#x129;" horiz-adv-x="600" 
d="M139 0v1159h320v-1159h-320zM-14 1262l-179 145q179 221 345 221q48 0 91 -17t68.5 -38t58.5 -38t64 -17q72 0 172 120l178 -145q-182 -225 -344 -225q-46 0 -88 17t-68.5 38t-60 38t-65.5 17q-78 0 -172 -116z" />
    <glyph glyph-name="Imacron" unicode="&#x12a;" horiz-adv-x="681" 
d="M174 0v1518h334v-1518h-334zM-88 1579v256h860v-256h-860z" />
    <glyph glyph-name="imacron" unicode="&#x12b;" horiz-adv-x="600" 
d="M139 0v1159h320v-1159h-320zM-129 1249v256h860v-256h-860z" />
    <glyph glyph-name="Ibreve" unicode="&#x12c;" horiz-adv-x="681" 
d="M174 0v1518h334v-1518h-334zM342 1569q-111 0 -189.5 27.5t-127.5 83.5t-76.5 124t-46.5 166l231 43q12 -56 26 -90.5t37.5 -60t58.5 -36.5t87 -11t87 11t58.5 36.5t37.5 60t26 90.5l233 -41q-21 -99 -49 -167t-77.5 -124.5t-127.5 -84t-188 -27.5z" />
    <glyph glyph-name="ibreve" unicode="&#x12d;" horiz-adv-x="600" 
d="M139 0v1159h320v-1159h-320zM301 1239q-111 0 -189.5 27.5t-127.5 83.5t-76.5 124t-46.5 166l231 43q12 -56 26 -90.5t37.5 -60t58.5 -36.5t87 -11t87 11t58.5 36.5t37.5 60t26 90.5l233 -41q-21 -99 -49 -167t-77.5 -124.5t-127.5 -84t-188 -27.5z" />
    <glyph glyph-name="Iogonek" unicode="&#x12e;" horiz-adv-x="681" 
d="M174 0v1518h334v-1518q-203 -123 -203 -207q0 -40 21.5 -59t83.5 -19q72 0 157 29l60 -174q-124 -57 -260 -57q-167 0 -237.5 55.5t-70.5 161.5q0 92 50.5 160t119.5 110h-55z" />
    <glyph glyph-name="iogonek" unicode="&#x12f;" horiz-adv-x="600" 
d="M139 0v1159h320v-1159q-203 -123 -203 -207q0 -40 21 -59t83 -19q73 0 158 29l60 -174q-124 -57 -261 -57q-167 0 -237 55.5t-70 161.5q0 92 50.5 160t119.5 110h-41zM137 1266v293h324v-293h-324z" />
    <glyph glyph-name="Idotaccent" unicode="&#x130;" horiz-adv-x="681" 
d="M174 0v1518h334v-1518h-334zM178 1595v285h326v-285h-326z" />
    <glyph glyph-name="dotlessi" unicode="&#x131;" horiz-adv-x="600" 
d="M139 0v1159h320v-1159h-320z" />
    <glyph glyph-name="IJ" unicode="&#x132;" horiz-adv-x="1613" 
d="M174 0v1518h334v-1518h-334zM950 -4q-153 0 -223 4v291h182q128 0 178 46t50 155v1026h333v-1039q0 -112 -25.5 -197t-69.5 -139t-111 -87t-142.5 -46.5t-171.5 -13.5z" />
    <glyph glyph-name="ij" unicode="&#x133;" horiz-adv-x="1200" 
d="M139 0v1159h320v-1159h-320zM137 1266v293h324v-293h-324zM604 -346v244h25q71 0 89.5 27.5t18.5 121.5v1112h320v-1110q0 -121 -17 -194.5t-63 -120t-119 -63.5t-194 -17h-60zM735 1266v293h324v-293h-324z" />
    <glyph glyph-name="Jcircumflex" unicode="&#x134;" horiz-adv-x="931" 
d="M135 1599l318 375h331l318 -375h-301l-187 177l-184 -177h-295zM268 -4q-153 0 -223 4v291h182q128 0 178 46t50 155v1026h333v-1039q0 -112 -25.5 -197t-69.5 -139t-111 -87t-142.5 -46.5t-171.5 -13.5z" />
    <glyph glyph-name="jcircumflex" unicode="&#x135;" horiz-adv-x="600" 
d="M6 -346v244h25q71 0 89.5 27.5t18.5 121.5v1112h320v-1110q0 -121 -17 -194.5t-63 -120t-119 -63.5t-194 -17h-60zM-182 1270l317 375h332l317 -375h-301l-186 176l-184 -176h-295z" />
    <glyph glyph-name="Kcommaaccent" unicode="&#x136;" horiz-adv-x="1556" 
d="M692 -676l-69 135q93 45 118 70t25 76h-152v317h324v-225q0 -70 -5.5 -114t-19 -83.5t-42.5 -67.5t-70.5 -53.5t-108.5 -54.5zM1124 0l-426 662l-215 -254v-408h-331v1518h331v-687l576 687h371l-515 -600l588 -918h-379z" />
    <glyph glyph-name="kcommaaccent" unicode="&#x137;" horiz-adv-x="1239" 
d="M532 -676l-69 135q93 45 118 70t25 76h-151v317h323v-225q0 -70 -5.5 -114t-19 -83.5t-42.5 -67.5t-70.5 -53.5t-108.5 -54.5zM127 0v1589h317v-909l396 479h350l-389 -473l424 -686h-357l-284 446l-140 -165v-281h-317z" />
    <glyph glyph-name="kgreenlandic" unicode="&#x138;" horiz-adv-x="1239" 
d="M127 0v1159h317v-479l396 479h350l-389 -473l424 -686h-357l-284 446l-140 -165v-281h-317z" />
    <glyph glyph-name="Lacute" unicode="&#x139;" horiz-adv-x="1263" 
d="M178 1599l289 375h387l-391 -375h-285zM152 0v1518h335v-1227h746v-291h-1081z" />
    <glyph glyph-name="lacute" unicode="&#x13a;" horiz-adv-x="698" 
d="M147 1671l289 375h387l-391 -375h-285zM457 -4q-109 0 -176.5 31t-104.5 109.5t-37 213.5v1239h320v-1200q0 -72 22 -96.5t92 -24.5h39v-264q-54 -8 -155 -8z" />
    <glyph glyph-name="Lcommaaccent" unicode="&#x13b;" horiz-adv-x="1263" 
d="M547 -676l-70 135q93 45 118.5 70t25.5 76h-152v317h324v-225q0 -70 -5.5 -114t-19 -83.5t-42.5 -67.5t-70.5 -53.5t-108.5 -54.5zM152 0v1518h335v-1227h746v-291h-1081z" />
    <glyph glyph-name="lcommaaccent" unicode="&#x13c;" horiz-adv-x="698" 
d="M264 -676l-69 135q93 45 118 70t25 76h-152v317h324v-225q0 -70 -5.5 -114t-19 -83.5t-42.5 -67.5t-70.5 -53.5t-108.5 -54.5zM457 -4q-109 0 -176.5 31t-104.5 109.5t-37 213.5v1239h320v-1200q0 -72 22 -96.5t92 -24.5h39v-264q-54 -8 -155 -8z" />
    <glyph glyph-name="Lcaron" unicode="&#x13d;" horiz-adv-x="1263" 
d="M698 991l-69 137q93 43 118 68t25 76h-135v317h307v-225q0 -69 -5.5 -113t-19 -83.5t-42.5 -67.5t-70.5 -54t-108.5 -55zM152 0v1518h335v-1227h746v-291h-1081z" />
    <glyph glyph-name="lcaron" unicode="&#x13e;" horiz-adv-x="907" 
d="M659 991l-69 137q93 43 118 68t25 76h-135v317h307v-225q0 -69 -5.5 -113t-19 -83.5t-42.5 -67.5t-70.5 -54t-108.5 -55zM457 -4q-109 0 -176.5 31t-104.5 109.5t-37 213.5v1239h320v-1200q0 -72 22 -96.5t92 -24.5h39v-264q-54 -8 -155 -8z" />
    <glyph glyph-name="Ldot" unicode="&#x13f;" horiz-adv-x="1435" 
d="M152 0v1518h335v-1227h746v-291h-1081zM868 594v377h373v-377h-373z" />
    <glyph glyph-name="ldot" unicode="&#x140;" horiz-adv-x="1239" 
d="M457 -4q-109 0 -176.5 31t-104.5 109.5t-37 213.5v1239h320v-1200q0 -72 22 -96.5t92 -24.5h39v-264q-54 -8 -155 -8zM739 561v377h373v-377h-373z" />
    <glyph glyph-name="Lslash" unicode="&#x141;" horiz-adv-x="1263" 
d="M0 530v271l152 82v635h335v-451l281 156v-271l-281 -155v-506h746v-291h-1081v612z" />
    <glyph glyph-name="lslash" unicode="&#x142;" horiz-adv-x="829" 
d="M49 662v270l180 102v555h320v-370l188 108v-270l-188 -109v-559q0 -72 22 -96.5t91 -24.5h40v-264q-54 -8 -155 -8q-110 0 -177.5 31t-104 109.5t-36.5 213.5v414z" />
    <glyph glyph-name="Nacute" unicode="&#x143;" horiz-adv-x="1685" 
d="M629 1599l289 375h387l-392 -375h-284zM152 0v1518h362l698 -957v957h320v-1518h-307l-752 1024v-1024h-321z" />
    <glyph glyph-name="nacute" unicode="&#x144;" horiz-adv-x="1359" 
d="M467 1270l289 375h387l-391 -375h-285zM127 0v1141l250 18l26 -100q114 127 420 127q103 0 177.5 -23.5t120 -63t72.5 -103t36.5 -132.5t9.5 -162v-702h-319v639q0 49 -3 80.5t-15 65.5t-34.5 53.5t-62 32t-96.5 12.5q-81 0 -134 -17.5t-80 -54.5t-36.5 -80t-9.5 -106
v-625h-322z" />
    <glyph glyph-name="Ncommaaccent" unicode="&#x145;" horiz-adv-x="1685" 
d="M756 -676l-70 135q93 45 118 70t25 76h-151v317h323v-225q0 -87 -7.5 -137.5t-34.5 -95t-73.5 -74.5t-129.5 -66zM152 0v1518h362l698 -957v957h320v-1518h-307l-752 1024v-1024h-321z" />
    <glyph glyph-name="ncommaaccent" unicode="&#x146;" horiz-adv-x="1359" 
d="M594 -676l-70 135q93 45 118.5 70t25.5 76h-152v317h324v-225q0 -70 -5.5 -114t-19 -83.5t-42.5 -67.5t-70.5 -53.5t-108.5 -54.5zM127 0v1141l250 18l26 -100q114 127 420 127q103 0 177.5 -23.5t120 -63t72.5 -103t36.5 -132.5t9.5 -162v-702h-319v639q0 49 -3 80.5
t-15 65.5t-34.5 53.5t-62 32t-96.5 12.5q-81 0 -134 -17.5t-80 -54.5t-36.5 -80t-9.5 -106v-625h-322z" />
    <glyph glyph-name="Ncaron" unicode="&#x147;" horiz-adv-x="1685" 
d="M674 1599l-318 375h301l187 -176l184 176h295l-317 -375h-332zM152 0v1518h362l698 -957v957h320v-1518h-307l-752 1024v-1024h-321z" />
    <glyph glyph-name="ncaron" unicode="&#x148;" horiz-adv-x="1359" 
d="M512 1270l-317 375h301l186 -177l184 177h295l-317 -375h-332zM127 0v1141l250 18l26 -100q114 127 420 127q103 0 177.5 -23.5t120 -63t72.5 -103t36.5 -132.5t9.5 -162v-702h-319v639q0 49 -3 80.5t-15 65.5t-34.5 53.5t-62 32t-96.5 12.5q-81 0 -134 -17.5t-80 -54.5
t-36.5 -80t-9.5 -106v-625h-322z" />
    <glyph glyph-name="napostrophe" unicode="&#x149;" horiz-adv-x="1871" 
d="M201 805l-78 158q106 49 136 82.5t30 101.5h-176v371h372v-263q0 -83 -6 -136t-22 -101.5t-48.5 -82.5t-81.5 -65t-126 -65zM639 0v1141l250 18l26 -100q114 127 420 127q103 0 177.5 -23.5t120 -63t72.5 -103t36.5 -132.5t9.5 -162v-702h-319v639q0 49 -3 80.5t-15 65.5
t-34.5 53.5t-62 32t-96.5 12.5q-81 0 -134 -17.5t-80 -54.5t-36.5 -80t-9.5 -106v-625h-322z" />
    <glyph glyph-name="Eng" unicode="&#x14a;" horiz-adv-x="1685" 
d="M1012 -393q-138 0 -224 6v289h183q106 0 157.5 33t63.5 106l-719 983v-1024h-321v1518h362l698 -957v957h320v-1428q0 -112 -25.5 -197t-69.5 -139t-111 -87t-142.5 -46.5t-171.5 -13.5z" />
    <glyph glyph-name="eng" unicode="&#x14b;" horiz-adv-x="1359" 
d="M786 -346v244h25q72 0 90.5 27.5t18.5 121.5v592q0 49 -3 80.5t-15 65.5t-34.5 53.5t-62 32t-96.5 12.5q-81 0 -134 -17.5t-80 -54.5t-36.5 -80t-9.5 -106v-625h-322v1141l250 18l26 -125q116 152 420 152q103 0 177.5 -23.5t120 -63t72.5 -103t36.5 -132.5t9.5 -162
v-673q0 -113 -18 -183.5t-65 -114.5t-119.5 -60.5t-190.5 -16.5h-60z" />
    <glyph glyph-name="Omacron" unicode="&#x14c;" horiz-adv-x="1746" 
d="M442 1579v256h861v-256h-861zM872 -25q-802 0 -802 785q0 782 802 782q805 0 805 -782q0 -785 -805 -785zM872 270q128 0 219 33t144.5 98t77.5 151.5t24 201.5t-24 201t-77.5 150t-144.5 97t-219 33t-219 -33t-144 -97t-77 -150t-24 -201t24 -201.5t77 -151.5t144 -98
t219 -33z" />
    <glyph glyph-name="omacron" unicode="&#x14d;" horiz-adv-x="1353" 
d="M246 1249v256h860v-256h-860zM678 -23q-318 0 -462 152t-144 453t143.5 452.5t462.5 151.5q318 0 461 -151.5t143 -452.5t-143 -453t-461 -152zM678 252q157 0 220 81t63 240t-63 239.5t-220 80.5q-158 0 -220.5 -80.5t-62.5 -239.5q0 -78 13 -134t44.5 -99.5t87.5 -65.5
t138 -22z" />
    <glyph glyph-name="Obreve" unicode="&#x14e;" horiz-adv-x="1746" 
d="M872 -25q-802 0 -802 785q0 782 802 782q805 0 805 -782q0 -785 -805 -785zM872 270q128 0 219 33t144.5 98t77.5 151.5t24 201.5t-24 201t-77.5 150t-144.5 97t-219 33t-219 -33t-144 -97t-77 -150t-24 -201t24 -201.5t77 -151.5t144 -98t219 -33zM872 1569
q-111 0 -189.5 27.5t-127.5 83.5t-76.5 124t-46.5 166l232 43q25 -111 66.5 -154.5t141.5 -43.5q52 0 87 11t58.5 36.5t37.5 60t26 90.5l234 -41q-16 -79 -36.5 -136.5t-54.5 -110t-80.5 -85.5t-114.5 -52t-157 -19z" />
    <glyph glyph-name="obreve" unicode="&#x14f;" horiz-adv-x="1353" 
d="M678 -23q-318 0 -462 152t-144 453t143.5 452.5t462.5 151.5q318 0 461 -151.5t143 -452.5t-143 -453t-461 -152zM678 252q157 0 220 81t63 240t-63 239.5t-220 80.5q-158 0 -220.5 -80.5t-62.5 -239.5q0 -78 13 -134t44.5 -99.5t87.5 -65.5t138 -22zM676 1239
q-111 0 -189.5 27.5t-127.5 83.5t-76.5 124t-46.5 166l231 43q12 -56 26 -90.5t37.5 -60t58.5 -36.5t87 -11t87 11t58.5 36.5t37.5 60t26 90.5l233 -41q-21 -99 -49 -167t-77.5 -124.5t-127.5 -84t-188 -27.5z" />
    <glyph glyph-name="Ohungarumlaut" unicode="&#x150;" horiz-adv-x="1746" 
d="M381 1599l258 375h371l-361 -375h-268zM934 1599l258 375h371l-361 -375h-268zM872 -25q-802 0 -802 785q0 782 802 782q805 0 805 -782q0 -785 -805 -785zM872 270q128 0 219 33t144.5 98t77.5 151.5t24 201.5t-24 201t-77.5 150t-144.5 97t-219 33t-219 -33t-144 -97
t-77 -150t-24 -201t24 -201.5t77 -151.5t144 -98t219 -33z" />
    <glyph glyph-name="ohungarumlaut" unicode="&#x151;" horiz-adv-x="1353" 
d="M184 1270l258 375h371l-360 -375h-269zM737 1270l258 375h371l-360 -375h-269zM678 -23q-318 0 -462 152t-144 453t143.5 452.5t462.5 151.5q318 0 461 -151.5t143 -452.5t-143 -453t-461 -152zM678 252q157 0 220 81t63 240t-63 239.5t-220 80.5q-158 0 -220.5 -80.5
t-62.5 -239.5q0 -78 13 -134t44.5 -99.5t87.5 -65.5t138 -22z" />
    <glyph glyph-name="OE" unicode="&#x152;" horiz-adv-x="2584" 
d="M1362 0v117q-180 -142 -490 -142q-150 0 -271.5 26.5t-221.5 85.5t-167.5 149.5t-104.5 222.5t-37 301q0 168 37 299.5t104.5 222t167.5 149t221.5 85t271.5 26.5q312 0 490 -141v117h1106v-304h-803v-294h782v-293h-782v-336h811v-291h-1114zM872 270q130 0 221.5 33
t144 98t76 151t23.5 202t-23.5 201.5t-76 150t-144 97t-221.5 32.5q-105 0 -184.5 -22t-132 -61.5t-86 -100t-47.5 -133t-14 -164.5q0 -116 23 -201.5t75.5 -151t144 -98.5t221.5 -33z" />
    <glyph glyph-name="oe" unicode="&#x153;" horiz-adv-x="2156" 
d="M1567 -23q-314 0 -451 144q-138 -144 -438 -144q-168 0 -285.5 39t-187.5 118t-101.5 188.5t-31.5 259.5t31.5 259t101.5 188t187.5 118t285.5 39q303 0 440 -146q136 146 447 146q107 0 190 -20t137.5 -56.5t93 -88t57 -114t29.5 -135t10 -151.5t-1 -162h-809
q14 -111 80 -166t215 -55q125 0 209 27t155 79l162 -209q-114 -86 -232 -122t-294 -36zM678 252q157 0 220 81t63 240t-63 239.5t-220 80.5q-158 0 -220.5 -80.5t-62.5 -239.5q0 -78 13 -134t44.5 -99.5t87.5 -65.5t138 -22zM1554 918q-96 0 -157 -29t-88 -77.5t-37 -123.5
h516q-2 40 -5.5 64t-11.5 54.5t-23.5 47.5t-40 33.5t-63 23.5t-90.5 7z" />
    <glyph glyph-name="Racute" unicode="&#x154;" horiz-adv-x="1581" 
d="M578 1599l288 375h387l-391 -375h-284zM1100 0l-281 504h-340v-504h-327v1518h733q140 0 244.5 -24t170 -66t106 -106t56 -136t15.5 -164q0 -83 -15 -153t-50 -135t-99.5 -114.5t-155.5 -78.5l301 -541h-358zM479 793h395q142 0 203.5 46t61.5 171q0 128 -60.5 174.5
t-208.5 46.5h-391v-438z" />
    <glyph glyph-name="racute" unicode="&#x155;" horiz-adv-x="827" 
d="M207 1270l289 375h387l-391 -375h-285zM127 0v1141l250 18l33 -127q38 57 138 96t232 43v-307q-100 -1 -166 -20t-101.5 -58.5t-49.5 -89.5t-14 -123v-573h-322z" />
    <glyph glyph-name="Rcommaaccent" unicode="&#x156;" horiz-adv-x="1581" 
d="M705 -676l-70 135q93 45 118 70t25 76h-151v317h323v-225q0 -87 -7.5 -137.5t-34.5 -95t-73.5 -74.5t-129.5 -66zM1100 0l-281 504h-340v-504h-327v1518h733q140 0 244.5 -24t170 -66t106 -106t56 -136t15.5 -164q0 -83 -15 -153t-50 -135t-99.5 -114.5t-155.5 -78.5
l301 -541h-358zM479 793h395q142 0 203.5 46t61.5 171q0 128 -60.5 174.5t-208.5 46.5h-391v-438z" />
    <glyph glyph-name="rcommaaccent" unicode="&#x157;" horiz-adv-x="827" 
d="M203 -676l-70 135q93 45 118 70t25 76h-151v317h324v-225q0 -70 -5.5 -114t-19 -83.5t-42.5 -67.5t-70.5 -53.5t-108.5 -54.5zM127 0v1141l250 18l33 -127q38 57 138 96t232 43v-307q-100 -1 -166 -20t-101.5 -58.5t-49.5 -89.5t-14 -123v-573h-322z" />
    <glyph glyph-name="Rcaron" unicode="&#x158;" horiz-adv-x="1581" 
d="M623 1599l-318 375h301l187 -176l184 176h295l-318 -375h-331zM1100 0l-281 504h-340v-504h-327v1518h733q140 0 244.5 -24t170 -66t106 -106t56 -136t15.5 -164q0 -83 -15 -153t-50 -135t-99.5 -114.5t-155.5 -78.5l301 -541h-358zM479 793h395q142 0 203.5 46t61.5 171
q0 128 -60.5 174.5t-208.5 46.5h-391v-438z" />
    <glyph glyph-name="rcaron" unicode="&#x159;" horiz-adv-x="813" 
d="M242 1270l-318 375h301l187 -177l184 177h295l-318 -375h-331zM127 0v1141l250 18l33 -127q38 57 138 96t232 43v-307q-100 -1 -166 -20t-101.5 -58.5t-49.5 -89.5t-14 -123v-573h-322z" />
    <glyph glyph-name="Sacute" unicode="&#x15a;" horiz-adv-x="1517" 
d="M547 1599l289 375h387l-392 -375h-284zM768 -23q-453 0 -723 199l168 242q241 -162 545 -162q146 0 223.5 20.5t103 58t25.5 105.5q0 31 -9.5 54.5t-33 41.5t-49 30t-72.5 23t-87.5 17.5t-108.5 16.5q-94 13 -162.5 26t-137 32t-114.5 43t-87.5 57.5t-65 76t-37 99
t-13.5 126.5q0 248 152 353.5t481 105.5q390 0 614 -149l-180 -260q-75 49 -197 82.5t-241 33.5q-173 0 -234 -35t-61 -122q0 -30 9.5 -53.5t33 -40.5t49 -29t74 -23t89 -18t112.5 -17q89 -13 149.5 -24t130 -29.5t114 -40t89 -55t69.5 -75.5t40.5 -100t15.5 -130
q0 -119 -34.5 -205t-112 -149.5t-209 -94.5t-318.5 -31z" />
    <glyph glyph-name="sacute" unicode="&#x15b;" horiz-adv-x="1173" 
d="M377 1270l289 375h387l-391 -375h-285zM573 -18q-335 0 -553 145l164 235q89 -57 199 -88.5t211 -31.5q124 0 166.5 18.5t42.5 77.5q0 49 -40.5 67.5t-164.5 34.5q-57 8 -93.5 13.5t-85.5 15.5t-80.5 20.5t-69 26.5t-61.5 35.5t-48 46.5t-37.5 59t-22 74t-8.5 92
q0 182 119 272.5t387 90.5q142 0 270 -27.5t219 -79.5l-153 -250q-64 33 -152.5 54.5t-173.5 21.5q-116 0 -156 -19.5t-40 -64.5q0 -48 36.5 -66t153.5 -34q79 -11 122.5 -18t107 -21.5t98 -30.5t76 -43t61.5 -60.5t34.5 -82t14.5 -109.5q0 -201 -123 -287.5t-420 -86.5z
" />
    <glyph glyph-name="Scircumflex" unicode="&#x15c;" horiz-adv-x="1517" 
d="M252 1599l317 375h332l318 -375h-301l-187 177l-184 -177h-295zM768 -23q-453 0 -723 199l168 242q241 -162 545 -162q146 0 223.5 20.5t103 58t25.5 105.5q0 31 -9.5 54.5t-33 41.5t-49 30t-72.5 23t-87.5 17.5t-108.5 16.5q-94 13 -162.5 26t-137 32t-114.5 43
t-87.5 57.5t-65 76t-37 99t-13.5 126.5q0 248 152 353.5t481 105.5q390 0 614 -149l-180 -260q-75 49 -197 82.5t-241 33.5q-173 0 -234 -35t-61 -122q0 -30 9.5 -53.5t33 -40.5t49 -29t74 -23t89 -18t112.5 -17q89 -13 149.5 -24t130 -29.5t114 -40t89 -55t69.5 -75.5
t40.5 -100t15.5 -130q0 -119 -34.5 -205t-112 -149.5t-209 -94.5t-318.5 -31z" />
    <glyph glyph-name="scircumflex" unicode="&#x15d;" horiz-adv-x="1173" 
d="M100 1270l318 375h332l317 -375h-301l-186 176l-185 -176h-295zM573 -18q-335 0 -553 145l164 235q89 -57 199 -88.5t211 -31.5q124 0 166.5 18.5t42.5 77.5q0 49 -40.5 67.5t-164.5 34.5q-57 8 -93.5 13.5t-85.5 15.5t-80.5 20.5t-69 26.5t-61.5 35.5t-48 46.5t-37.5 59
t-22 74t-8.5 92q0 182 119 272.5t387 90.5q142 0 270 -27.5t219 -79.5l-153 -250q-64 33 -152.5 54.5t-173.5 21.5q-116 0 -156 -19.5t-40 -64.5q0 -48 36.5 -66t153.5 -34q79 -11 122.5 -18t107 -21.5t98 -30.5t76 -43t61.5 -60.5t34.5 -82t14.5 -109.5q0 -201 -123 -287.5
t-420 -86.5z" />
    <glyph glyph-name="Scedilla" unicode="&#x15e;" horiz-adv-x="1517" 
d="M758 -510q-152 0 -275 68l80 149q96 -49 182 -49q72 0 100.5 19.5t28.5 64.5q0 50 -45.5 64.5t-134.5 7.5l-61 39l26 129q-382 21 -614 194l168 242q241 -162 545 -162q146 0 223.5 20.5t103 58t25.5 105.5q0 31 -9.5 54.5t-33 41.5t-49 30t-72.5 23t-87.5 17.5
t-108.5 16.5q-94 13 -162.5 26t-137 32t-114.5 43t-87.5 57.5t-65 76t-37 99t-13.5 126.5q0 248 152 353.5t481 105.5q390 0 614 -149l-180 -260q-75 49 -197 82.5t-241 33.5q-173 0 -234 -35t-61 -122q0 -30 9.5 -53.5t33 -40.5t49 -29t74 -23t89 -18t112.5 -17
q89 -13 149.5 -24t130 -29.5t114 -40t89 -55t69.5 -75.5t40.5 -100t15.5 -130q0 -113 -31 -196.5t-100.5 -145.5t-186 -95.5t-282.5 -39.5l-13 -66q44 1 76 -1t68.5 -12.5t59 -31t37.5 -58.5t15 -92q0 -124 -84 -176.5t-243 -52.5z" />
    <glyph glyph-name="scedilla" unicode="&#x15f;" horiz-adv-x="1173" 
d="M588 -510q-152 0 -275 68l80 149q96 -49 182 -49q72 0 101 19.5t29 64.5q0 50 -46 64.5t-135 7.5l-61 39l29 133q-288 17 -472 141l164 235q89 -57 199 -88.5t211 -31.5q124 0 166.5 18.5t42.5 77.5q0 49 -40.5 67.5t-164.5 34.5q-57 8 -93.5 13.5t-85.5 15.5t-80.5 20.5
t-69 26.5t-61.5 35.5t-48 46.5t-37.5 59t-22 74t-8.5 92q0 182 119 272.5t387 90.5q142 0 270 -27.5t219 -79.5l-153 -250q-64 33 -152.5 54.5t-173.5 21.5q-116 0 -156 -19.5t-40 -64.5q0 -48 36.5 -66t153.5 -34q79 -11 122.5 -18t107 -21.5t98 -30.5t76 -43t61.5 -60.5
t34.5 -82t14.5 -109.5q0 -186 -101.5 -273t-342.5 -99l-13 -70q44 1 76 -1t68.5 -12.5t59 -31t37.5 -58.5t15 -92q0 -124 -84 -176.5t-243 -52.5z" />
    <glyph glyph-name="Scaron" unicode="&#x160;" horiz-adv-x="1517" 
d="M592 1599l-318 375h301l187 -176l184 176h295l-317 -375h-332zM768 -23q-453 0 -723 199l168 242q241 -162 545 -162q146 0 223.5 20.5t103 58t25.5 105.5q0 31 -9.5 54.5t-33 41.5t-49 30t-72.5 23t-87.5 17.5t-108.5 16.5q-94 13 -162.5 26t-137 32t-114.5 43
t-87.5 57.5t-65 76t-37 99t-13.5 126.5q0 248 152 353.5t481 105.5q390 0 614 -149l-180 -260q-75 49 -197 82.5t-241 33.5q-173 0 -234 -35t-61 -122q0 -30 9.5 -53.5t33 -40.5t49 -29t74 -23t89 -18t112.5 -17q89 -13 149.5 -24t130 -29.5t114 -40t89 -55t69.5 -75.5
t40.5 -100t15.5 -130q0 -119 -34.5 -205t-112 -149.5t-209 -94.5t-318.5 -31z" />
    <glyph glyph-name="scaron" unicode="&#x161;" horiz-adv-x="1173" 
d="M422 1270l-318 375h302l186 -177l184 177h295l-317 -375h-332zM573 -18q-335 0 -553 145l164 235q89 -57 199 -88.5t211 -31.5q124 0 166.5 18.5t42.5 77.5q0 49 -40.5 67.5t-164.5 34.5q-57 8 -93.5 13.5t-85.5 15.5t-80.5 20.5t-69 26.5t-61.5 35.5t-48 46.5t-37.5 59
t-22 74t-8.5 92q0 182 119 272.5t387 90.5q142 0 270 -27.5t219 -79.5l-153 -250q-64 33 -152.5 54.5t-173.5 21.5q-116 0 -156 -19.5t-40 -64.5q0 -48 36.5 -66t153.5 -34q79 -11 122.5 -18t107 -21.5t98 -30.5t76 -43t61.5 -60.5t34.5 -82t14.5 -109.5q0 -201 -123 -287.5
t-420 -86.5z" />
    <glyph glyph-name="Tcommaaccent" unicode="&#x162;" horiz-adv-x="1445" 
d="M637 -676l-70 135q93 45 118.5 70t25.5 76h-152v317h324v-225q0 -70 -5.5 -114t-19 -83.5t-42.5 -67.5t-70.5 -53.5t-108.5 -54.5zM555 0v1214h-526v304h1388v-304h-524v-1214h-338z" />
    <glyph glyph-name="Tcommaaccent" unicode="&#x21a;" horiz-adv-x="1445" 
d="M637 -676l-70 135q93 45 118.5 70t25.5 76h-152v317h324v-225q0 -70 -5.5 -114t-19 -83.5t-42.5 -67.5t-70.5 -53.5t-108.5 -54.5zM555 0v1214h-526v304h1388v-304h-524v-1214h-338z" />
    <glyph glyph-name="tcommaaccent" unicode="&#x163;" horiz-adv-x="927" 
d="M328 -676l-70 135q93 45 118 70t25 76h-151v317h323v-225q0 -87 -7.5 -137.5t-34.5 -95t-73.5 -74.5t-129.5 -66zM51 885v274h205l55 283l250 51v-334h275v-274h-275v-477q0 -38 4.5 -60.5t19 -42.5t45.5 -28.5t81 -8.5h125v-268q-47 -4 -191 -4q-118 0 -195 20
t-123.5 65.5t-65.5 112t-19 166.5v525h-191z" />
    <glyph glyph-name="tcommaaccent" unicode="&#x21b;" horiz-adv-x="927" 
d="M328 -676l-70 135q93 45 118 70t25 76h-151v317h323v-225q0 -87 -7.5 -137.5t-34.5 -95t-73.5 -74.5t-129.5 -66zM51 885v274h205l55 283l250 51v-334h275v-274h-275v-477q0 -38 4.5 -60.5t19 -42.5t45.5 -28.5t81 -8.5h125v-268q-47 -4 -191 -4q-118 0 -195 20
t-123.5 65.5t-65.5 112t-19 166.5v525h-191z" />
    <glyph glyph-name="Tcaron" unicode="&#x164;" horiz-adv-x="1445" 
d="M555 1599l-317 375h301l186 -176l184 176h295l-317 -375h-332zM555 0v1214h-526v304h1388v-304h-524v-1214h-338z" />
    <glyph glyph-name="tcaron" unicode="&#x165;" horiz-adv-x="927" 
d="M737 1298l-65 129q89 44 113 68t24 74h-129v301h291v-215q0 -67 -5 -109t-18 -79.5t-40.5 -64.5t-67 -51.5t-103.5 -52.5zM51 885v274h205l55 283l250 51v-334h275v-274h-275v-477q0 -38 4.5 -60.5t19 -42.5t45.5 -28.5t81 -8.5h125v-268q-47 -4 -191 -4q-118 0 -195 20
t-123.5 65.5t-65.5 112t-19 166.5v525h-191z" />
    <glyph glyph-name="Tbar" unicode="&#x166;" horiz-adv-x="1445" 
d="M276 524v271h279v419h-526v304h1388v-304h-524v-419h274v-271h-274v-524h-338v524h-279z" />
    <glyph glyph-name="tbar" unicode="&#x167;" horiz-adv-x="927" 
d="M51 885v274h205l55 283l250 51v-334h275v-274h-275v-160h275v-254h-275v-63q0 -38 4.5 -60.5t19 -42.5t45.5 -28.5t81 -8.5h125v-268q-47 -4 -191 -4q-118 0 -195 20t-123.5 65.5t-65.5 112t-19 166.5v111h-191v254h191v160h-191z" />
    <glyph glyph-name="Utilde" unicode="&#x168;" horiz-adv-x="1671" 
d="M836 -29q-105 0 -192.5 11.5t-153.5 31.5t-119 51t-89 64t-62 77.5t-41 86t-24 94t-11.5 96t-2.5 97.5v938h336v-895q0 -72 8 -123.5t31 -98t63.5 -74t105 -43.5t155.5 -16t155 15t104.5 42t64 73t32 98.5t8.5 126.5v895h326v-938q0 -54 -2.5 -97.5t-11.5 -96t-24 -94
t-41.5 -86t-62.5 -77.5t-88.5 -64t-118 -51t-153.5 -31.5t-192 -11.5zM539 1591l-179 146q179 221 345 221q48 0 91 -17.5t68.5 -38t58.5 -38t64 -17.5q71 0 172 121l178 -145q-183 -226 -344 -226q-46 0 -88 17.5t-68.5 38t-60 38t-65.5 17.5q-77 0 -172 -117z" />
    <glyph glyph-name="utilde" unicode="&#x169;" horiz-adv-x="1343" 
d="M674 -18q-166 0 -273 30.5t-169.5 101.5t-86.5 171.5t-24 255.5v618h321v-624q0 -37 0.5 -58.5t3.5 -52t9.5 -48t17.5 -39t28.5 -33.5t41.5 -23.5t57.5 -16t75.5 -4.5q48 0 84.5 7.5t61 18.5t41 33t25 40.5t13 52.5t5.5 58t1 67v622h316v-616q0 -124 -15 -211.5t-51 -157
t-99 -110t-157 -61.5t-227 -21zM367 1262l-179 145q179 221 344 221q48 0 91 -17t69 -38t59 -38t64 -17q72 0 172 120l178 -145q-182 -225 -344 -225q-46 0 -88 17t-68.5 38t-60 38t-65.5 17q-78 0 -172 -116z" />
    <glyph glyph-name="Umacron" unicode="&#x16a;" horiz-adv-x="1671" 
d="M836 -29q-105 0 -192.5 11.5t-153.5 31.5t-119 51t-89 64t-62 77.5t-41 86t-24 94t-11.5 96t-2.5 97.5v938h336v-895q0 -72 8 -123.5t31 -98t63.5 -74t105 -43.5t155.5 -16t155 15t104.5 42t64 73t32 98.5t8.5 126.5v895h326v-938q0 -54 -2.5 -97.5t-11.5 -96t-24 -94
t-41.5 -86t-62.5 -77.5t-88.5 -64t-118 -51t-153.5 -31.5t-192 -11.5zM403 1579v256h861v-256h-861z" />
    <glyph glyph-name="umacron" unicode="&#x16b;" horiz-adv-x="1343" 
d="M674 -18q-166 0 -273 30.5t-169.5 101.5t-86.5 171.5t-24 255.5v618h321v-624q0 -37 0.5 -58.5t3.5 -52t9.5 -48t17.5 -39t28.5 -33.5t41.5 -23.5t57.5 -16t75.5 -4.5q48 0 84.5 7.5t61 18.5t41 33t25 40.5t13 52.5t5.5 58t1 67v622h316v-616q0 -124 -15 -211.5t-51 -157
t-99 -110t-157 -61.5t-227 -21zM242 1249v256h860v-256h-860z" />
    <glyph glyph-name="Ubreve" unicode="&#x16c;" horiz-adv-x="1671" 
d="M836 -29q-105 0 -192.5 11.5t-153.5 31.5t-119 51t-89 64t-62 77.5t-41 86t-24 94t-11.5 96t-2.5 97.5v938h336v-895q0 -72 8 -123.5t31 -98t63.5 -74t105 -43.5t155.5 -16t155 15t104.5 42t64 73t32 98.5t8.5 126.5v895h326v-938q0 -54 -2.5 -97.5t-11.5 -96t-24 -94
t-41.5 -86t-62.5 -77.5t-88.5 -64t-118 -51t-153.5 -31.5t-192 -11.5zM836 1569q-89 0 -157.5 19t-115 52t-80 85t-53.5 109.5t-35 135.5l232 43q12 -56 26 -90.5t37.5 -60t58.5 -36.5t87 -11q100 0 141.5 43.5t66.5 154.5l234 -41q-21 -99 -49 -167t-77.5 -124.5
t-127.5 -84t-188 -27.5z" />
    <glyph glyph-name="ubreve" unicode="&#x16d;" horiz-adv-x="1343" 
d="M674 -18q-166 0 -273 30.5t-169.5 101.5t-86.5 171.5t-24 255.5v618h321v-624q0 -37 0.5 -58.5t3.5 -52t9.5 -48t17.5 -39t28.5 -33.5t41.5 -23.5t57.5 -16t75.5 -4.5q48 0 84.5 7.5t61 18.5t41 33t25 40.5t13 52.5t5.5 58t1 67v622h316v-616q0 -124 -15 -211.5t-51 -157
t-99 -110t-157 -61.5t-227 -21zM672 1239q-89 0 -157.5 19t-115 52t-80 85t-53.5 109.5t-35 135.5l232 43q12 -56 26 -90.5t37.5 -60t58.5 -36.5t87 -11t87 11t58.5 36.5t37.5 60t26 90.5l233 -41q-21 -99 -49 -167t-77.5 -124.5t-127.5 -84t-188 -27.5z" />
    <glyph glyph-name="Uring" unicode="&#x16e;" horiz-adv-x="1671" 
d="M834 1567q-149 0 -221 81t-72 216t72 218t221 83q143 0 216.5 -84t73.5 -217t-73.5 -215t-216.5 -82zM834 1724q68 0 99.5 38.5t31.5 101.5q0 65 -31.5 103t-99.5 38q-70 0 -102 -38t-32 -103q0 -63 32.5 -101.5t101.5 -38.5zM836 -29q-105 0 -192.5 11.5t-153.5 31.5
t-119 51t-89 64t-62 77.5t-41 86t-24 94t-11.5 96t-2.5 97.5v938h336v-895q0 -72 8 -123.5t31 -98t63.5 -74t105 -43.5t155.5 -16t155 15t104.5 42t64 73t32 98.5t8.5 126.5v895h326v-938q0 -54 -2.5 -97.5t-11.5 -96t-24 -94t-41.5 -86t-62.5 -77.5t-88.5 -64t-118 -51
t-153.5 -31.5t-192 -11.5z" />
    <glyph glyph-name="uring" unicode="&#x16f;" horiz-adv-x="1343" 
d="M672 1237q-149 0 -221 81t-72 216t72 218t221 83q143 0 217 -84t74 -217t-74 -215t-217 -82zM672 1395q68 0 99.5 38t31.5 101q0 65 -31.5 103t-99.5 38q-133 0 -133 -141q0 -63 32 -101t101 -38zM674 -18q-166 0 -273 30.5t-169.5 101.5t-86.5 171.5t-24 255.5v618h321
v-624q0 -37 0.5 -58.5t3.5 -52t9.5 -48t17.5 -39t28.5 -33.5t41.5 -23.5t57.5 -16t75.5 -4.5q48 0 84.5 7.5t61 18.5t41 33t25 40.5t13 52.5t5.5 58t1 67v622h316v-616q0 -124 -15 -211.5t-51 -157t-99 -110t-157 -61.5t-227 -21z" />
    <glyph glyph-name="Uhungarumlaut" unicode="&#x170;" horiz-adv-x="1671" 
d="M836 -29q-105 0 -192.5 11.5t-153.5 31.5t-119 51t-89 64t-62 77.5t-41 86t-24 94t-11.5 96t-2.5 97.5v938h336v-895q0 -72 8 -123.5t31 -98t63.5 -74t105 -43.5t155.5 -16t155 15t104.5 42t64 73t32 98.5t8.5 126.5v895h326v-938q0 -54 -2.5 -97.5t-11.5 -96t-24 -94
t-41.5 -86t-62.5 -77.5t-88.5 -64t-118 -51t-153.5 -31.5t-192 -11.5zM342 1599l258 375h371l-361 -375h-268zM895 1599l258 375h371l-361 -375h-268z" />
    <glyph glyph-name="uhungarumlaut" unicode="&#x171;" horiz-adv-x="1343" 
d="M674 -18q-166 0 -273 30.5t-169.5 101.5t-86.5 171.5t-24 255.5v618h321v-624q0 -37 0.5 -58.5t3.5 -52t9.5 -48t17.5 -39t28.5 -33.5t41.5 -23.5t57.5 -16t75.5 -4.5q48 0 84.5 7.5t61 18.5t41 33t25 40.5t13 52.5t5.5 58t1 67v622h316v-616q0 -124 -15 -211.5t-51 -157
t-99 -110t-157 -61.5t-227 -21zM180 1270l258 375h371l-360 -375h-269zM733 1270l258 375h371l-361 -375h-268z" />
    <glyph glyph-name="Uogonek" unicode="&#x172;" horiz-adv-x="1671" 
d="M1057 -487q-85 0 -142.5 14.5t-88.5 44.5t-43.5 67.5t-12.5 90.5q0 76 47.5 139t116.5 106q-62 -4 -98 -4q-105 0 -192.5 11.5t-153.5 31.5t-119 51t-89 64t-62 77.5t-41 86t-24 94t-11.5 96t-2.5 97.5v938h336v-895q0 -72 8 -123.5t31 -98t63.5 -74t105 -43.5t155.5 -16
q113 0 186 21.5t111.5 69.5t52.5 109t14 155v895h326v-938q0 -75 -5.5 -133.5t-23 -122t-47.5 -112.5t-81 -95t-122 -80q-132 -66 -197 -136.5t-65 -133.5q0 -40 26 -59t95 -19q94 0 195 43l51 -148q-155 -71 -299 -71z" />
    <glyph glyph-name="uogonek" unicode="&#x173;" horiz-adv-x="1343" 
d="M840 -487q-85 0 -142.5 14.5t-88.5 44.5t-43.5 67.5t-12.5 90.5q0 142 170 250q-15 -3 -51 -3q-133 0 -227 21t-157.5 62.5t-100 111.5t-51.5 157.5t-15 211.5v618h321v-624q0 -37 0.5 -58.5t3.5 -52t9.5 -48t17.5 -39t28.5 -33.5t41.5 -23.5t57.5 -16t75.5 -4.5
q48 0 84.5 7.5t61 18.5t41 33t25 40.5t13 52.5t5.5 58t1 67v622h316v-616q0 -223 -52 -341.5t-186 -187.5q-98 -52 -155.5 -119.5t-57.5 -127.5q0 -40 26 -59t95 -19q93 0 194 43l52 -148q-155 -71 -299 -71z" />
    <glyph glyph-name="Wcircumflex" unicode="&#x174;" horiz-adv-x="2215" 
d="M627 1599l317 375h332l317 -375h-301l-186 177l-184 -177h-295zM502 -10l-463 1528h350l283 -975l295 975h303l297 -975l282 975h328l-461 -1528h-297l-311 1020l-311 -1020h-295z" />
    <glyph glyph-name="wcircumflex" unicode="&#x175;" horiz-adv-x="1884" 
d="M457 1270l317 375h332l317 -375h-301l-186 176l-184 -176h-295zM397 -12l-379 1171h338l213 -706l222 706h317l221 -704l213 704h324l-377 -1171h-307l-240 745l-240 -745h-305z" />
    <glyph glyph-name="Ycircumflex" unicode="&#x176;" horiz-adv-x="1556" 
d="M610 0v532l-604 986h361l417 -684l418 684h346l-604 -986v-532h-334zM293 1599l317 375h332l318 -375h-302l-186 177l-184 -177h-295z" />
    <glyph glyph-name="ycircumflex" unicode="&#x177;" horiz-adv-x="1196" 
d="M274 -348q-44 0 -114 4v242h86q95 0 130 17t50 69l14 43l-442 1132h346l268 -737l260 737h326l-465 -1210q-42 -112 -93.5 -174t-138.5 -92.5t-227 -30.5zM125 1270l317 375h332l318 -375h-301l-187 176l-184 -176h-295z" />
    <glyph glyph-name="Ydieresis" unicode="&#x178;" horiz-adv-x="1556" 
d="M610 0v532l-604 986h361l417 -684l418 684h346l-604 -986v-532h-334zM399 1610v278h291v-278h-291zM864 1610v278h289v-278h-289z" />
    <glyph glyph-name="Zacute" unicode="&#x179;" horiz-adv-x="1417" 
d="M498 1599l288 375h388l-392 -375h-284zM66 0v250l833 964h-799v304h1223v-275l-821 -952h844v-291h-1280z" />
    <glyph glyph-name="zacute" unicode="&#x17a;" horiz-adv-x="1105" 
d="M344 1270l289 375h387l-391 -375h-285zM41 0v215l575 670h-542v274h975v-219l-580 -682h602v-258h-1030z" />
    <glyph glyph-name="Zdotaccent" unicode="&#x17b;" horiz-adv-x="1417" 
d="M66 0v250l833 964h-799v304h1223v-275l-821 -952h844v-291h-1280zM545 1595v285h325v-285h-325z" />
    <glyph glyph-name="zdotaccent" unicode="&#x17c;" horiz-adv-x="1105" 
d="M41 0v215l575 670h-542v274h975v-219l-580 -682h602v-258h-1030zM391 1266v284h326v-284h-326z" />
    <glyph glyph-name="Zcaron" unicode="&#x17d;" horiz-adv-x="1417" 
d="M543 1599l-318 375h301l187 -176l184 176h295l-318 -375h-331zM66 0v250l833 964h-799v304h1223v-275l-821 -952h844v-291h-1280z" />
    <glyph glyph-name="zcaron" unicode="&#x17e;" horiz-adv-x="1105" 
d="M389 1270l-317 375h301l186 -177l184 177h295l-317 -375h-332zM41 0v215l575 670h-542v274h975v-219l-580 -682h602v-258h-1030z" />
    <glyph glyph-name="longs" unicode="&#x17f;" horiz-adv-x="909" 
d="M270 0v1214q0 103 21 176.5t70 128t135.5 81t212.5 26.5q79 0 153 -4v-262h-110q-93 0 -127.5 -34.5t-34.5 -108.5v-1217h-320z" />
    <glyph glyph-name="florin" unicode="&#x192;" horiz-adv-x="1259" 
d="M172 670v276h279l49 225q14 69 30.5 115.5t49.5 94t82 75t127 45t184 17.5h114v-287h-96q-99 0 -137 -37t-53 -119l-29 -129h315v-276h-374l-215 -1010h-322l215 1010h-219z" />
    <glyph glyph-name="Ohorn" unicode="&#x1a0;" horiz-adv-x="1746" 
d="M1675 1845v-280q0 -90 -39 -159t-120 -103q161 -194 161 -543q0 -785 -805 -785q-802 0 -802 785q0 782 802 782q306 0 494 -112q137 5 145 110h-141v305h305zM872 270q128 0 219 33t144.5 98t77.5 151.5t24 201.5t-24 201t-77.5 150t-144.5 97t-219 33t-219 -33
t-144 -97t-77 -150t-24 -201t24 -201.5t77 -151.5t144 -98t219 -33z" />
    <glyph glyph-name="ohorn" unicode="&#x1a1;" horiz-adv-x="1386" 
d="M1339 1516v-279q0 -193 -153 -262q96 -143 96 -393q0 -302 -142.5 -453.5t-461.5 -151.5t-462.5 151.5t-143.5 453.5t143.5 453t462.5 151q231 0 373 -82q115 10 127 108h-144v304h305zM678 252q158 0 220.5 80t62.5 241t-62.5 240.5t-220.5 79.5q-159 0 -221 -79.5
t-62 -240.5t62 -241t221 -80z" />
    <glyph glyph-name="Uhorn" unicode="&#x1af;" horiz-adv-x="1732" 
d="M1790 1933v-280q0 -117 -64 -196t-196 -95v-782q0 -55 -2.5 -98t-11.5 -95.5t-23.5 -94t-41 -86t-62.5 -77.5t-88.5 -64t-118.5 -51t-153.5 -31.5t-192.5 -11.5t-192.5 11.5t-153.5 31.5t-119 51t-89 64t-62 77.5t-41 86t-24 94t-11.5 96t-2.5 97.5v938h336v-895
q0 -72 8 -123.5t31 -98t63.5 -74t105 -43.5t155.5 -16q113 0 186 21.5t111.5 69.5t52.5 109t14 155v895h264q82 0 119.5 31t40.5 79h-141v305h303z" />
    <glyph glyph-name="uhorn" unicode="&#x1b0;" horiz-adv-x="1488" 
d="M1499 1573v-281q0 -119 -67.5 -198t-208.5 -90v-461q0 -124 -15 -212t-51.5 -158t-99.5 -111.5t-157.5 -63t-227.5 -21.5t-227 21t-157.5 62.5t-100 111.5t-51.5 157.5t-15 211.5v618h321v-624q0 -37 0.5 -58.5t3.5 -52t9.5 -48t17.5 -39t28.5 -33.5t41.5 -23.5t57.5 -16
t75.5 -4.5q48 0 84.5 7.5t61 18.5t41 33t25 40.5t13 52.5t5.5 58t1 67v622h271q151 0 159 109h-143v305h305z" />
    <glyph glyph-name="Aringacute" unicode="&#x1fa;" horiz-adv-x="1615" 
d="M594 1991l289 374h387l-391 -374h-285zM29 0l567 1425q-82 76 -82 226q0 135 72 218t221 83q143 0 217 -84t74 -217q0 -142 -82 -224l573 -1427h-348l-98 250h-688l-99 -250h-327zM561 526h475l-237 604zM807 1511q68 0 99.5 38.5t31.5 101.5q0 65 -31.5 103t-99.5 38
q-133 0 -133 -141q0 -63 32 -101.5t101 -38.5z" />
    <glyph glyph-name="aringacute" unicode="&#x1fb;" horiz-adv-x="1320" 
d="M487 -18q-105 0 -182.5 18t-125.5 49t-77.5 78t-40 97.5t-10.5 115.5q0 98 29 168t84 116t148 73t207.5 37.5t275.5 10.5h47q-1 34 -5.5 56.5t-18.5 43.5t-39 32.5t-66 18.5t-101 7q-96 0 -185 -28t-151 -66l-159 235q78 52 222 97t308 45q126 0 213 -17t144.5 -50
t89.5 -91t44.5 -128.5t12.5 -174.5v-352q0 -71 15.5 -89t84.5 -18v-262q-31 -8 -135 -8q-93 0 -140.5 24t-80.5 91q-95 -129 -408 -129zM551 240q153 0 222 57t69 184v43h-27q-126 0 -205.5 -5t-132.5 -14t-78 -29t-34 -44t-9 -65q0 -66 44 -96.5t151 -30.5zM451 1919
l288 375h387l-391 -375h-284zM662 1237q-149 0 -221 81t-72 216t72 218t221 83q143 0 216.5 -84t73.5 -217t-73.5 -215t-216.5 -82zM662 1395q68 0 99.5 38t31.5 101q0 65 -31.5 103t-99.5 38q-70 0 -102 -38t-32 -103q0 -63 32 -101t102 -38z" />
    <glyph glyph-name="AEacute" unicode="&#x1fc;" horiz-adv-x="2351" 
d="M915 1599l289 375h387l-391 -375h-285zM6 0l952 1518h1278v-304h-804v-294h784v-293h-784v-336h813v-291h-1135v260h-604l-174 -260h-326zM666 532h444v693z" />
    <glyph glyph-name="aeacute" unicode="&#x1fd;" horiz-adv-x="2025" 
d="M735 1270l289 375h387l-391 -375h-285zM1434 -23q-342 0 -473 170q-25 -38 -54 -65.5t-65.5 -45.5t-72 -29t-85.5 -16.5t-92 -7t-105 -1.5q-129 0 -217 25t-134.5 75t-65.5 111.5t-19 146.5q0 99 28 168.5t82.5 115.5t147 73t207.5 37.5t279 10.5h47q-1 34 -5.5 56.5
t-18.5 43.5t-39 32.5t-66 18.5t-101 7q-96 0 -185 -28t-151 -66l-159 235q78 52 222 97t308 45q274 0 373 -113q139 113 412 113q125 0 217 -27t147 -75.5t90.5 -116t47 -148t16 -172t-1.5 -188.5h-807q14 -111 79.5 -166t213.5 -55q125 0 210 27t154 79l162 -209
q-112 -86 -230 -122t-296 -36zM549 240q155 0 224 56.5t69 184.5v43h-27q-127 0 -206.5 -5t-132.5 -14t-78 -29t-33.5 -44t-8.5 -65q0 -68 40.5 -97.5t152.5 -29.5zM1423 918q-143 0 -206 -58t-76 -172h514q-2 40 -4.5 64t-10.5 54t-23.5 47.5t-40 34t-63 23.5t-90.5 7z" />
    <glyph glyph-name="Oslashacute" unicode="&#x1fe;" horiz-adv-x="1746" 
d="M872 -25q-154 0 -290 31l-54 -90h-313l119 199q-264 188 -264 645q0 168 37 299.5t104.5 222t167.5 149t221.5 85t271.5 26.5t283 -31l55 93h312l-119 -197q274 -191 274 -647q0 -785 -805 -785zM872 258q134 0 228 34t148 101t78 155t24 206q0 263 -121 381l-506 -865
q67 -12 149 -12zM395 754q0 -254 113 -373l498 856q-65 10 -134 10q-134 0 -228 -33.5t-148 -100t-77.5 -154t-23.5 -205.5zM662 1599l288 375h387l-391 -375h-284z" />
    <glyph glyph-name="oslashacute" unicode="&#x1ff;" horiz-adv-x="1353" 
d="M678 -23q-117 0 -225 23l-56 -88h-286l122 192q-161 140 -161 478q0 150 31.5 259t101.5 188t187.5 118t285.5 39q118 0 221 -23l57 88h289l-125 -194q162 -144 162 -475q0 -150 -31 -259t-100.5 -188.5t-187 -118.5t-285.5 -39zM678 244q162 0 225.5 83.5t63.5 245.5
q0 134 -39 205l-330 -528q34 -6 80 -6zM389 573q0 -128 33 -198l323 520q-30 6 -67 6q-85 0 -142.5 -22.5t-89 -67.5t-44.5 -102t-13 -136zM465 1270l289 375h387l-391 -375h-285z" />
    <glyph glyph-name="Scommaaccent" unicode="&#x218;" horiz-adv-x="1517" 
d="M672 -676l-70 135q93 45 118 70t25 76h-151v317h324v-225q0 -70 -5.5 -114t-19 -83.5t-42.5 -67.5t-70.5 -53.5t-108.5 -54.5zM768 -23q-453 0 -723 199l168 242q241 -162 545 -162q146 0 223.5 20.5t103 58t25.5 105.5q0 31 -9.5 54.5t-33 41.5t-49 30t-72.5 23
t-87.5 17.5t-108.5 16.5q-94 13 -162.5 26t-137 32t-114.5 43t-87.5 57.5t-65 76t-37 99t-13.5 126.5q0 248 152 353.5t481 105.5q390 0 614 -149l-180 -260q-75 49 -197 82.5t-241 33.5q-173 0 -234 -35t-61 -122q0 -30 9.5 -53.5t33 -40.5t49 -29t74 -23t89 -18t112.5 -17
q89 -13 149.5 -24t130 -29.5t114 -40t89 -55t69.5 -75.5t40.5 -100t15.5 -130q0 -119 -34.5 -205t-112 -149.5t-209 -94.5t-318.5 -31z" />
    <glyph glyph-name="scommaaccent" unicode="&#x219;" horiz-adv-x="1173" 
d="M500 -676l-70 135q93 45 118 70t25 76h-151v317h323v-225q0 -87 -7.5 -137.5t-34.5 -95t-73.5 -74.5t-129.5 -66zM573 -18q-335 0 -553 145l164 235q89 -57 199 -88.5t211 -31.5q124 0 166.5 18.5t42.5 77.5q0 49 -40.5 67.5t-164.5 34.5q-57 8 -93.5 13.5t-85.5 15.5
t-80.5 20.5t-69 26.5t-61.5 35.5t-48 46.5t-37.5 59t-22 74t-8.5 92q0 182 119 272.5t387 90.5q142 0 270 -27.5t219 -79.5l-153 -250q-64 33 -152.5 54.5t-173.5 21.5q-116 0 -156 -19.5t-40 -64.5q0 -48 36.5 -66t153.5 -34q79 -11 122.5 -18t107 -21.5t98 -30.5t76 -43
t61.5 -60.5t34.5 -82t14.5 -109.5q0 -201 -123 -287.5t-420 -86.5z" />
    <glyph glyph-name="circumflex" unicode="&#x2c6;" horiz-adv-x="1208" 
d="M121 1270l317 375h332l317 -375h-301l-186 176l-184 -176h-295z" />
    <glyph glyph-name="caron" unicode="&#x2c7;" horiz-adv-x="1208" 
d="M438 1270l-317 375h301l186 -177l185 177h294l-317 -375h-332z" />
    <glyph glyph-name="breve" unicode="&#x2d8;" horiz-adv-x="1208" 
d="M604 1239q-111 0 -189.5 27.5t-127.5 83.5t-76.5 124t-46.5 166l231 43q12 -56 26 -90.5t37.5 -60t58.5 -36.5t87 -11t87 11t58.5 36.5t37.5 60t26 90.5l234 -41q-16 -79 -36.5 -136.5t-54.5 -110t-80.5 -85.5t-114.5 -52t-157 -19z" />
    <glyph glyph-name="dotaccent" unicode="&#x2d9;" horiz-adv-x="1208" 
d="M440 1266v284h326v-284h-326z" />
    <glyph glyph-name="ring" unicode="&#x2da;" horiz-adv-x="1208" 
d="M604 1237q-149 0 -221 81t-72 216t72 218t221 83q143 0 217 -84t74 -217t-74 -215t-217 -82zM604 1395q68 0 99.5 38t31.5 101q0 65 -31.5 103t-99.5 38q-133 0 -133 -141q0 -63 32 -101t101 -38z" />
    <glyph glyph-name="ogonek" unicode="&#x2db;" horiz-adv-x="1208" 
d="M643 -487q-167 0 -237 55.5t-70 161.5q0 53 19 101.5t50 84t61 60t62 42.5h256q-102 -62 -152 -121.5t-50 -103.5q0 -40 21 -59t83 -19q87 0 178 31l60 -174q-57 -26 -134.5 -42.5t-146.5 -16.5z" />
    <glyph glyph-name="tilde" unicode="&#x2dc;" horiz-adv-x="1208" 
d="M291 1262l-178 145q179 221 344 221q48 0 91 -17t68.5 -38t58.5 -38t64 -17q72 0 172 120l179 -145q-182 -225 -345 -225q-46 0 -88 17t-68.5 38t-60 38t-65.5 17q-78 0 -172 -116z" />
    <glyph glyph-name="hungarumlaut" unicode="&#x2dd;" horiz-adv-x="1208" 
d="M113 1270l258 375h370l-360 -375h-268zM666 1270l258 375h370l-360 -375h-268z" />
    <glyph glyph-name="hookabovecomb" unicode="&#x309;" horiz-adv-x="1208" 
d="M496 1090q-14 76 9 129.5t99 97.5q55 32 70.5 47t15.5 37q0 53 -98 53q-105 0 -189 -41l-90 182q112 56 293 56q154 0 240 -58t86 -151q0 -81 -31 -127.5t-96 -83.5q-57 -34 -76.5 -62.5t-19.5 -78.5h-213z" />
    <glyph glyph-name="dotbelowcomb" unicode="&#x323;" horiz-adv-x="1208" 
d="M440 -403v284h326v-284h-326z" />
    <glyph glyph-name="commaaccent" unicode="&#x326;" horiz-adv-x="600" 
d="M215 -676l-70 135q93 45 118.5 70t25.5 76h-152v317h324v-225q0 -70 -5.5 -114t-19 -83.5t-42.5 -67.5t-70.5 -53.5t-108.5 -54.5z" />
    <glyph glyph-name="uni0340" unicode="&#x340;" horiz-adv-x="1208" 
d="M530 1270l-391 375h387l289 -375h-285z" />
    <glyph glyph-name="uni0341" unicode="&#x341;" horiz-adv-x="1208" 
d="M393 1270l289 375h387l-391 -375h-285z" />
    <glyph glyph-name="tonos" unicode="&#x384;" horiz-adv-x="1208" 
d="M475 1270l162 375h297l-217 -375h-242z" />
    <glyph glyph-name="dieresistonos" unicode="&#x385;" horiz-adv-x="1208" 
d="M127 1270v278h227v-278h-227zM856 1270v278h227v-278h-227zM418 1270l145 375h281l-201 -375h-225z" />
    <glyph glyph-name="Alphatonos" unicode="&#x386;" horiz-adv-x="1646" 
d="M43 1151l162 375h297l-217 -375h-242zM59 0l609 1528h340l612 -1528h-348l-98 250h-689l-98 -250h-328zM592 526h475l-238 604z" />
    <glyph glyph-name="Epsilontonos" unicode="&#x388;" horiz-adv-x="1841" 
d="M43 1143l162 375h297l-217 -375h-242zM584 0v1518h1140v-304h-804v-294h784v-293h-784v-336h813v-291h-1149z" />
    <glyph glyph-name="Etatonos" unicode="&#x389;" horiz-adv-x="2103" 
d="M43 1143l162 375h297l-217 -375h-242zM584 0v1518h336v-582h694v582h336v-1518h-336v623h-694v-623h-336z" />
    <glyph glyph-name="Iotatonos" unicode="&#x38a;" horiz-adv-x="1114" 
d="M43 1143l162 375h297l-217 -375h-242zM602 0v1518h334v-1518h-334z" />
    <glyph glyph-name="Omicrontonos" unicode="&#x38c;" horiz-adv-x="2076" 
d="M43 1143l162 375h297l-217 -375h-242zM1202 -25q-803 0 -803 785q0 782 803 782q805 0 805 -782q0 -785 -805 -785zM1202 270q128 0 219 33t144.5 98t77.5 151.5t24 201.5t-24 201t-77.5 150t-144.5 97t-219 33t-219 -33t-144.5 -97t-77.5 -150t-24 -201t24 -201.5
t77.5 -151.5t144.5 -98t219 -33z" />
    <glyph glyph-name="Upsilontonos" unicode="&#x38e;" horiz-adv-x="2111" 
d="M43 1143l162 375h297l-217 -375h-242zM1165 0v532l-604 986h361l417 -684l418 684h346l-604 -986v-532h-334z" />
    <glyph glyph-name="Omegatonos" unicode="&#x38f;" horiz-adv-x="2129" 
d="M1221 1542q162 0 296 -35t227 -97t157 -147.5t94 -185t30 -211.5q0 -456 -434 -538v-54h457v-274h-696v440q181 34 257.5 125.5t76.5 247.5q0 198 -119 310t-346 112q-229 0 -348 -112t-119 -310q0 -156 76 -247.5t257 -125.5v-440h-696v274h457v54q-432 82 -432 538
q0 112 30 211.5t93.5 185t157 147.5t227.5 97t297 35zM43 1143l162 375h297l-217 -375h-242z" />
    <glyph glyph-name="iotadieresistonos" unicode="&#x390;" horiz-adv-x="600" 
d="M-176 1270v278h227v-278h-227zM553 1270v278h227v-278h-227zM115 1270l145 375h281l-201 -375h-225zM139 0v1159h320v-1159h-320z" />
    <glyph glyph-name="Alpha" unicode="&#x391;" horiz-adv-x="1615" 
d="M29 0l608 1528h340l612 -1528h-348l-98 250h-688l-99 -250h-327zM561 526h475l-237 604z" />
    <glyph glyph-name="Beta" unicode="&#x392;" horiz-adv-x="1546" 
d="M152 0v1518h704q304 0 440 -92t136 -300q0 -263 -203 -335q131 -32 187.5 -120.5t56.5 -252.5q0 -122 -38.5 -204t-120 -129t-192 -66t-270.5 -19h-700zM481 279h410q130 0 186 39.5t56 132.5t-55.5 131.5t-186.5 38.5h-410v-342zM481 911h387q127 0 175.5 40.5
t48.5 125.5q0 82 -50 119t-174 37h-387v-322z" />
    <glyph glyph-name="Gamma" unicode="&#x393;" horiz-adv-x="1335" 
d="M487 1214v-1214h-335v1518h1103v-304h-768z" />
    <glyph glyph-name="Delta" unicode="&#x394;" horiz-adv-x="1615" 
d="M29 0l608 1528h340l610 -1528h-1558zM463 276h670l-336 854z" />
    <glyph glyph-name="Delta" unicode="&#x2206;" horiz-adv-x="1615" 
d="M29 0l608 1528h340l610 -1528h-1558zM463 276h670l-336 854z" />
    <glyph glyph-name="Epsilon" unicode="&#x395;" horiz-adv-x="1406" 
d="M152 0v1518h1140v-304h-805v-294h785v-293h-785v-336h813v-291h-1148z" />
    <glyph glyph-name="Zeta" unicode="&#x396;" horiz-adv-x="1417" 
d="M66 0v250l833 964h-799v304h1223v-275l-821 -952h844v-291h-1280z" />
    <glyph glyph-name="Eta" unicode="&#x397;" horiz-adv-x="1669" 
d="M152 0v1518h335v-582h695v582h336v-1518h-336v623h-695v-623h-335z" />
    <glyph glyph-name="Theta" unicode="&#x398;" horiz-adv-x="1746" 
d="M573 610v293h598v-293h-598zM872 -25q-802 0 -802 785q0 782 802 782q805 0 805 -782q0 -785 -805 -785zM872 270q128 0 219 33t144.5 98t77.5 151.5t24 201.5t-24 201t-77.5 150t-144.5 97t-219 33t-219 -33t-144 -97t-77 -150t-24 -201t24 -201.5t77 -151.5t144 -98
t219 -33z" />
    <glyph glyph-name="Iota" unicode="&#x399;" horiz-adv-x="681" 
d="M174 0v1518h334v-1518h-334z" />
    <glyph glyph-name="Kappa" unicode="&#x39a;" horiz-adv-x="1556" 
d="M1124 0l-426 662l-215 -254v-408h-331v1518h331v-687l576 687h371l-515 -600l588 -918h-379z" />
    <glyph glyph-name="Lambda" unicode="&#x39b;" horiz-adv-x="1599" 
d="M969 1528l600 -1528h-352l-424 1110l-422 -1110h-346l604 1528h340z" />
    <glyph glyph-name="Mu" unicode="&#x39c;" horiz-adv-x="2002" 
d="M152 0v1518h438l411 -1037l412 1037h436v-1518h-327v1014l-408 -1014h-254l-405 1008v-1008h-303z" />
    <glyph glyph-name="Nu" unicode="&#x39d;" horiz-adv-x="1685" 
d="M152 0v1518h362l698 -957v957h320v-1518h-307l-752 1024v-1024h-321z" />
    <glyph glyph-name="Xi" unicode="&#x39e;" horiz-adv-x="1398" 
d="M113 1214v304h1169v-304h-1169zM227 631v293h947v-293h-947zM104 0v291h1190v-291h-1190z" />
    <glyph glyph-name="Omicron" unicode="&#x39f;" horiz-adv-x="1746" 
d="M872 -25q-802 0 -802 785q0 782 802 782q805 0 805 -782q0 -785 -805 -785zM872 270q128 0 219 33t144.5 98t77.5 151.5t24 201.5t-24 201t-77.5 150t-144.5 97t-219 33t-219 -33t-144 -97t-77 -150t-24 -201t24 -201.5t77 -151.5t144 -98t219 -33z" />
    <glyph glyph-name="Pi" unicode="&#x3a0;" horiz-adv-x="1617" 
d="M152 0v1518h1312v-1518h-336v1219h-645v-1219h-331z" />
    <glyph glyph-name="Rho" unicode="&#x3a1;" horiz-adv-x="1556" 
d="M152 0v1518h729q171 0 291 -35t188 -103.5t97.5 -158t29.5 -211.5q0 -98 -17 -176.5t-60.5 -149t-113 -117.5t-179 -74.5t-253.5 -27.5h-385v-465h-327zM479 752h400q144 0 208 55t64 186q0 134 -62.5 186t-214.5 52h-395v-479z" />
    <glyph glyph-name="Sigma" unicode="&#x3a3;" horiz-adv-x="1355" 
d="M66 0v250l464 508l-442 485v275h1161v-304h-735l416 -456l-428 -467h782v-291h-1218z" />
    <glyph glyph-name="Tau" unicode="&#x3a4;" horiz-adv-x="1445" 
d="M555 0v1214h-526v304h1388v-304h-524v-1214h-338z" />
    <glyph glyph-name="Upsilon" unicode="&#x3a5;" horiz-adv-x="1556" 
d="M610 0v532l-604 986h361l417 -684l418 684h346l-604 -986v-532h-334z" />
    <glyph glyph-name="Phi" unicode="&#x3a6;" horiz-adv-x="1871" 
d="M770 0v96q-169 13 -300.5 58.5t-227.5 125t-146.5 201t-50.5 279.5t50.5 278.5t147 199.5t227.5 124t300 59v97h334v-97q344 -29 534.5 -191t190.5 -470q0 -158 -51 -279.5t-147.5 -200.5t-227 -124.5t-299.5 -59.5v-96h-334zM383 754q0 -148 90 -240.5t297 -118.5v717
q-207 -26 -297 -118t-90 -240zM1489 754q0 147 -90 239.5t-295 118.5v-717q205 26 295 119t90 240z" />
    <glyph glyph-name="Chi" unicode="&#x3a7;" horiz-adv-x="1599" 
d="M1165 0l-381 547l-360 -547h-371l557 797l-499 721h376l326 -467l307 467h371l-506 -715l561 -803h-381z" />
    <glyph glyph-name="Psi" unicode="&#x3a8;" horiz-adv-x="1665" 
d="M666 0v506q-161 12 -267.5 50t-169.5 109t-88.5 165.5t-25.5 232.5v455h319v-461q0 -39 2 -64t9.5 -56t22.5 -51t40 -40t64.5 -32.5t93.5 -20.5v725h335v-725q65 9 109 27.5t68 39.5t36.5 56.5t15.5 65t3 77.5v459h317v-453q0 -137 -27 -233t-90.5 -166.5t-169.5 -109
t-262 -50.5v-506h-335z" />
    <glyph glyph-name="Omega" unicode="&#x3a9;" horiz-adv-x="1816" 
d="M909 1542q162 0 296 -35t227.5 -97t157.5 -147.5t94 -185t30 -211.5q0 -456 -434 -538v-54h457v-274h-697v440q181 34 257.5 125.5t76.5 247.5q0 198 -119 310t-346 112q-229 0 -348 -112t-119 -310q0 -156 76.5 -247.5t257.5 -125.5v-440h-696v274h457v54
q-216 41 -324.5 177t-108.5 361q0 112 30 211.5t93.5 185t157 147.5t227.5 97t297 35z" />
    <glyph glyph-name="Omega" unicode="&#x2126;" horiz-adv-x="1816" 
d="M909 1542q162 0 296 -35t227.5 -97t157.5 -147.5t94 -185t30 -211.5q0 -456 -434 -538v-54h457v-274h-697v440q181 34 257.5 125.5t76.5 247.5q0 198 -119 310t-346 112q-229 0 -348 -112t-119 -310q0 -156 76.5 -247.5t257.5 -125.5v-440h-696v274h457v54
q-216 41 -324.5 177t-108.5 361q0 112 30 211.5t93.5 185t157 147.5t227.5 97t297 35z" />
    <glyph glyph-name="Iotadieresis" unicode="&#x3aa;" horiz-adv-x="681" 
d="M-35 1616v278h291v-278h-291zM430 1616v278h289v-278h-289zM174 0v1518h334v-1518h-334z" />
    <glyph glyph-name="Upsilondieresis" unicode="&#x3ab;" horiz-adv-x="1556" 
d="M399 1616v278h291v-278h-291zM864 1616v278h289v-278h-289zM610 0v532l-604 986h361l417 -684l418 684h346l-604 -986v-532h-334z" />
    <glyph glyph-name="alphatonos" unicode="&#x3ac;" horiz-adv-x="1427" 
d="M535 1270l161 375h297l-217 -375h-241zM651 254q157 0 220 79.5t63 252.5q0 171 -59 241t-224 70q-77 0 -128.5 -22t-78 -65.5t-37 -96t-10.5 -127.5q0 -60 6 -106.5t23 -90.5t44.5 -72.5t73 -45.5t107.5 -17zM995 125q-57 -75 -155.5 -109t-264.5 -34
q-116 0 -204.5 31.5t-144.5 84.5t-91 131.5t-49 165t-14 191.5t14 190.5t50 163t93.5 130t147.5 83.5t209 31q295 0 391 -119l63 100l217 -18v-774q0 -71 16 -89t85 -18v-262q-31 -8 -135 -8q-96 0 -148 27.5t-80 101.5z" />
    <glyph glyph-name="epsilontonos" unicode="&#x3ad;" horiz-adv-x="1069" 
d="M434 1270l162 375h297l-217 -375h-242zM553 -27q-262 0 -373.5 90.5t-111.5 270.5q0 120 44 184t136 88q-76 28 -112 87.5t-36 164.5q0 167 115 248.5t326 81.5q317 0 508 -146l-164 -200q-123 76 -297 76q-170 0 -170 -103q0 -35 11.5 -54.5t52 -32.5t116.5 -13h176
v-230h-164q-75 0 -122 -7.5t-69.5 -24.5t-30 -35.5t-7.5 -48.5q0 -66 46 -98.5t157 -32.5q101 0 170 23t143 73l174 -197q-101 -87 -225.5 -125.5t-292.5 -38.5z" />
    <glyph glyph-name="etatonos" unicode="&#x3ae;" horiz-adv-x="1359" 
d="M565 1270l162 375h297l-217 -375h-242zM127 0v1141l250 18l26 -100q114 127 420 127q103 0 177.5 -23.5t120 -63t72.5 -103t36.5 -132.5t9.5 -162v-1040h-319v977q0 49 -3 80.5t-15 65.5t-34.5 53.5t-62 32t-96.5 12.5q-81 0 -134 -17.5t-80 -54.5t-36.5 -80t-9.5 -106
v-625h-322z" />
    <glyph glyph-name="iotatonos" unicode="&#x3af;" horiz-adv-x="600" 
d="M174 1270l162 375h297l-217 -375h-242zM139 0v1159h320v-1159h-320z" />
    <glyph glyph-name="upsilondieresistonos" unicode="&#x3b0;" horiz-adv-x="1343" 
d="M195 1270v278h227v-278h-227zM924 1270v278h227v-278h-227zM485 1270l146 375h280l-200 -375h-226zM674 -18q-166 0 -273 30.5t-169.5 101.5t-86.5 171.5t-24 255.5v618h321v-624q0 -37 0.5 -58.5t3.5 -52t9.5 -48t17.5 -39t28.5 -33.5t41.5 -23.5t57.5 -16t75.5 -4.5
q48 0 84.5 7.5t61 18.5t41 33t25 40.5t13 52.5t5.5 58t1 67v622h316v-616q0 -124 -15 -211.5t-51 -157t-99 -110t-157 -61.5t-227 -21z" />
    <glyph glyph-name="alpha" unicode="&#x3b1;" horiz-adv-x="1427" 
d="M651 254q157 0 220 79.5t63 252.5q0 171 -59 241t-224 70q-77 0 -128.5 -22t-78 -65.5t-37 -96t-10.5 -127.5q0 -60 6 -106.5t23 -90.5t44.5 -72.5t73 -45.5t107.5 -17zM995 125q-57 -75 -155.5 -109t-264.5 -34q-116 0 -204.5 31.5t-144.5 84.5t-91 131.5t-49 165
t-14 191.5t14 190.5t50 163t93.5 130t147.5 83.5t209 31q295 0 391 -119l63 100l217 -18v-774q0 -71 16 -89t85 -18v-262q-31 -8 -135 -8q-96 0 -148 27.5t-80 101.5z" />
    <glyph glyph-name="beta" unicode="&#x3b2;" horiz-adv-x="1423" 
d="M127 -338v1401q0 63 6.5 117t24 110.5t45 101.5t72.5 86t104.5 68.5t143 43.5t184.5 16q266 0 398 -106t132 -308q0 -160 -40.5 -240.5t-135.5 -120.5q74 -15 126.5 -40t92 -68.5t59 -111.5t19.5 -162q0 -99 -15.5 -167.5t-56.5 -125t-113.5 -89t-184.5 -50t-271 -17.5
h-123v272h113q106 0 174 13t102 41t45.5 61t11.5 84q0 75 -32 113t-116.5 55.5t-250.5 17.5v252q111 0 172 21t84 62t23 114q0 95 -50 141.5t-170 46.5q-136 0 -196 -59t-60 -184v-1389h-317z" />
    <glyph glyph-name="gamma" unicode="&#x3b3;" horiz-adv-x="1255" 
d="M459 -340v328l-461 1171h346l293 -786l293 786h325l-460 -1171v-328h-336z" />
    <glyph glyph-name="delta" unicode="&#x3b4;" horiz-adv-x="1353" 
d="M678 -23q-159 0 -277.5 40.5t-189.5 114.5t-105 170.5t-34 217.5q0 110 28.5 200.5t88 162.5t158.5 117t233 57l-379 315v217h950v-272h-485l430 -365q186 -133 186 -432q0 -121 -34 -217.5t-104 -170.5t-188.5 -114.5t-277.5 -40.5zM678 252q283 0 283 258
q0 61 -13.5 108.5t-44.5 86t-88 59t-137 20.5q-156 0 -219.5 -73t-63.5 -201q0 -258 283 -258z" />
    <glyph glyph-name="epsilon" unicode="&#x3b5;" horiz-adv-x="1093" 
d="M553 -27q-262 0 -373.5 90.5t-111.5 270.5q0 120 44 184t136 88q-76 28 -112 87.5t-36 164.5q0 167 115 248.5t326 81.5q317 0 508 -146l-164 -200q-123 76 -297 76q-170 0 -170 -103q0 -35 11.5 -54.5t52 -32.5t116.5 -13h176v-230h-164q-75 0 -122 -7.5t-69.5 -24.5
t-30 -35.5t-7.5 -48.5q0 -66 46 -98.5t157 -32.5q101 0 170 23t143 73l174 -197q-101 -87 -225.5 -125.5t-292.5 -38.5z" />
    <glyph glyph-name="zeta" unicode="&#x3b6;" horiz-adv-x="1105" 
d="M684 -330q-146 0 -272 70l77 149q97 -51 183 -51q71 0 100 19t29 59q0 39 -35.5 55t-120.5 21q-133 2 -235.5 31.5t-165 75.5t-102.5 111t-55 132t-15 145q0 94 23.5 179.5t64 159.5t112.5 158t149.5 157.5t194.5 175.5h-542v272h975v-219q-254 -201 -399.5 -354.5
t-200 -266.5t-54.5 -229q0 -52 12.5 -94t42.5 -79t85.5 -61.5t134.5 -33.5q193 -20 270.5 -86t77.5 -201q0 -149 -81 -222t-253 -73z" />
    <glyph glyph-name="eta" unicode="&#x3b7;" horiz-adv-x="1359" 
d="M127 0v1141l250 18l26 -100q114 127 420 127q103 0 177.5 -23.5t120 -63t72.5 -103t36.5 -132.5t9.5 -162v-1040h-319v977q0 49 -3 80.5t-15 65.5t-34.5 53.5t-62 32t-96.5 12.5q-81 0 -134 -17.5t-80 -54.5t-36.5 -80t-9.5 -106v-625h-322z" />
    <glyph glyph-name="theta" unicode="&#x3b8;" horiz-adv-x="1581" 
d="M793 -23q-180 0 -309 55t-207 162.5t-114 255t-36 343.5q0 197 36 344t114 254.5t207 162t309 54.5q177 0 305 -54.5t205.5 -161.5t114 -255t36.5 -344t-36.5 -343.5t-114 -255t-205.5 -162.5t-305 -55zM793 1317q-168 0 -243.5 -105.5t-88.5 -312.5h657
q-11 207 -85 312.5t-240 105.5zM793 256q84 0 144.5 29t97.5 85.5t56.5 129.5t26.5 172h-655q13 -202 89 -309t241 -107z" />
    <glyph glyph-name="iota" unicode="&#x3b9;" horiz-adv-x="600" 
d="M139 0v1159h320v-1159h-320z" />
    <glyph glyph-name="kappa" unicode="&#x3ba;" horiz-adv-x="1239" 
d="M127 0v1159h317v-479l396 479h350l-389 -473l424 -686h-357l-284 446l-140 -165v-281h-317z" />
    <glyph glyph-name="lambda" unicode="&#x3bb;" horiz-adv-x="1251" 
d="M274 1591q209 0 316.5 -67t169.5 -230l493 -1294h-346l-286 801l-297 -801h-326l465 1176l-33 84q-21 51 -55.5 68.5t-128.5 17.5h-86v241q70 4 114 4z" />
    <glyph glyph-name="uni03BC" unicode="&#x3bc;" horiz-adv-x="1363" 
d="M549 -23q-59 0 -127 11v-326h-295v1497h322v-649q0 -50 4 -84.5t16.5 -68.5t35 -53.5t60.5 -31.5t92 -12q65 0 111.5 13t74 34t43 56t20.5 71t5 88v637h324v-1147l-246 -22l-31 116q-111 -129 -409 -129z" />
    <glyph glyph-name="nu" unicode="&#x3bd;" horiz-adv-x="1255" 
d="M459 -12l-461 1171h346l293 -786l293 786h325l-460 -1171h-336z" />
    <glyph glyph-name="xi" unicode="&#x3be;" horiz-adv-x="1105" 
d="M684 -330q-146 0 -272 70l77 149q97 -51 183 -51q71 0 100 19t29 59q0 38 -36.5 54.5t-119.5 21.5q-133 2 -234 24t-164.5 59t-103.5 92t-55.5 116.5t-15.5 138.5q0 176 90.5 273.5t253.5 125.5q-122 21 -177 86.5t-55 175.5q0 86 41.5 148t108.5 86h-260v272h975v-272
h-258q-160 0 -229.5 -46.5t-69.5 -146.5q0 -50 13 -83.5t48 -60.5t100.5 -40t167.5 -14v-221q-61 0 -73 -3q-110 -1 -182.5 -17t-110 -46.5t-52 -66.5t-14.5 -87q0 -112 61.5 -164t219.5 -69q194 -18 271 -85t77 -202q0 -149 -81 -222t-253 -73z" />
    <glyph glyph-name="omicron" unicode="&#x3bf;" horiz-adv-x="1353" 
d="M678 -23q-318 0 -462 152t-144 453t143.5 452.5t462.5 151.5q318 0 461 -151.5t143 -452.5t-143 -453t-461 -152zM678 252q157 0 220 81t63 240t-63 239.5t-220 80.5q-158 0 -220.5 -80.5t-62.5 -239.5q0 -78 13 -134t44.5 -99.5t87.5 -65.5t138 -22z" />
    <glyph glyph-name="pi" unicode="&#x3c0;" horiz-adv-x="1370" 
d="M127 0v1159h1116v-1159h-321v891h-478v-891h-317z" />
    <glyph glyph-name="rho" unicode="&#x3c1;" horiz-adv-x="1394" 
d="M127 -338l-2 920q0 150 33.5 260t105.5 188t189 117t280 39q101 0 184 -16t143.5 -45t106.5 -72t75.5 -93t47.5 -112.5t25.5 -126.5t7.5 -139q0 -106 -14 -191.5t-49.5 -163.5t-92.5 -130.5t-147.5 -83.5t-210.5 -31q-151 0 -232.5 26t-127.5 82v-428h-322zM745 254
q75 0 126 22.5t78 67t37.5 98t10.5 127.5q0 76 -10 130t-36.5 100.5t-77.5 70t-128 23.5q-161 0 -228.5 -78.5t-67.5 -245.5q0 -171 63 -243t233 -72z" />
    <glyph glyph-name="sigma1" unicode="&#x3c2;" horiz-adv-x="1202" 
d="M705 -330q-145 0 -275 70l80 149q94 -51 182 -51q71 0 100 19t29 59q0 41 -36 55.5t-119 14.5q-140 0 -245 29.5t-171 80.5t-106.5 128.5t-56 163t-15.5 194.5t15 194t55.5 164.5t107 131.5t175.5 83t255 31q306 0 471 -189l-225 -213q-47 49 -102.5 78t-143.5 29
q-84 0 -141 -21.5t-88 -64.5t-43.5 -98.5t-12.5 -133.5q0 -79 12 -132.5t43.5 -96.5t89 -66t146.5 -30q190 -19 271 -80.5t81 -204.5q0 -148 -80 -220.5t-253 -72.5z" />
    <glyph glyph-name="sigma" unicode="&#x3c3;" horiz-adv-x="1419" 
d="M678 -23q-318 0 -462 152t-144 453t143.5 452.5t462.5 151.5q196 0 328 -60h409v-274h-170q37 -115 37 -270q0 -301 -143 -453t-461 -152zM678 252q157 0 220 81t63 240t-63 239.5t-220 80.5q-158 0 -220.5 -80.5t-62.5 -239.5q0 -78 13 -134t44.5 -99.5t87.5 -65.5
t138 -22z" />
    <glyph glyph-name="tau" unicode="&#x3c4;" horiz-adv-x="1214" 
d="M20 885v274h1174v-274h-426v-885h-322v885h-426z" />
    <glyph glyph-name="upsilon" unicode="&#x3c5;" horiz-adv-x="1343" 
d="M674 -18q-166 0 -273 30.5t-169.5 101.5t-86.5 171.5t-24 255.5v618h321v-624q0 -37 0.5 -58.5t3.5 -52t9.5 -48t17.5 -39t28.5 -33.5t41.5 -23.5t57.5 -16t75.5 -4.5q48 0 84.5 7.5t61 18.5t41 33t25 40.5t13 52.5t5.5 58t1 67v622h316v-616q0 -124 -15 -211.5t-51 -157
t-99 -110t-157 -61.5t-227 -21z" />
    <glyph glyph-name="phi" unicode="&#x3c6;" horiz-adv-x="1632" 
d="M72 582q0 213 71.5 347t223.5 193l114 -286q-86 -67 -86 -263q0 -150 54 -229t194 -90v932h336q307 -9 443.5 -160t136.5 -444q0 -295 -136.5 -445.5t-443.5 -159.5v-315h-336v318q-302 10 -436.5 160t-134.5 442zM1237 573q0 152 -56 230.5t-202 87.5v-639q146 9 202 88
t56 233z" />
    <glyph glyph-name="chi" unicode="&#x3c7;" horiz-adv-x="1226" 
d="M856 0l-260 373l-248 -373h-338l424 606l-385 553h359l223 -321l211 321h338l-385 -555l422 -604h-361z" />
    <glyph glyph-name="psi" unicode="&#x3c8;" horiz-adv-x="1650" 
d="M662 -338v315q-109 2 -191.5 17t-142.5 46.5t-100 75t-63.5 108.5t-33.5 140.5t-10 176.5v618h321v-624q0 -37 0.5 -57t3 -50t8.5 -46.5t16.5 -38t26.5 -33.5t39 -24t54.5 -18t71.5 -8v899h333v-899q45 2 79.5 11t58 20.5t39 33.5t24 40t12.5 51t5 56.5t1 64.5v622h316
v-616q0 -121 -14.5 -207.5t-50 -156t-96.5 -112t-153 -65.5t-221 -25v-315h-333z" />
    <glyph glyph-name="omega" unicode="&#x3c9;" horiz-adv-x="1849" 
d="M1083 987v-487q4 -135 49.5 -190.5t133.5 -55.5q94 0 136 60t42 206q0 223 -162 496l260 160q117 -190 168 -355t51 -346q0 -131 -36 -229t-99.5 -155.5t-143.5 -85.5t-175 -28q-167 0 -257 69t-126 220q-34 -151 -124 -220t-257 -69q-96 0 -175.5 28t-143.5 85.5
t-100 155.5t-36 229q0 181 51 346t168 355l260 -160q-159 -268 -159 -496q0 -146 41.5 -206t134.5 -60q89 0 135.5 56t46.5 190v487h317z" />
    <glyph glyph-name="iotadieresis" unicode="&#x3ca;" horiz-adv-x="600" 
d="M-33 1280v279h258v-279h-258zM375 1280v279h258v-279h-258zM139 0v1159h320v-1159h-320z" />
    <glyph glyph-name="upsilondieresis" unicode="&#x3cb;" horiz-adv-x="1343" 
d="M295 1280v279h291v-279h-291zM760 1280v279h289v-279h-289zM674 -18q-166 0 -273 30.5t-169.5 101.5t-86.5 171.5t-24 255.5v618h321v-624q0 -37 0.5 -58.5t3.5 -52t9.5 -48t17.5 -39t28.5 -33.5t41.5 -23.5t57.5 -16t75.5 -4.5q48 0 84.5 7.5t61 18.5t41 33t25 40.5
t13 52.5t5.5 58t1 67v622h316v-616q0 -124 -15 -211.5t-51 -157t-99 -110t-157 -61.5t-227 -21z" />
    <glyph glyph-name="omicrontonos" unicode="&#x3cc;" horiz-adv-x="1353" 
d="M537 1270l161 375h297l-217 -375h-241zM678 -23q-318 0 -462 152t-144 453t143.5 452.5t462.5 151.5q318 0 461 -151.5t143 -452.5t-143 -453t-461 -152zM678 252q157 0 220 81t63 240t-63 239.5t-220 80.5q-158 0 -220.5 -80.5t-62.5 -239.5q0 -78 13 -134t44.5 -99.5
t87.5 -65.5t138 -22z" />
    <glyph glyph-name="upsilontonos" unicode="&#x3cd;" horiz-adv-x="1343" 
d="M549 1270l162 375h297l-217 -375h-242zM674 -18q-166 0 -273 30.5t-169.5 101.5t-86.5 171.5t-24 255.5v618h321v-624q0 -37 0.5 -58.5t3.5 -52t9.5 -48t17.5 -39t28.5 -33.5t41.5 -23.5t57.5 -16t75.5 -4.5q48 0 84.5 7.5t61 18.5t41 33t25 40.5t13 52.5t5.5 58t1 67
v622h316v-616q0 -124 -15 -211.5t-51 -157t-99 -110t-157 -61.5t-227 -21z" />
    <glyph glyph-name="omegatonos" unicode="&#x3ce;" horiz-adv-x="1890" 
d="M834 1270l161 375h297l-217 -375h-241zM1110 987v-487q4 -135 49 -190.5t133 -55.5q94 0 136 60t42 206q0 225 -161 496l260 160q117 -190 168 -355t51 -346q0 -131 -36 -229t-100 -155.5t-143.5 -85.5t-175.5 -28q-167 0 -257 69t-126 220q-34 -151 -124 -220t-257 -69
q-95 0 -175 28t-143.5 85.5t-99.5 155.5t-36 229q0 181 51 346t168 355l260 -160q-160 -269 -160 -496q0 -146 41.5 -206t134.5 -60q89 0 136 56t47 190v487h317z" />
    <glyph glyph-name="afii10023" unicode="&#x401;" horiz-adv-x="1406" 
d="M326 1610v278h290v-278h-290zM791 1610v278h288v-278h-288zM152 0v1518h1140v-304h-805v-294h785v-293h-785v-336h813v-291h-1148z" />
    <glyph glyph-name="afii10051" unicode="&#x402;" horiz-adv-x="1814" 
d="M1212 -346v244h27q70 0 88.5 27.5t18.5 121.5v436q0 51 -2.5 80.5t-13 65t-31.5 54t-60 31.5t-96 13q-80 0 -131.5 -17t-76.5 -54t-33.5 -78t-8.5 -105v-473h-338v1214h-526v304h1388v-304h-524v-288q96 104 364 104q103 0 178.5 -23t122.5 -63t75.5 -103t39 -132.5
t10.5 -161.5v-498q0 -120 -19.5 -194.5t-69.5 -120t-125.5 -63t-196.5 -17.5h-60z" />
    <glyph glyph-name="afii10052" unicode="&#x403;" horiz-adv-x="1265" 
d="M420 1599l289 375h387l-391 -375h-285zM152 0v1518h1083v-304h-748v-1214h-335z" />
    <glyph glyph-name="afii10053" unicode="&#x404;" horiz-adv-x="1550" 
d="M846 -23q-208 0 -357.5 51t-241 153t-134.5 244.5t-43 334.5q0 201 53.5 351.5t156 244.5t243.5 140t323 46q209 0 359 -54.5t257 -164.5l-229 -231q-146 143 -369 143q-382 0 -450 -317h743v-291h-751q27 -173 134 -262t306 -89q148 0 236.5 38.5t170.5 115.5l220 -217
q-51 -52 -103 -90.5t-126 -73.5t-174.5 -53.5t-223.5 -18.5z" />
    <glyph glyph-name="afii10054" unicode="&#x405;" horiz-adv-x="1517" 
d="M768 -23q-453 0 -723 199l168 242q241 -162 545 -162q146 0 223.5 20.5t103 58t25.5 105.5q0 31 -9.5 54.5t-33 41.5t-49 30t-72.5 23t-87.5 17.5t-108.5 16.5q-94 13 -162.5 26t-137 32t-114.5 43t-87.5 57.5t-65 76t-37 99t-13.5 126.5q0 248 152 353.5t481 105.5
q390 0 614 -149l-180 -260q-75 49 -197 82.5t-241 33.5q-173 0 -234 -35t-61 -122q0 -30 9.5 -53.5t33 -40.5t49 -29t74 -23t89 -18t112.5 -17q89 -13 149.5 -24t130 -29.5t114 -40t89 -55t69.5 -75.5t40.5 -100t15.5 -130q0 -119 -34.5 -205t-112 -149.5t-209 -94.5
t-318.5 -31z" />
    <glyph glyph-name="afii10055" unicode="&#x406;" horiz-adv-x="681" 
d="M174 0v1518h334v-1518h-334z" />
    <glyph glyph-name="afii10056" unicode="&#x407;" horiz-adv-x="681" 
d="M174 0v1518h334v-1518h-334zM-35 1610v278h291v-278h-291zM430 1610v278h289v-278h-289z" />
    <glyph glyph-name="afii10057" unicode="&#x408;" horiz-adv-x="931" 
d="M268 -4q-153 0 -223 4v291h182q128 0 178 46t50 155v1026h333v-1039q0 -112 -25.5 -197t-69.5 -139t-111 -87t-142.5 -46.5t-171.5 -13.5z" />
    <glyph glyph-name="afii10058" unicode="&#x409;" horiz-adv-x="2664" 
d="M84 4v287h39q70 0 91.5 24t21.5 95v1108h1351v-482h402q138 0 242 -23t173 -64.5t112 -105t61 -139t18 -172.5q0 -98 -17.5 -175.5t-60.5 -146t-113 -113.5t-179 -71t-253 -26h-710v1219h-691v-869q0 -101 -22 -170.5t-66 -109.5t-102.5 -57t-140.5 -17q-110 0 -156 8z
M1587 279h400q145 0 208.5 53.5t63.5 183.5q0 133 -62.5 184.5t-214.5 51.5h-395v-473z" />
    <glyph glyph-name="afii10059" unicode="&#x40a;" horiz-adv-x="2584" 
d="M152 0v1518h335v-582h695v582h325v-482h402q138 0 242 -23t173 -64.5t112 -105t61 -139t18 -172.5q0 -98 -17.5 -175.5t-60.5 -146t-113 -113.5t-179 -71t-253 -26h-710v623h-695v-623h-335zM1507 279h400q145 0 208.5 53.5t63.5 183.5q0 133 -62 184.5t-214 51.5h-396
v-473z" />
    <glyph glyph-name="afii10060" unicode="&#x40b;" horiz-adv-x="1814" 
d="M555 0v1214h-526v304h1388v-304h-524v-288q96 104 364 104q103 0 178.5 -23t122.5 -63t75.5 -103t39 -132.5t10.5 -161.5v-547h-337v483q0 51 -2.5 80.5t-13 65t-31.5 54t-60 31.5t-96 13q-80 0 -131.5 -17t-76.5 -54t-33.5 -78t-8.5 -105v-473h-338z" />
    <glyph glyph-name="afii10061" unicode="&#x40c;" horiz-adv-x="1556" 
d="M565 1599l289 375h387l-391 -375h-285zM1124 0l-485 672h-156v-672h-329v1518h329v-566h140l438 566h383l-543 -676l617 -842h-394z" />
    <glyph glyph-name="afii10062" unicode="&#x40e;" horiz-adv-x="1472" 
d="M453 -4q-103 0 -177 4v281h119q96 0 127 14.5t53 71.5l11 26l-563 1125h360l393 -805l354 805h340l-571 -1225q-43 -92 -77 -143.5t-85 -89t-116.5 -51t-167.5 -13.5zM735 1569q-111 0 -189.5 27.5t-127.5 83.5t-76.5 124t-46.5 166l231 43q12 -56 26 -90.5t37.5 -60
t58.5 -36.5t87 -11t87 11t58.5 36.5t37.5 60t26 90.5l234 -41q-16 -79 -36.5 -136.5t-54.5 -110t-80.5 -85.5t-114.5 -52t-157 -19z" />
    <glyph glyph-name="afii10145" unicode="&#x40f;" horiz-adv-x="1660" 
d="M664 -340v340h-512v1518h335v-1233h691v1233h331v-1518h-510v-340h-335z" />
    <glyph glyph-name="afii10017" unicode="&#x410;" horiz-adv-x="1615" 
d="M29 0l608 1528h340l612 -1528h-348l-98 250h-688l-99 -250h-327zM561 526h475l-237 604z" />
    <glyph glyph-name="afii10018" unicode="&#x411;" horiz-adv-x="1558" 
d="M152 0v1518h1146v-304h-827v-227h410q173 0 291.5 -30t187 -92.5t98 -148t29.5 -206.5q0 -98 -17.5 -173t-60.5 -140t-113 -107.5t-178.5 -66t-253.5 -23.5h-712zM471 276h408q149 0 210.5 44.5t61.5 171.5q0 68 -14.5 110t-50.5 65t-84 30.5t-128 7.5h-403v-429z" />
    <glyph glyph-name="afii10019" unicode="&#x412;" horiz-adv-x="1546" 
d="M152 0v1518h704q304 0 440 -92t136 -300q0 -263 -203 -335q131 -32 187.5 -120.5t56.5 -252.5q0 -122 -38.5 -204t-120 -129t-192 -66t-270.5 -19h-700zM481 279h410q130 0 186 39.5t56 132.5t-55.5 131.5t-186.5 38.5h-410v-342zM481 911h387q127 0 175.5 40.5
t48.5 125.5q0 82 -50 119t-174 37h-387v-322z" />
    <glyph glyph-name="afii10020" unicode="&#x413;" horiz-adv-x="1265" 
d="M152 0v1518h1083v-304h-748v-1214h-335z" />
    <glyph glyph-name="afii10021" unicode="&#x414;" horiz-adv-x="1837" 
d="M86 -340v631h45q71 0 94 24.5t23 94.5v1108h1354v-1227h149v-631h-338v340h-991v-340h-336zM545 283h719v936h-686v-822q0 -31 -1 -46.5t-9 -35.5t-23 -32z" />
    <glyph glyph-name="afii10022" unicode="&#x415;" horiz-adv-x="1406" 
d="M152 0v1518h1140v-304h-805v-294h785v-293h-785v-336h813v-291h-1148z" />
    <glyph glyph-name="afii10024" unicode="&#x416;" horiz-adv-x="2494" 
d="M2048 0l-483 670h-158v-670h-320v670h-157l-484 -670h-395l617 842l-543 676h385l436 -566h141v566h320v-566h141l437 566h385l-543 -676l616 -842h-395z" />
    <glyph glyph-name="afii10025" unicode="&#x417;" horiz-adv-x="1460" 
d="M719 -25q-429 0 -692 164l161 262q243 -137 517 -137q68 0 112 2t86.5 9.5t67.5 20.5t44.5 35t27.5 53.5t8 76.5q0 71 -31 109.5t-110.5 56.5t-227.5 18h-365v285h361q176 0 253 35t77 135q0 90 -70.5 119.5t-241.5 29.5q-116 0 -250.5 -29.5t-207.5 -74.5l-175 254
q110 67 295 105t369 38q142 0 251.5 -19t194 -60t129 -113t44.5 -172q0 -157 -41.5 -233.5t-143.5 -115.5q83 -30 129.5 -71t71 -117t24.5 -201q0 -108 -35.5 -190.5t-95 -134t-147 -83.5t-181.5 -44.5t-208 -12.5z" />
    <glyph glyph-name="afii10026" unicode="&#x418;" horiz-adv-x="1685" 
d="M152 0v1518h321v-957l698 957h361v-1518h-320v1024l-751 -1024h-309z" />
    <glyph glyph-name="afii10027" unicode="&#x419;" horiz-adv-x="1685" 
d="M152 0v1518h321v-957l698 957h361v-1518h-320v1024l-751 -1024h-309zM840 1569q-89 0 -157.5 19t-115 52t-80 85t-53.5 109.5t-35 135.5l232 43q12 -56 26 -90.5t37.5 -60t58.5 -36.5t87 -11t87 11t58.5 36.5t37.5 60t26 90.5l233 -41q-21 -99 -49 -167t-77.5 -124.5
t-127.5 -84t-188 -27.5z" />
    <glyph glyph-name="afii10028" unicode="&#x41a;" horiz-adv-x="1570" 
d="M1124 0l-485 672h-156v-672h-329v1518h329v-566h140l438 566h383l-543 -676l617 -842h-394z" />
    <glyph glyph-name="afii10029" unicode="&#x41b;" horiz-adv-x="1753" 
d="M86 4v287h41q69 0 91 24.5t22 94.5v1108h1362v-1518h-338v1219h-691v-869q0 -101 -22 -170.5t-66 -109.5t-102.5 -57t-140.5 -17q-106 0 -156 8z" />
    <glyph glyph-name="afii10030" unicode="&#x41c;" horiz-adv-x="2002" 
d="M152 0v1518h438l411 -1037l412 1037h436v-1518h-327v1014l-408 -1014h-254l-405 1008v-1008h-303z" />
    <glyph glyph-name="afii10031" unicode="&#x41d;" horiz-adv-x="1669" 
d="M152 0v1518h335v-582h695v582h336v-1518h-336v623h-695v-623h-335z" />
    <glyph glyph-name="afii10032" unicode="&#x41e;" horiz-adv-x="1746" 
d="M872 -25q-802 0 -802 785q0 782 802 782q805 0 805 -782q0 -785 -805 -785zM872 270q128 0 219 33t144.5 98t77.5 151.5t24 201.5t-24 201t-77.5 150t-144.5 97t-219 33t-219 -33t-144 -97t-77 -150t-24 -201t24 -201.5t77 -151.5t144 -98t219 -33z" />
    <glyph glyph-name="afii10033" unicode="&#x41f;" horiz-adv-x="1662" 
d="M152 0v1518h1357v-1518h-335v1219h-691v-1219h-331z" />
    <glyph glyph-name="afii10034" unicode="&#x420;" horiz-adv-x="1556" 
d="M152 0v1518h729q171 0 291 -35t188 -103.5t97.5 -158t29.5 -211.5q0 -98 -17 -176.5t-60.5 -149t-113 -117.5t-179 -74.5t-253.5 -27.5h-385v-465h-327zM479 752h400q144 0 208 55t64 186q0 134 -62.5 186t-214.5 52h-395v-479z" />
    <glyph glyph-name="afii10035" unicode="&#x421;" horiz-adv-x="1554" 
d="M850 -23q-210 0 -360.5 51t-242.5 153t-134.5 244.5t-42.5 334.5q0 399 206 590.5t594 191.5q202 0 344 -53.5t252 -165.5l-231 -231q-73 71 -160 107t-207 36q-239 0 -349.5 -119t-110.5 -360q0 -118 23.5 -204t76.5 -149.5t143 -95t219 -31.5q135 0 219 38.5t166 115.5
l222 -217q-51 -53 -102.5 -91t-125.5 -73t-174.5 -53.5t-224.5 -18.5z" />
    <glyph glyph-name="afii10036" unicode="&#x422;" horiz-adv-x="1445" 
d="M555 0v1214h-526v304h1388v-304h-524v-1214h-338z" />
    <glyph glyph-name="afii10037" unicode="&#x423;" horiz-adv-x="1472" 
d="M453 -4q-103 0 -177 4v281h119q96 0 127 14.5t53 71.5l11 26l-563 1125h360l393 -805l354 805h340l-571 -1225q-43 -92 -77 -143.5t-85 -89t-116.5 -51t-167.5 -13.5z" />
    <glyph glyph-name="afii10038" unicode="&#x424;" horiz-adv-x="1923" 
d="M795 0v96q-169 13 -300.5 58.5t-227.5 125t-146.5 201t-50.5 279.5t50.5 278.5t147 199.5t227.5 124t300 59v97h333v-97q344 -29 534.5 -191t190.5 -470q0 -158 -51 -279.5t-147.5 -200.5t-227 -124.5t-299.5 -59.5v-96h-333zM408 754q0 -148 90 -240.5t297 -118.5v717
q-207 -26 -297 -118t-90 -240zM1513 754q0 147 -90 239.5t-295 118.5v-717q205 26 295 119t90 240z" />
    <glyph glyph-name="afii10039" unicode="&#x425;" horiz-adv-x="1599" 
d="M1165 0l-381 547l-360 -547h-371l557 797l-499 721h376l326 -467l307 467h371l-506 -715l561 -803h-381z" />
    <glyph glyph-name="afii10040" unicode="&#x426;" horiz-adv-x="1751" 
d="M1327 -340v340h-1175v1518h335v-1233h691v1233h331v-1227h156v-631h-338z" />
    <glyph glyph-name="afii10041" unicode="&#x427;" horiz-adv-x="1601" 
d="M1114 0v514q-41 -44 -160.5 -76t-314.5 -32q-125 0 -218 24.5t-151.5 66.5t-94 107t-49 137t-13.5 164v613h333v-543q0 -67 11.5 -111t43 -80.5t94 -53.5t159.5 -17q90 0 155.5 14t104.5 37.5t61.5 60.5t30.5 75t8 89v529h334v-1518h-334z" />
    <glyph glyph-name="afii10042" unicode="&#x428;" horiz-adv-x="2478" 
d="M152 0v1536h335v-1251h584v1251h338v-1251h584v1251h331v-1536h-2172z" />
    <glyph glyph-name="afii10043" unicode="&#x429;" horiz-adv-x="2564" 
d="M2142 -340v340h-1990v1536h335v-1251h584v1251h338v-1251h584v1251h331v-1245h154v-631h-336z" />
    <glyph glyph-name="afii10044" unicode="&#x42a;" horiz-adv-x="1636" 
d="M231 0v1214h-151v304h479v-482h402q138 0 242 -23t173 -64.5t112 -105t61 -139t18 -172.5q0 -98 -17.5 -175.5t-60.5 -146t-113 -113.5t-179 -71t-253 -26h-713zM559 279h399q145 0 209 53.5t64 183.5q0 133 -62.5 184.5t-214.5 51.5h-395v-473z" />
    <glyph glyph-name="afii10045" unicode="&#x42b;" horiz-adv-x="2097" 
d="M152 0v1518h327v-482h402q138 0 242 -23t173 -64.5t112 -105t61 -139t18 -172.5q0 -98 -17.5 -175.5t-60.5 -146t-113 -113.5t-179 -71t-253 -26h-712zM479 279h400q145 0 208.5 53.5t63.5 183.5q0 133 -62.5 184.5t-214.5 51.5h-395v-473zM1610 0v1518h336v-1518h-336z
" />
    <glyph glyph-name="afii10046" unicode="&#x42c;" horiz-adv-x="1556" 
d="M152 0v1518h327v-482h402q138 0 242 -23t173 -64.5t112 -105t61 -139t18 -172.5q0 -98 -17.5 -175.5t-60.5 -146t-113 -113.5t-179 -71t-253 -26h-712zM479 279h400q145 0 208.5 53.5t63.5 183.5q0 133 -62.5 184.5t-214.5 51.5h-395v-473z" />
    <glyph glyph-name="afii10047" unicode="&#x42d;" horiz-adv-x="1550" 
d="M705 -23q-123 0 -223.5 18.5t-174.5 53.5t-126 73.5t-103 90.5l221 217q82 -77 170 -115.5t236 -38.5q387 0 438 351h-750v291h744q-71 317 -451 317q-221 0 -367 -143l-231 231q109 111 258.5 165t358.5 54q371 0 573.5 -192.5t202.5 -589.5q0 -192 -42.5 -334.5
t-134 -244.5t-241 -153t-358.5 -51z" />
    <glyph glyph-name="afii10048" unicode="&#x42e;" horiz-adv-x="2398" 
d="M152 0v1518h335v-592h261q20 164 82.5 283t164 191.5t232.5 107t297 34.5q805 0 805 -782q0 -785 -805 -785q-171 0 -304 36t-235.5 112.5t-163.5 203t-78 300.5h-256v-627h-335zM1524 270q128 0 219 33t144.5 98t77.5 151.5t24 201.5t-24 201t-77.5 150t-144.5 97
t-219 33t-219 -33t-144.5 -97t-77.5 -150t-24 -201t24 -201.5t77.5 -151.5t144.5 -98t219 -33z" />
    <glyph glyph-name="afii10049" unicode="&#x42f;" horiz-adv-x="1581" 
d="M121 0l303 541q-322 101 -322 481q0 92 15.5 164t56 136t106.5 106t170.5 66t245.5 24h731v-1518h-327v504h-340l-279 -504h-360zM705 793h395v438h-391q-146 0 -207.5 -46.5t-61.5 -174.5q0 -124 62 -170.5t203 -46.5z" />
    <glyph glyph-name="afii10065" unicode="&#x430;" horiz-adv-x="1320" 
d="M487 -18q-105 0 -182.5 18t-125.5 49t-77.5 78t-40 97.5t-10.5 115.5q0 98 29 168t84 116t148 73t207.5 37.5t275.5 10.5h47q-1 34 -5.5 56.5t-18.5 43.5t-39 32.5t-66 18.5t-101 7q-96 0 -185 -28t-151 -66l-159 235q78 52 222 97t308 45q126 0 213 -17t144.5 -50
t89.5 -91t44.5 -128.5t12.5 -174.5v-352q0 -71 15.5 -89t84.5 -18v-262q-31 -8 -135 -8q-93 0 -140.5 24t-80.5 91q-95 -129 -408 -129zM551 240q153 0 222 57t69 184v43h-27q-126 0 -205.5 -5t-132.5 -14t-78 -29t-34 -44t-9 -65q0 -66 44 -96.5t151 -30.5z" />
    <glyph glyph-name="afii10066" unicode="&#x431;" horiz-adv-x="1355" 
d="M680 -23q-311 0 -459.5 153t-148.5 497v180q0 182 25 313t75 222t132.5 145t190.5 78t257 24h209v-284h-193q-194 0 -283.5 -72.5t-89.5 -243.5q84 133 381 133q126 0 219 -31.5t147.5 -82.5t87 -129t43.5 -157t11 -181q0 -130 -33 -230.5t-103.5 -176.5t-188.5 -116.5
t-279 -40.5zM680 252q150 0 215.5 76.5t65.5 220.5t-65 216.5t-216 72.5q-154 0 -219.5 -72.5t-65.5 -216.5t66 -220.5t219 -76.5z" />
    <glyph glyph-name="afii10067" unicode="&#x432;" horiz-adv-x="1333" 
d="M127 0v1159h594q259 0 375 -62.5t116 -222.5q0 -218 -153 -270q101 -24 142.5 -91t41.5 -194q0 -77 -21.5 -133t-61.5 -92t-106.5 -57t-146 -29t-190.5 -8h-590zM430 242h320q100 0 140 24t40 92q0 65 -41 89t-141 24h-318v-229zM430 700h299q99 0 135.5 24.5t36.5 82.5
t-36.5 79t-135.5 21h-299v-207z" />
    <glyph glyph-name="afii10068" unicode="&#x433;" horiz-adv-x="1110" 
d="M127 0v1159h938v-274h-616v-885h-322z" />
    <glyph glyph-name="afii10069" unicode="&#x434;" horiz-adv-x="1587" 
d="M84 -340v608h39q70 0 91.5 24.5t21.5 96.5v770h1116v-891h151v-608h-299v340h-819v-340h-301zM524 252h512v639h-479v-524q0 -85 -33 -115z" />
    <glyph glyph-name="afii10070" unicode="&#x435;" horiz-adv-x="1267" 
d="M676 -23q-123 0 -219 21.5t-161 62.5t-110 94t-69.5 124t-34.5 143t-10 160q0 104 14.5 188t55 164t106 133.5t174 86t252.5 32.5q107 0 190 -20t137.5 -56.5t93 -88t57 -114t29.5 -135t10 -151.5t-1 -162h-807q14 -111 79.5 -166t213.5 -55q125 0 209 27t155 79
l162 -209q-113 -85 -234 -121.5t-292 -36.5zM664 918q-142 0 -205 -58t-76 -172h514q-3 57 -12 93t-32.5 70.5t-70 50.5t-118.5 16z" />
    <glyph glyph-name="afii10072" unicode="&#x436;" horiz-adv-x="1923" 
d="M1536 0l-319 479h-105v-479h-301v479h-104l-320 -479h-373l445 631l-410 528h367l297 -405h98v405h301v-405h98l297 405h367l-412 -530l447 -629h-373z" />
    <glyph glyph-name="afii10073" unicode="&#x437;" horiz-adv-x="1245" 
d="M598 -25q-368 0 -573 127l137 232q182 -101 393 -101q70 0 109.5 2t75.5 9t52.5 21.5t25.5 37.5t9 59q0 31 -7.5 50.5t-24 33.5t-51.5 20.5t-81.5 9.5t-123.5 3h-263v248h259q163 0 210.5 16t47.5 86q0 63 -50 80t-194 17q-89 0 -188 -22t-156 -54l-154 223
q87 52 246 82.5t307 30.5q261 0 389.5 -64t128.5 -219q0 -119 -36 -179t-115 -89q98 -25 140 -92t42 -209q0 -85 -26.5 -148t-72.5 -103t-117 -64.5t-152 -34t-187 -9.5z" />
    <glyph glyph-name="afii10074" unicode="&#x438;" horiz-adv-x="1380" 
d="M127 0v1159h313v-651l469 651h344v-1159h-313v723l-522 -723h-291z" />
    <glyph glyph-name="afii10075" unicode="&#x439;" horiz-adv-x="1380" 
d="M127 0v1159h313v-651l469 651h344v-1159h-313v723l-522 -723h-291zM688 1239q-111 0 -189.5 27.5t-127.5 83.5t-76.5 124t-46.5 166l231 43q12 -56 26 -90.5t37.5 -60t58.5 -36.5t87 -11t87 11t58.5 36.5t37.5 60t26 90.5l233 -41q-21 -99 -49 -167t-77.5 -124.5
t-127.5 -84t-188 -27.5z" />
    <glyph glyph-name="afii10076" unicode="&#x43a;" horiz-adv-x="1255" 
d="M444 1159v-405h101l295 405h368l-411 -530l446 -629h-375l-319 479h-105v-479h-317v1159h317z" />
    <glyph glyph-name="afii10077" unicode="&#x43b;" horiz-adv-x="1482" 
d="M84 4v264h39q71 0 95 25t24 96v770h1114v-1159h-320v891h-479v-541q0 -102 -19.5 -171t-61 -109t-98.5 -57t-138 -17q-110 0 -156 8z" />
    <glyph glyph-name="afii10078" unicode="&#x43c;" horiz-adv-x="1683" 
d="M127 0v1159h405l316 -756l315 756h402v-1159h-320v692l-278 -692h-262l-277 694v-694h-301z" />
    <glyph glyph-name="afii10079" unicode="&#x43d;" horiz-adv-x="1374" 
d="M127 0v1159h322v-416h477v416h321v-1159h-321v455h-477v-455h-322z" />
    <glyph glyph-name="afii10080" unicode="&#x43e;" horiz-adv-x="1353" 
d="M678 -23q-318 0 -462 152t-144 453t143.5 452.5t462.5 151.5q318 0 461 -151.5t143 -452.5t-143 -453t-461 -152zM678 252q157 0 220 81t63 240t-63 239.5t-220 80.5q-158 0 -220.5 -80.5t-62.5 -239.5q0 -78 13 -134t44.5 -99.5t87.5 -65.5t138 -22z" />
    <glyph glyph-name="afii10081" unicode="&#x43f;" horiz-adv-x="1370" 
d="M127 0v1159h1116v-1159h-321v891h-478v-891h-317z" />
    <glyph glyph-name="afii10082" unicode="&#x440;" horiz-adv-x="1394" 
d="M127 -338v1479l250 18l26 -102q106 129 424 129q116 0 204 -31.5t142.5 -84.5t89 -132t47.5 -164.5t13 -191.5t-14 -191.5t-49.5 -163.5t-92.5 -130.5t-147.5 -83.5t-210.5 -31q-150 0 -234 27t-126 81v-428h-322zM745 254q75 0 126 22.5t78 67t37.5 98t10.5 127.5
q0 76 -10 130t-36.5 100.5t-77.5 70t-128 23.5q-162 0 -229 -76.5t-67 -247.5t63 -243t233 -72z" />
    <glyph glyph-name="afii10083" unicode="&#x441;" horiz-adv-x="1202" 
d="M666 -18q-140 0 -245.5 30.5t-171 82t-106 130t-56 164t-15.5 193.5q0 89 10.5 162t35.5 143.5t70.5 123t111.5 93t162 61.5t218 21q303 0 471 -189l-225 -213q-47 49 -102.5 78t-143.5 29q-84 0 -141 -22t-88 -65.5t-43.5 -98.5t-12.5 -132q0 -78 12 -132.5t42.5 -99.5
t88.5 -67t144 -22q80 0 139.5 26.5t122.5 86.5l205 -197q-108 -100 -212 -143t-271 -43z" />
    <glyph glyph-name="afii10084" unicode="&#x442;" horiz-adv-x="1218" 
d="M449 0v885h-402v274h1124v-274h-401v-885h-321z" />
    <glyph glyph-name="afii10085" unicode="&#x443;" horiz-adv-x="1196" 
d="M274 -348q-44 0 -114 4v242h86q95 0 130 17t50 69l14 43l-442 1132h346l268 -737l260 737h326l-465 -1210q-42 -112 -93.5 -174t-138.5 -92.5t-227 -30.5z" />
    <glyph glyph-name="afii10086" unicode="&#x444;" horiz-adv-x="2197" 
d="M946 -338v430q-109 -112 -371 -112q-117 0 -205.5 31.5t-144.5 85t-91 132.5t-48.5 165t-13.5 192q0 105 14 190.5t50 163.5t93.5 131t147.5 84t209 31q272 0 360 -109v512h303v-514q95 111 381 111q116 0 204 -31.5t142.5 -84.5t89 -132t47.5 -164.5t13 -191.5
t-14 -191.5t-49.5 -163.5t-92.5 -130.5t-147.5 -83.5t-210.5 -31q-150 0 -234.5 27t-126.5 81v-428h-305zM651 254q161 0 228 80t67 252q0 170 -62.5 240.5t-232.5 70.5q-77 0 -128.5 -22t-78 -65.5t-37 -96t-10.5 -127.5q0 -60 6 -106.5t23 -90.5t44.5 -72.5t73 -45.5
t107.5 -17zM1548 254q75 0 126 22.5t78 67t37.5 98t10.5 127.5q0 76 -10 130t-36.5 100.5t-77.5 70t-128 23.5q-163 0 -230 -76.5t-67 -247.5t63.5 -243t233.5 -72z" />
    <glyph glyph-name="afii10087" unicode="&#x445;" horiz-adv-x="1226" 
d="M856 0l-260 373l-248 -373h-338l424 606l-385 553h359l223 -321l211 321h338l-385 -555l422 -604h-361z" />
    <glyph glyph-name="afii10088" unicode="&#x446;" horiz-adv-x="1478" 
d="M1094 -340v340h-967v1159h322v-899h477v899h317v-891h152v-608h-301z" />
    <glyph glyph-name="afii10089" unicode="&#x447;" horiz-adv-x="1343" 
d="M897 0v383q-40 -52 -135.5 -87.5t-247.5 -35.5q-102 0 -177 23t-121.5 63t-74 103t-37.5 132t-10 162v416h322v-352q0 -48 3.5 -80t16 -66t35.5 -53.5t63 -32t97 -12.5q81 0 135 18t81 54.5t37.5 79.5t10.5 106v338h322v-1159h-320z" />
    <glyph glyph-name="afii10090" unicode="&#x448;" horiz-adv-x="2105" 
d="M127 0v1159h322v-899h446v899h322v-899h444v899h315v-1159h-1849z" />
    <glyph glyph-name="afii10091" unicode="&#x449;" horiz-adv-x="2213" 
d="M1829 -340v340h-1702v1159h322v-899h446v899h322v-899h444v899h315v-891h154v-608h-301z" />
    <glyph glyph-name="afii10092" unicode="&#x44a;" horiz-adv-x="1429" 
d="M236 0v885h-152v274h471v-282h326q131 0 223.5 -31t145 -90.5t75.5 -133.5t23 -171q0 -451 -482 -451h-630zM555 248h260q109 0 158 44.5t49 145.5q0 104 -47 146.5t-160 42.5h-260v-379z" />
    <glyph glyph-name="afii10093" unicode="&#x44b;" horiz-adv-x="1773" 
d="M127 0v1159h317v-282h328q131 0 223.5 -31t145 -90.5t75.5 -133.5t23 -171q0 -451 -481 -451h-631zM444 248h263q109 0 157.5 44.5t48.5 145.5q0 104 -47.5 146.5t-160.5 42.5h-261v-379zM1325 0v1159h322v-1159h-322z" />
    <glyph glyph-name="afii10094" unicode="&#x44c;" horiz-adv-x="1320" 
d="M127 0v1159h317v-282h328q131 0 223.5 -31t145 -90.5t75.5 -133.5t23 -171q0 -451 -481 -451h-631zM444 248h263q109 0 157.5 44.5t48.5 145.5q0 104 -47.5 146.5t-160.5 42.5h-261v-379z" />
    <glyph glyph-name="afii10095" unicode="&#x44d;" horiz-adv-x="1202" 
d="M537 -18q-167 0 -274 43.5t-214 142.5l199 190q60 -58 125 -82t151 -24q136 0 199.5 47t81.5 154h-502v243h502q-19 110 -84 160.5t-199 50.5q-140 0 -252 -121l-217 211q165 189 475 189q121 0 216 -20.5t160 -61t110 -92.5t70 -122.5t35.5 -144t10.5 -163.5
q0 -109 -15.5 -195t-55.5 -164t-106 -129.5t-171 -81.5t-245 -30z" />
    <glyph glyph-name="afii10096" unicode="&#x44e;" horiz-adv-x="1853" 
d="M127 0v1159h322v-424h145q30 226 168.5 338.5t413.5 112.5q319 0 462.5 -151t143.5 -453t-143.5 -453.5t-462.5 -151.5q-284 0 -422 121t-162 363h-143v-461h-322zM1176 252q159 0 220.5 79.5t61.5 241.5t-61.5 241t-220.5 79q-158 0 -219.5 -79.5t-61.5 -240.5
t61.5 -241t219.5 -80z" />
    <glyph glyph-name="afii10097" unicode="&#x44f;" horiz-adv-x="1366" 
d="M113 0l209 377q-224 88 -224 373q0 206 117.5 307.5t370.5 101.5h653v-1159h-319v334h-279l-184 -334h-344zM598 592h322v301h-318q-93 0 -134.5 -33t-41.5 -119t40.5 -117.5t131.5 -31.5z" />
    <glyph glyph-name="afii10071" unicode="&#x451;" horiz-adv-x="1267" 
d="M256 1280v279h291v-279h-291zM721 1280v279h289v-279h-289zM676 -23q-123 0 -219 21.5t-161 62.5t-110 94t-69.5 124t-34.5 143t-10 160q0 104 14.5 188t55 164t106 133.5t174 86t252.5 32.5q107 0 190 -20t137.5 -56.5t93 -88t57 -114t29.5 -135t10 -151.5t-1 -162h-807
q14 -111 79.5 -166t213.5 -55q125 0 209 27t155 79l162 -209q-113 -85 -234 -121.5t-292 -36.5zM664 918q-142 0 -205 -58t-76 -172h514q-3 57 -12 93t-32.5 70.5t-70 50.5t-118.5 16z" />
    <glyph glyph-name="afii10099" unicode="&#x452;" horiz-adv-x="1366" 
d="M-4 1198v275h137v116h320v-116h241v-275h-241v-164q97 105 376 105q102 0 176.5 -23.5t120.5 -63t73 -103t36.5 -132.5t9.5 -162v-678q0 -186 -87 -254.5t-306 -68.5h-61v244h26q65 0 85 23.5t22 94.5v576q0 49 -3 80.5t-15 66t-34.5 54t-62 32.5t-96.5 13
q-81 0 -134 -18t-80 -55t-36.5 -80.5t-9.5 -106.5v-578h-320v1198h-137z" />
    <glyph glyph-name="afii10100" unicode="&#x453;" horiz-adv-x="1110" 
d="M346 1270l289 375h387l-391 -375h-285zM127 0v1159h938v-274h-616v-885h-322z" />
    <glyph glyph-name="afii10101" unicode="&#x454;" horiz-adv-x="1202" 
d="M666 -18q-140 0 -245.5 30t-171 81.5t-106 129.5t-56 164t-15.5 195t15 194t55.5 164.5t107 131.5t175.5 83t255 31q306 0 471 -189l-219 -211q-107 121 -252 121q-135 0 -200 -50.5t-83 -160.5h502v-243h-502q18 -108 82 -154.5t203 -46.5q83 0 145 24t123 82l199 -190
q-108 -100 -212 -143t-271 -43z" />
    <glyph glyph-name="afii10102" unicode="&#x455;" horiz-adv-x="1173" 
d="M573 -18q-335 0 -553 145l164 235q89 -57 199 -88.5t211 -31.5q124 0 166.5 18.5t42.5 77.5q0 49 -40.5 67.5t-164.5 34.5q-57 8 -93.5 13.5t-85.5 15.5t-80.5 20.5t-69 26.5t-61.5 35.5t-48 46.5t-37.5 59t-22 74t-8.5 92q0 182 119 272.5t387 90.5q142 0 270 -27.5
t219 -79.5l-153 -250q-64 33 -152.5 54.5t-173.5 21.5q-116 0 -156 -19.5t-40 -64.5q0 -48 36.5 -66t153.5 -34q79 -11 122.5 -18t107 -21.5t98 -30.5t76 -43t61.5 -60.5t34.5 -82t14.5 -109.5q0 -201 -123 -287.5t-420 -86.5z" />
    <glyph glyph-name="afii10103" unicode="&#x456;" horiz-adv-x="600" 
d="M139 0v1159h320v-1159h-320zM137 1266v293h324v-293h-324z" />
    <glyph glyph-name="afii10104" unicode="&#x457;" horiz-adv-x="600" 
d="M-33 1280v279h258v-279h-258zM375 1280v279h258v-279h-258zM139 0v1159h320v-1159h-320z" />
    <glyph glyph-name="afii10105" unicode="&#x458;" horiz-adv-x="600" 
d="M6 -346v244h25q71 0 89.5 27.5t18.5 121.5v1112h320v-1110q0 -121 -17 -194.5t-63 -120t-119 -63.5t-194 -17h-60zM137 1266v293h324v-293h-324z" />
    <glyph glyph-name="afii10106" unicode="&#x459;" horiz-adv-x="2217" 
d="M84 4v264h39q71 0 95 25t24 96v770h1101v-282h326q131 0 223.5 -31t145 -90.5t75.5 -133.5t23 -171q0 -451 -481 -451h-623v891h-475v-541q0 -102 -19.5 -171t-61 -109t-98.5 -57t-138 -17q-110 0 -156 8zM1343 248h261q108 0 157 44.5t49 145.5q0 104 -47.5 146.5
t-160.5 42.5h-259v-379z" />
    <glyph glyph-name="afii10107" unicode="&#x45a;" horiz-adv-x="2109" 
d="M127 0v1159h322v-416h475v416h311v-282h326q130 0 222 -31t144 -90.5t75 -133.5t23 -171q0 -451 -479 -451h-622v455h-475v-455h-322zM1235 248h260q108 0 156.5 44.5t48.5 145.5q0 104 -47 146.5t-160 42.5h-258v-379z" />
    <glyph glyph-name="afii10108" unicode="&#x45b;" horiz-adv-x="1366" 
d="M-4 1198v275h137v116h320v-116h241v-275h-241v-164q97 105 376 105q102 0 176.5 -23.5t120.5 -63t73 -103t36.5 -132.5t9.5 -162v-655h-321v592q0 49 -3 80.5t-15 66t-34.5 54t-62 32.5t-96.5 13q-81 0 -134 -18t-80 -55t-36.5 -80.5t-9.5 -106.5v-578h-320v1198h-137z
" />
    <glyph glyph-name="afii10109" unicode="&#x45c;" horiz-adv-x="1257" 
d="M444 1159v-405h101l295 405h368l-411 -530l446 -629h-375l-319 479h-105v-479h-317v1159h317zM449 1270l288 375h387l-391 -375h-284z" />
    <glyph glyph-name="afii10110" unicode="&#x45e;" horiz-adv-x="1196" 
d="M274 -348q-44 0 -114 4v242h86q95 0 130 17t50 69l14 43l-442 1132h346l268 -737l260 737h326l-465 -1210q-42 -112 -93.5 -174t-138.5 -92.5t-227 -30.5zM600 1239q-111 0 -189.5 27.5t-127.5 83.5t-76.5 124t-46.5 166l231 43q12 -56 26 -90.5t37.5 -60t58.5 -36.5
t87 -11t87 11t58.5 36.5t37.5 60t26 90.5l233 -41q-21 -99 -49 -167t-77.5 -124.5t-127.5 -84t-188 -27.5z" />
    <glyph glyph-name="afii10193" unicode="&#x45f;" horiz-adv-x="1370" 
d="M535 -340v340h-408v1159h322v-899h477v899h317v-1159h-407v-340h-301z" />
    <glyph glyph-name="afii10050" unicode="&#x490;" horiz-adv-x="1265" 
d="M152 0v1518h747v340h336v-644h-748v-1214h-335z" />
    <glyph glyph-name="afii10098" unicode="&#x491;" horiz-adv-x="1110" 
d="M127 0v1159h637v342h301v-616h-616v-885h-322z" />
    <glyph glyph-name="Wgrave" unicode="&#x1e80;" horiz-adv-x="2215" 
d="M502 -10l-463 1528h350l283 -975l295 975h303l297 -975l282 975h328l-461 -1528h-297l-311 1020l-311 -1020h-295zM1042 1599l-391 375h387l289 -375h-285z" />
    <glyph glyph-name="wgrave" unicode="&#x1e81;" horiz-adv-x="1884" 
d="M397 -12l-379 1171h338l213 -706l222 706h317l221 -704l213 704h324l-377 -1171h-307l-240 745l-240 -745h-305zM866 1270l-391 375h387l289 -375h-285z" />
    <glyph glyph-name="Wacute" unicode="&#x1e82;" horiz-adv-x="2215" 
d="M905 1599l289 375h387l-391 -375h-285zM502 -10l-463 1528h350l283 -975l295 975h303l297 -975l282 975h328l-461 -1528h-297l-311 1020l-311 -1020h-295z" />
    <glyph glyph-name="wacute" unicode="&#x1e83;" horiz-adv-x="1884" 
d="M729 1270l289 375h387l-391 -375h-285zM397 -12l-379 1171h338l213 -706l222 706h317l221 -704l213 704h324l-377 -1171h-307l-240 745l-240 -745h-305z" />
    <glyph glyph-name="Wdieresis" unicode="&#x1e84;" horiz-adv-x="2215" 
d="M731 1610v278h291v-278h-291zM1196 1610v278h289v-278h-289zM502 -10l-463 1528h350l283 -975l295 975h303l297 -975l282 975h328l-461 -1528h-297l-311 1020l-311 -1020h-295z" />
    <glyph glyph-name="wdieresis" unicode="&#x1e85;" horiz-adv-x="1884" 
d="M563 1280v279h291v-279h-291zM1028 1280v279h289v-279h-289zM397 -12l-379 1171h338l213 -706l222 706h317l221 -704l213 704h324l-377 -1171h-307l-240 745l-240 -745h-305z" />
    <glyph glyph-name="uni1EA0" unicode="&#x1ea0;" horiz-adv-x="1615" 
d="M29 0l608 1528h340l612 -1528h-348l-98 250h-688l-99 -250h-327zM561 526h475l-237 604zM643 -403v284h326v-284h-326z" />
    <glyph glyph-name="uni1EA1" unicode="&#x1ea1;" horiz-adv-x="1320" 
d="M487 -18q-105 0 -182.5 18t-125.5 49t-77.5 78t-40 97.5t-10.5 115.5q0 98 29 168t84 116t148 73t207.5 37.5t275.5 10.5h47q-1 34 -5.5 56.5t-18.5 43.5t-39 32.5t-66 18.5t-101 7q-96 0 -185 -28t-151 -66l-159 235q78 52 222 97t308 45q126 0 213 -17t144.5 -50
t89.5 -91t44.5 -128.5t12.5 -174.5v-352q0 -71 15.5 -89t84.5 -18v-262q-31 -8 -135 -8q-93 0 -140.5 24t-80.5 91q-95 -129 -408 -129zM551 240q153 0 222 57t69 184v43h-27q-126 0 -205.5 -5t-132.5 -14t-78 -29t-34 -44t-9 -65q0 -66 44 -96.5t151 -30.5zM494 -403v284
h325v-284h-325z" />
    <glyph glyph-name="uni1EA2" unicode="&#x1ea2;" horiz-adv-x="1615" 
d="M29 0l608 1528h340l612 -1528h-348l-98 250h-688l-99 -250h-327zM561 526h475l-237 604zM702 1585q-14 76 9.5 129.5t99.5 97.5q55 32 70.5 47t15.5 37q0 54 -98 54q-105 0 -189 -41l-90 182q110 55 293 55q154 0 240 -58t86 -151q0 -81 -31 -127.5t-96 -83.5
q-57 -34 -77 -63t-20 -78h-213z" />
    <glyph glyph-name="uni1EA3" unicode="&#x1ea3;" horiz-adv-x="1320" 
d="M487 -18q-105 0 -182.5 18t-125.5 49t-77.5 78t-40 97.5t-10.5 115.5q0 98 29 168t84 116t148 73t207.5 37.5t275.5 10.5h47q-1 34 -5.5 56.5t-18.5 43.5t-39 32.5t-66 18.5t-101 7q-96 0 -185 -28t-151 -66l-159 235q78 52 222 97t308 45q126 0 213 -17t144.5 -50
t89.5 -91t44.5 -128.5t12.5 -174.5v-352q0 -71 15.5 -89t84.5 -18v-262q-31 -8 -135 -8q-93 0 -140.5 24t-80.5 91q-95 -129 -408 -129zM551 240q153 0 222 57t69 184v43h-27q-126 0 -205.5 -5t-132.5 -14t-78 -29t-34 -44t-9 -65q0 -66 44 -96.5t151 -30.5zM543 1262
q-14 76 9 129.5t99 97.5q55 32 70.5 47t15.5 37q0 53 -98 53q-104 0 -188 -41l-91 182q112 56 293 56q154 0 240 -58t86 -151q0 -81 -31 -127.5t-96 -83.5q-57 -34 -76.5 -62.5t-19.5 -78.5h-213z" />
    <glyph glyph-name="uni1EA4" unicode="&#x1ea4;" horiz-adv-x="1615" 
d="M29 0l608 1528h340l612 -1528h-348l-98 250h-688l-99 -250h-327zM561 526h475l-237 604zM55 1808l289 377h387l-391 -377h-285zM322 1599l317 375h332l317 -375h-301l-184 177l-187 -177h-294z" />
    <glyph glyph-name="uni1EA5" unicode="&#x1ea5;" horiz-adv-x="1320" 
d="M487 -18q-105 0 -182.5 18t-125.5 49t-77.5 78t-40 97.5t-10.5 115.5q0 98 29 168t84 116t148 73t207.5 37.5t275.5 10.5h47q-1 34 -5.5 56.5t-18.5 43.5t-39 32.5t-66 18.5t-101 7q-96 0 -185 -28t-151 -66l-159 235q78 52 222 97t308 45q126 0 213 -17t144.5 -50
t89.5 -91t44.5 -128.5t12.5 -174.5v-352q0 -71 15.5 -89t84.5 -18v-262q-31 -8 -135 -8q-93 0 -140.5 24t-80.5 91q-95 -129 -408 -129zM551 240q153 0 222 57t69 184v43h-27q-126 0 -205.5 -5t-132.5 -14t-78 -29t-34 -44t-9 -65q0 -66 44 -96.5t151 -30.5zM-90 1479
l289 376h387l-391 -376h-285zM176 1270l318 375h331l318 -375h-301l-185 176l-186 -176h-295z" />
    <glyph glyph-name="uni1EA6" unicode="&#x1ea6;" horiz-adv-x="1615" 
d="M29 0l608 1528h340l612 -1528h-348l-98 250h-688l-99 -250h-327zM561 526h475l-237 604zM1272 1808l-389 377h385l288 -377h-284zM322 1599l317 375h332l317 -375h-301l-186 177l-185 -177h-294z" />
    <glyph glyph-name="uni1EA7" unicode="&#x1ea7;" horiz-adv-x="1320" 
d="M487 -18q-105 0 -182.5 18t-125.5 49t-77.5 78t-40 97.5t-10.5 115.5q0 98 29 168t84 116t148 73t207.5 37.5t275.5 10.5h47q-1 34 -5.5 56.5t-18.5 43.5t-39 32.5t-66 18.5t-101 7q-96 0 -185 -28t-151 -66l-159 235q78 52 222 97t308 45q126 0 213 -17t144.5 -50
t89.5 -91t44.5 -128.5t12.5 -174.5v-352q0 -71 15.5 -89t84.5 -18v-262q-31 -8 -135 -8q-93 0 -140.5 24t-80.5 91q-95 -129 -408 -129zM551 240q153 0 222 57t69 184v43h-27q-126 0 -205.5 -5t-132.5 -14t-78 -29t-34 -44t-9 -65q0 -66 44 -96.5t151 -30.5zM1128 1479
l-389 376h385l289 -376h-285zM178 1270l318 375h331l318 -375h-301l-187 176l-184 -176h-295z" />
    <glyph glyph-name="uni1EA8" unicode="&#x1ea8;" horiz-adv-x="1615" 
d="M29 0l608 1528h340l612 -1528h-348l-98 250h-688l-99 -250h-327zM561 526h475l-237 604zM700 2032q-13 76 11 129.5t100 97.5q55 34 69.5 48t14.5 36q0 55 -98 55q-103 0 -187 -43l-92 185q119 55 295 55q155 0 240.5 -58t85.5 -153q0 -81 -31.5 -126.5t-97.5 -82.5
q-57 -34 -77 -63.5t-18 -79.5h-215zM322 1599l317 375h332l317 -375h-301l-186 177l-185 -177h-294z" />
    <glyph glyph-name="uni1EA9" unicode="&#x1ea9;" horiz-adv-x="1320" 
d="M487 -18q-105 0 -182.5 18t-125.5 49t-77.5 78t-40 97.5t-10.5 115.5q0 98 29 168t84 116t148 73t207.5 37.5t275.5 10.5h47q-1 34 -5.5 56.5t-18.5 43.5t-39 32.5t-66 18.5t-101 7q-96 0 -185 -28t-151 -66l-159 235q78 52 222 97t308 45q126 0 213 -17t144.5 -50
t89.5 -91t44.5 -128.5t12.5 -174.5v-352q0 -71 15.5 -89t84.5 -18v-262q-31 -8 -135 -8q-93 0 -140.5 24t-80.5 91q-95 -129 -408 -129zM551 240q153 0 222 57t69 184v43h-27q-126 0 -205.5 -5t-132.5 -14t-78 -29t-34 -44t-9 -65q0 -66 44 -96.5t151 -30.5zM555 1702
q-13 76 11 129.5t100 97.5q55 34 69.5 48t14.5 36q0 55 -99 55q-102 0 -186 -43l-92 185q119 55 295 55q154 0 239.5 -58t85.5 -153q0 -81 -31.5 -126.5t-97.5 -82.5q-57 -34 -76.5 -63.5t-17.5 -79.5h-215zM176 1270l318 375h331l318 -375h-301l-187 176l-184 -176h-295z
" />
    <glyph glyph-name="uni1EAA" unicode="&#x1eaa;" horiz-adv-x="1615" 
d="M29 0l608 1528h340l612 -1528h-348l-98 250h-688l-99 -250h-327zM561 526h475l-237 604zM500 2021l-181 146q179 221 347 221q47 0 90 -17t69 -37.5t59 -37.5t64 -17q71 0 172 121l178 -147q-183 -223 -346 -223q-45 0 -87 17t-68 38t-59.5 38t-65.5 17q-78 0 -172 -119z
M322 1599l317 375h332l317 -375h-301l-186 177l-185 -177h-294z" />
    <glyph glyph-name="uni1EAB" unicode="&#x1eab;" horiz-adv-x="1320" 
d="M487 -18q-105 0 -182.5 18t-125.5 49t-77.5 78t-40 97.5t-10.5 115.5q0 98 29 168t84 116t148 73t207.5 37.5t275.5 10.5h47q-1 34 -5.5 56.5t-18.5 43.5t-39 32.5t-66 18.5t-101 7q-96 0 -185 -28t-151 -66l-159 235q78 52 222 97t308 45q126 0 213 -17t144.5 -50
t89.5 -91t44.5 -128.5t12.5 -174.5v-352q0 -71 15.5 -89t84.5 -18v-262q-31 -8 -135 -8q-93 0 -140.5 24t-80.5 91q-95 -129 -408 -129zM551 240q153 0 222 57t69 184v43h-27q-126 0 -205.5 -5t-132.5 -14t-78 -29t-34 -44t-9 -65q0 -66 44 -96.5t151 -30.5zM356 1692
l-180 145q179 221 346 221q47 0 90 -17t69 -37t59.5 -37t64.5 -17q71 0 172 121l178 -148q-183 -223 -346 -223q-45 0 -87 17t-68 38t-60 38t-66 17q-79 0 -172 -118zM178 1270l318 375h331l318 -375h-301l-187 176l-184 -176h-295z" />
    <glyph glyph-name="uni1EAC" unicode="&#x1eac;" horiz-adv-x="1615" 
d="M29 0l608 1528h340l612 -1528h-348l-98 250h-688l-99 -250h-327zM561 526h475l-237 604zM322 1599l317 375h332l317 -375h-301l-186 177l-185 -177h-294zM643 -403v284h326v-284h-326z" />
    <glyph glyph-name="uni1EAD" unicode="&#x1ead;" horiz-adv-x="1320" 
d="M487 -18q-105 0 -182.5 18t-125.5 49t-77.5 78t-40 97.5t-10.5 115.5q0 98 29 168t84 116t148 73t207.5 37.5t275.5 10.5h47q-1 34 -5.5 56.5t-18.5 43.5t-39 32.5t-66 18.5t-101 7q-96 0 -185 -28t-151 -66l-159 235q78 52 222 97t308 45q126 0 213 -17t144.5 -50
t89.5 -91t44.5 -128.5t12.5 -174.5v-352q0 -71 15.5 -89t84.5 -18v-262q-31 -8 -135 -8q-93 0 -140.5 24t-80.5 91q-95 -129 -408 -129zM551 240q153 0 222 57t69 184v43h-27q-126 0 -205.5 -5t-132.5 -14t-78 -29t-34 -44t-9 -65q0 -66 44 -96.5t151 -30.5zM178 1270
l318 375h331l318 -375h-301l-187 176l-184 -176h-295zM496 -403v284h325v-284h-325z" />
    <glyph glyph-name="uni1EAE" unicode="&#x1eae;" horiz-adv-x="1615" 
d="M29 0l608 1528h340l612 -1528h-348l-98 250h-688l-99 -250h-327zM561 526h475l-237 604zM655 2077l289 374h385l-389 -374h-285zM805 1579q-89 0 -157.5 19.5t-114.5 52t-80 85.5t-53.5 110.5t-34.5 135.5l231 43q24 -111 66.5 -154.5t142.5 -43.5t142.5 43.5t66.5 154.5
l233 -40q-21 -99 -49 -167.5t-77.5 -125.5t-127.5 -85t-188 -28z" />
    <glyph glyph-name="uni1EAF" unicode="&#x1eaf;" horiz-adv-x="1320" 
d="M487 -18q-105 0 -182.5 18t-125.5 49t-77.5 78t-40 97.5t-10.5 115.5q0 98 29 168t84 116t148 73t207.5 37.5t275.5 10.5h47q-1 34 -5.5 56.5t-18.5 43.5t-39 32.5t-66 18.5t-101 7q-96 0 -185 -28t-151 -66l-159 235q78 52 222 97t308 45q126 0 213 -17t144.5 -50
t89.5 -91t44.5 -128.5t12.5 -174.5v-352q0 -71 15.5 -89t84.5 -18v-262q-31 -8 -135 -8q-93 0 -140.5 24t-80.5 91q-95 -129 -408 -129zM551 240q153 0 222 57t69 184v43h-27q-126 0 -205.5 -5t-132.5 -14t-78 -29t-34 -44t-9 -65q0 -66 44 -96.5t151 -30.5zM512 1747
l289 375h385l-389 -375h-285zM662 1249q-89 0 -157.5 19.5t-115 52.5t-80.5 86t-53.5 110.5t-34.5 135.5l232 43q12 -56 26 -91t37.5 -61t58.5 -36.5t87 -10.5q100 0 141.5 43.5t66.5 155.5l234 -41q-21 -99 -49 -167.5t-77.5 -125.5t-127.5 -85t-188 -28z" />
    <glyph glyph-name="uni1EB0" unicode="&#x1eb0;" horiz-adv-x="1615" 
d="M29 0l608 1528h340l612 -1528h-348l-98 250h-688l-99 -250h-327zM561 526h475l-237 604zM672 2077l-389 374h385l288 -374h-284zM805 1579q-89 0 -157.5 19.5t-114.5 52t-80 85.5t-53.5 110.5t-34.5 135.5l231 43q24 -111 66.5 -154.5t142.5 -43.5t142.5 43.5t66.5 154.5
l233 -40q-21 -99 -49 -167.5t-77.5 -125.5t-127.5 -85t-188 -28z" />
    <glyph glyph-name="uni1EB1" unicode="&#x1eb1;" horiz-adv-x="1320" 
d="M487 -18q-105 0 -182.5 18t-125.5 49t-77.5 78t-40 97.5t-10.5 115.5q0 98 29 168t84 116t148 73t207.5 37.5t275.5 10.5h47q-1 34 -5.5 56.5t-18.5 43.5t-39 32.5t-66 18.5t-101 7q-96 0 -185 -28t-151 -66l-159 235q78 52 222 97t308 45q126 0 213 -17t144.5 -50
t89.5 -91t44.5 -128.5t12.5 -174.5v-352q0 -71 15.5 -89t84.5 -18v-262q-31 -8 -135 -8q-93 0 -140.5 24t-80.5 91q-95 -129 -408 -129zM551 240q153 0 222 57t69 184v43h-27q-126 0 -205.5 -5t-132.5 -14t-78 -29t-34 -44t-9 -65q0 -66 44 -96.5t151 -30.5zM528 1747
l-389 375h385l289 -375h-285zM662 1249q-89 0 -157.5 19.5t-115 52.5t-80.5 86t-53.5 110.5t-34.5 135.5l232 43q12 -56 26 -91t37.5 -61t58.5 -36.5t87 -10.5q100 0 141.5 43.5t66.5 155.5l234 -41q-21 -99 -49 -167.5t-77.5 -125.5t-127.5 -85t-188 -28z" />
    <glyph glyph-name="uni1EB2" unicode="&#x1eb2;" horiz-adv-x="1615" 
d="M29 0l608 1528h340l612 -1528h-348l-98 250h-688l-99 -250h-327zM561 526h475l-237 604zM696 2023q-13 76 11 130t100 98q54 31 69 46t15 38q0 53 -98 53q-107 0 -187 -41l-90 182q112 56 293 56q154 0 240 -58t86 -151q0 -81 -31 -127.5t-96 -83.5q-58 -34 -78 -63.5
t-19 -78.5h-215zM803 1579q-89 0 -157.5 19.5t-115 52.5t-80 85.5t-53.5 110t-35 135.5l232 43q24 -111 66.5 -154.5t142.5 -43.5t142.5 43.5t66.5 154.5l235 -40q-17 -79 -37.5 -136.5t-55 -111t-80.5 -86.5t-114.5 -52.5t-156.5 -19.5z" />
    <glyph glyph-name="uni1EB3" unicode="&#x1eb3;" horiz-adv-x="1320" 
d="M487 -18q-105 0 -182.5 18t-125.5 49t-77.5 78t-40 97.5t-10.5 115.5q0 98 29 168t84 116t148 73t207.5 37.5t275.5 10.5h47q-1 34 -5.5 56.5t-18.5 43.5t-39 32.5t-66 18.5t-101 7q-96 0 -185 -28t-151 -66l-159 235q78 52 222 97t308 45q126 0 213 -17t144.5 -50
t89.5 -91t44.5 -128.5t12.5 -174.5v-352q0 -71 15.5 -89t84.5 -18v-262q-31 -8 -135 -8q-93 0 -140.5 24t-80.5 91q-95 -129 -408 -129zM551 240q153 0 222 57t69 184v43h-27q-126 0 -205.5 -5t-132.5 -14t-78 -29t-34 -44t-9 -65q0 -66 44 -96.5t151 -30.5zM553 1694
q-13 76 11 129.5t100 97.5q54 31 69 46t15 38q0 53 -99 53q-106 0 -186 -41l-90 183q110 55 293 55q154 0 239.5 -58t85.5 -151q0 -81 -31 -127.5t-96 -83.5q-58 -34 -77.5 -63t-18.5 -78h-215zM659 1249q-111 0 -189.5 28t-127.5 84.5t-76.5 125t-46.5 166.5l232 43
q25 -112 66.5 -155.5t141.5 -43.5q52 0 87 10.5t58.5 36.5t37.5 61t26 91l236 -41q-22 -99 -50.5 -167.5t-78 -125.5t-128 -85t-188.5 -28z" />
    <glyph glyph-name="uni1EB4" unicode="&#x1eb4;" horiz-adv-x="1615" 
d="M29 0l608 1528h340l612 -1528h-348l-98 250h-688l-99 -250h-327zM561 526h475l-237 604zM498 2081l-179 145q179 221 347 221q47 0 90 -17t69 -37t59 -37t64 -17q73 0 172 119l176 -146q-180 -223 -344 -223q-46 0 -88 17.5t-68 38t-59.5 38t-64.5 17.5q-77 0 -174 -119z
M803 1579q-89 0 -157.5 19.5t-115 52.5t-80 85.5t-53.5 110t-35 135.5l232 43q24 -111 66.5 -154.5t142.5 -43.5t142.5 43.5t66.5 154.5l235 -40q-17 -79 -37.5 -136.5t-55 -111t-80.5 -86.5t-114.5 -52.5t-156.5 -19.5z" />
    <glyph glyph-name="uni1EB5" unicode="&#x1eb5;" horiz-adv-x="1320" 
d="M487 -18q-105 0 -182.5 18t-125.5 49t-77.5 78t-40 97.5t-10.5 115.5q0 98 29 168t84 116t148 73t207.5 37.5t275.5 10.5h47q-1 34 -5.5 56.5t-18.5 43.5t-39 32.5t-66 18.5t-101 7q-96 0 -185 -28t-151 -66l-159 235q78 52 222 97t308 45q126 0 213 -17t144.5 -50
t89.5 -91t44.5 -128.5t12.5 -174.5v-352q0 -71 15.5 -89t84.5 -18v-262q-31 -8 -135 -8q-93 0 -140.5 24t-80.5 91q-95 -129 -408 -129zM551 240q153 0 222 57t69 184v43h-27q-126 0 -205.5 -5t-132.5 -14t-78 -29t-34 -44t-9 -65q0 -66 44 -96.5t151 -30.5zM354 1751
l-178 145q180 222 346 222q47 0 90 -17t69 -37.5t59.5 -37.5t64.5 -17q73 0 172 119l176 -146q-180 -223 -344 -223q-46 0 -88.5 17.5t-68.5 38t-59.5 38t-64.5 17.5q-77 0 -174 -119zM659 1249q-111 0 -189.5 28t-127.5 84.5t-76.5 125t-46.5 166.5l232 43
q25 -112 66.5 -155.5t141.5 -43.5q52 0 87 10.5t58.5 36.5t37.5 61t26 91l236 -41q-22 -99 -50.5 -167.5t-78 -125.5t-128 -85t-188.5 -28z" />
    <glyph glyph-name="uni1EB6" unicode="&#x1eb6;" horiz-adv-x="1615" 
d="M29 0l608 1528h340l612 -1528h-348l-98 250h-688l-99 -250h-327zM561 526h475l-237 604zM643 -403v284h326v-284h-326zM805 1569q-111 0 -189.5 27.5t-127.5 83.5t-76.5 124t-46.5 166l231 43q12 -56 26 -90.5t37.5 -60t58.5 -36.5t87 -11t87 11t58.5 36.5t37.5 60
t26 90.5l233 -41q-21 -99 -49 -167t-77.5 -124.5t-127.5 -84t-188 -27.5z" />
    <glyph glyph-name="uni1EB7" unicode="&#x1eb7;" horiz-adv-x="1320" 
d="M487 -18q-105 0 -182.5 18t-125.5 49t-77.5 78t-40 97.5t-10.5 115.5q0 98 29 168t84 116t148 73t207.5 37.5t275.5 10.5h47q-1 34 -5.5 56.5t-18.5 43.5t-39 32.5t-66 18.5t-101 7q-96 0 -185 -28t-151 -66l-159 235q78 52 222 97t308 45q126 0 213 -17t144.5 -50
t89.5 -91t44.5 -128.5t12.5 -174.5v-352q0 -71 15.5 -89t84.5 -18v-262q-31 -8 -135 -8q-93 0 -140.5 24t-80.5 91q-95 -129 -408 -129zM551 240q153 0 222 57t69 184v43h-27q-126 0 -205.5 -5t-132.5 -14t-78 -29t-34 -44t-9 -65q0 -66 44 -96.5t151 -30.5zM494 -403v284
h325v-284h-325zM662 1239q-89 0 -157.5 19t-115 52t-80 85t-53.5 109.5t-35 135.5l232 43q12 -56 26 -90.5t37.5 -60t58.5 -36.5t87 -11q100 0 141.5 43.5t66.5 154.5l234 -41q-21 -99 -49 -167t-77.5 -124.5t-127.5 -84t-188 -27.5z" />
    <glyph glyph-name="uni1EB8" unicode="&#x1eb8;" horiz-adv-x="1406" 
d="M152 0v1518h1140v-304h-805v-294h785v-293h-785v-336h813v-291h-1148zM575 -403v284h326v-284h-326z" />
    <glyph glyph-name="uni1EB9" unicode="&#x1eb9;" horiz-adv-x="1267" 
d="M676 -23q-123 0 -219 21.5t-161 62.5t-110 94t-69.5 124t-34.5 143t-10 160q0 104 14.5 188t55 164t106 133.5t174 86t252.5 32.5q107 0 190 -20t137.5 -56.5t93 -88t57 -114t29.5 -135t10 -151.5t-1 -162h-807q14 -111 79.5 -166t213.5 -55q125 0 209 27t155 79
l162 -209q-113 -85 -234 -121.5t-292 -36.5zM664 918q-142 0 -205 -58t-76 -172h514q-3 57 -12 93t-32.5 70.5t-70 50.5t-118.5 16zM489 -403v284h326v-284h-326z" />
    <glyph glyph-name="uni1EBA" unicode="&#x1eba;" horiz-adv-x="1406" 
d="M152 0v1518h1140v-304h-805v-294h785v-293h-785v-336h813v-291h-1148zM635 1585q-14 76 9 129.5t99 97.5q55 32 70.5 47t15.5 37q0 54 -98 54q-104 0 -188 -41l-90 182q110 55 292 55q154 0 240 -58t86 -151q0 -81 -31 -127.5t-96 -83.5q-57 -34 -76.5 -62.5t-19.5 -78.5
h-213z" />
    <glyph glyph-name="uni1EBB" unicode="&#x1ebb;" horiz-adv-x="1267" 
d="M676 -23q-123 0 -219 21.5t-161 62.5t-110 94t-69.5 124t-34.5 143t-10 160q0 104 14.5 188t55 164t106 133.5t174 86t252.5 32.5q107 0 190 -20t137.5 -56.5t93 -88t57 -114t29.5 -135t10 -151.5t-1 -162h-807q14 -111 79.5 -166t213.5 -55q125 0 209 27t155 79
l162 -209q-113 -85 -234 -121.5t-292 -36.5zM664 918q-142 0 -205 -58t-76 -172h514q-3 57 -12 93t-32.5 70.5t-70 50.5t-118.5 16zM541 1260q-14 76 9 129.5t99 97.5q55 32 70.5 47t15.5 37q0 53 -98 53q-104 0 -188 -41l-91 182q112 56 293 56q154 0 240 -58t86 -151
q0 -81 -31 -127.5t-96 -83.5q-57 -34 -76.5 -62.5t-19.5 -78.5h-213z" />
    <glyph glyph-name="uni1EBC" unicode="&#x1ebc;" horiz-adv-x="1406" 
d="M152 0v1518h1140v-304h-805v-294h785v-293h-785v-336h813v-291h-1148zM401 1632l-178 146q179 221 344 221q48 0 91 -17.5t69 -38t59 -38t64 -17.5q71 0 172 121l178 -145q-183 -226 -344 -226q-46 0 -88.5 17.5t-68.5 38t-60 38t-66 17.5q-77 0 -172 -117z" />
    <glyph glyph-name="uni1EBD" unicode="&#x1ebd;" horiz-adv-x="1267" 
d="M676 -23q-123 0 -219 21.5t-161 62.5t-110 94t-69.5 124t-34.5 143t-10 160q0 104 14.5 188t55 164t106 133.5t174 86t252.5 32.5q107 0 190 -20t137.5 -56.5t93 -88t57 -114t29.5 -135t10 -151.5t-1 -162h-807q14 -111 79.5 -166t213.5 -55q125 0 209 27t155 79
l162 -209q-113 -85 -234 -121.5t-292 -36.5zM664 918q-142 0 -205 -58t-76 -172h514q-3 57 -12 93t-32.5 70.5t-70 50.5t-118.5 16zM319 1264l-178 145q179 221 344 221q48 0 91 -17t69 -38t59 -38t64 -17q72 0 172 120l178 -145q-182 -225 -344 -225q-46 0 -88 17t-68.5 38
t-60 38t-65.5 17q-79 0 -173 -116z" />
    <glyph glyph-name="uni1EBE" unicode="&#x1ebe;" horiz-adv-x="1406" 
d="M-47 1808l289 377h387l-391 -377h-285zM219 1599l318 375h331l318 -375h-301l-185 177l-186 -177h-295zM152 0v1518h1140v-304h-805v-294h785v-293h-785v-336h813v-291h-1148z" />
    <glyph glyph-name="uni1EBF" unicode="&#x1ebf;" horiz-adv-x="1267" 
d="M-119 1479l289 376h387l-391 -376h-285zM147 1270l318 375h332l317 -375h-301l-184 176l-187 -176h-295zM676 -23q-123 0 -219 21.5t-161 62.5t-110 94t-69.5 124t-34.5 143t-10 160q0 104 14.5 188t55 164t106 133.5t174 86t252.5 32.5q107 0 190 -20t137.5 -56.5
t93 -88t57 -114t29.5 -135t10 -151.5t-1 -162h-807q14 -111 79.5 -166t213.5 -55q125 0 209 27t155 79l162 -209q-113 -85 -234 -121.5t-292 -36.5zM664 918q-142 0 -205 -58t-76 -172h514q-3 57 -12 93t-32.5 70.5t-70 50.5t-118.5 16z" />
    <glyph glyph-name="uni1EC0" unicode="&#x1ec0;" horiz-adv-x="1406" 
d="M1169 1808l-389 377h385l289 -377h-285zM219 1599l318 375h331l318 -375h-301l-187 177l-184 -177h-295zM152 0v1518h1140v-304h-805v-294h785v-293h-785v-336h813v-291h-1148z" />
    <glyph glyph-name="uni1EC1" unicode="&#x1ec1;" horiz-adv-x="1267" 
d="M1100 1479l-389 376h385l288 -376h-284zM150 1270l317 375h332l317 -375h-301l-186 176l-185 -176h-294zM676 -23q-123 0 -219 21.5t-161 62.5t-110 94t-69.5 124t-34.5 143t-10 160q0 104 14.5 188t55 164t106 133.5t174 86t252.5 32.5q107 0 190 -20t137.5 -56.5
t93 -88t57 -114t29.5 -135t10 -151.5t-1 -162h-807q14 -111 79.5 -166t213.5 -55q125 0 209 27t155 79l162 -209q-113 -85 -234 -121.5t-292 -36.5zM664 918q-142 0 -205 -58t-76 -172h514q-3 57 -12 93t-32.5 70.5t-70 50.5t-118.5 16z" />
    <glyph glyph-name="uni1EC2" unicode="&#x1ec2;" horiz-adv-x="1406" 
d="M152 0v1518h1140v-304h-805v-294h785v-293h-785v-336h813v-291h-1148zM600 2032q-13 76 11 129.5t100 97.5q55 34 69.5 48t14.5 36q0 55 -99 55q-102 0 -186 -43l-92 185q119 55 295 55q154 0 239.5 -58t85.5 -153q0 -81 -31.5 -126.5t-97.5 -82.5q-57 -34 -76.5 -63.5
t-17.5 -79.5h-215zM221 1599l318 375h331l318 -375h-301l-187 177l-184 -177h-295z" />
    <glyph glyph-name="uni1EC3" unicode="&#x1ec3;" horiz-adv-x="1267" 
d="M676 -23q-123 0 -219 21.5t-161 62.5t-110 94t-69.5 124t-34.5 143t-10 160q0 104 14.5 188t55 164t106 133.5t174 86t252.5 32.5q107 0 190 -20t137.5 -56.5t93 -88t57 -114t29.5 -135t10 -151.5t-1 -162h-807q14 -111 79.5 -166t213.5 -55q125 0 209 27t155 79
l162 -209q-113 -85 -234 -121.5t-292 -36.5zM664 918q-142 0 -205 -58t-76 -172h514q-3 57 -12 93t-32.5 70.5t-70 50.5t-118.5 16zM528 1702q-13 76 11 129.5t100 97.5q55 34 69.5 48t14.5 36q0 55 -98 55q-103 0 -187 -43l-92 185q119 55 295 55q155 0 240.5 -58
t85.5 -153q0 -81 -31.5 -126.5t-97.5 -82.5q-57 -34 -77 -63.5t-18 -79.5h-215zM150 1270l317 375h332l317 -375h-301l-186 176l-185 -176h-294z" />
    <glyph glyph-name="uni1EC4" unicode="&#x1ec4;" horiz-adv-x="1406" 
d="M152 0v1518h1140v-304h-805v-294h785v-293h-785v-336h813v-291h-1148zM397 2021l-180 146q179 221 346 221q47 0 90 -17t69 -37.5t59.5 -37.5t64.5 -17q71 0 172 121l178 -147q-183 -223 -346 -223q-45 0 -87 17t-68 38t-60 38t-66 17q-78 0 -172 -119zM219 1599l318 375
h331l318 -375h-301l-187 177l-184 -177h-295z" />
    <glyph glyph-name="uni1EC5" unicode="&#x1ec5;" horiz-adv-x="1267" 
d="M676 -23q-123 0 -219 21.5t-161 62.5t-110 94t-69.5 124t-34.5 143t-10 160q0 104 14.5 188t55 164t106 133.5t174 86t252.5 32.5q107 0 190 -20t137.5 -56.5t93 -88t57 -114t29.5 -135t10 -151.5t-1 -162h-807q14 -111 79.5 -166t213.5 -55q125 0 209 27t155 79
l162 -209q-113 -85 -234 -121.5t-292 -36.5zM664 918q-142 0 -205 -58t-76 -172h514q-3 57 -12 93t-32.5 70.5t-70 50.5t-118.5 16zM328 1692l-181 145q179 221 347 221q47 0 90 -17t69 -37t59 -37t64 -17q71 0 172 121l178 -148q-183 -223 -346 -223q-45 0 -87 17t-68 38
t-59.5 38t-65.5 17q-79 0 -172 -118zM150 1270l317 375h332l317 -375h-301l-186 176l-185 -176h-294z" />
    <glyph glyph-name="uni1EC6" unicode="&#x1ec6;" horiz-adv-x="1406" 
d="M219 1599l318 375h331l318 -375h-301l-187 177l-184 -177h-295zM152 0v1518h1140v-304h-805v-294h785v-293h-785v-336h813v-291h-1148zM575 -403v284h326v-284h-326z" />
    <glyph glyph-name="uni1EC7" unicode="&#x1ec7;" horiz-adv-x="1267" 
d="M150 1270l317 375h332l317 -375h-301l-186 176l-185 -176h-294zM676 -23q-123 0 -219 21.5t-161 62.5t-110 94t-69.5 124t-34.5 143t-10 160q0 104 14.5 188t55 164t106 133.5t174 86t252.5 32.5q107 0 190 -20t137.5 -56.5t93 -88t57 -114t29.5 -135t10 -151.5t-1 -162
h-807q14 -111 79.5 -166t213.5 -55q125 0 209 27t155 79l162 -209q-113 -85 -234 -121.5t-292 -36.5zM664 918q-142 0 -205 -58t-76 -172h514q-3 57 -12 93t-32.5 70.5t-70 50.5t-118.5 16zM489 -403v284h326v-284h-326z" />
    <glyph glyph-name="uni1EC8" unicode="&#x1ec8;" horiz-adv-x="681" 
d="M174 0v1518h334v-1518h-334zM238 1585q-14 76 9 129.5t99 97.5q55 32 70.5 47t15.5 37q0 54 -98 54q-105 0 -189 -41l-90 182q110 55 293 55q154 0 240 -58t86 -151q0 -81 -31 -127.5t-96 -83.5q-57 -34 -76.5 -62.5t-19.5 -78.5h-213z" />
    <glyph glyph-name="uni1EC9" unicode="&#x1ec9;" horiz-adv-x="600" 
d="M139 0v1159h320v-1159h-320zM197 1260q-14 76 9 129.5t99 97.5q55 32 70.5 47t15.5 37q0 53 -98 53q-105 0 -189 -41l-90 182q112 56 293 56q154 0 240 -58t86 -151q0 -81 -31 -127.5t-96 -83.5q-57 -34 -76.5 -62.5t-19.5 -78.5h-213z" />
    <glyph glyph-name="uni1ECA" unicode="&#x1eca;" horiz-adv-x="681" 
d="M174 0v1518h334v-1518h-334zM178 -403v284h326v-284h-326z" />
    <glyph glyph-name="uni1ECB" unicode="&#x1ecb;" horiz-adv-x="600" 
d="M139 0v1159h320v-1159h-320zM137 1266v293h324v-293h-324zM137 -403v284h326v-284h-326z" />
    <glyph glyph-name="uni1ECC" unicode="&#x1ecc;" horiz-adv-x="1746" 
d="M872 -25q-802 0 -802 785q0 782 802 782q805 0 805 -782q0 -785 -805 -785zM872 270q128 0 219 33t144.5 98t77.5 151.5t24 201.5t-24 201t-77.5 150t-144.5 97t-219 33t-219 -33t-144 -97t-77 -150t-24 -201t24 -201.5t77 -151.5t144 -98t219 -33zM713 -403v284h325
v-284h-325z" />
    <glyph glyph-name="uni1ECD" unicode="&#x1ecd;" horiz-adv-x="1353" 
d="M678 -23q-318 0 -462 152t-144 453t143.5 452.5t462.5 151.5q318 0 461 -151.5t143 -452.5t-143 -453t-461 -152zM678 252q157 0 220 81t63 240t-63 239.5t-220 80.5q-158 0 -220.5 -80.5t-62.5 -239.5q0 -78 13 -134t44.5 -99.5t87.5 -65.5t138 -22zM514 -403v284h326
v-284h-326z" />
    <glyph glyph-name="uni1ECE" unicode="&#x1ece;" horiz-adv-x="1746" 
d="M872 -25q-802 0 -802 785q0 782 802 782q805 0 805 -782q0 -785 -805 -785zM872 270q128 0 219 33t144.5 98t77.5 151.5t24 201.5t-24 201t-77.5 150t-144.5 97t-219 33t-219 -33t-144 -97t-77 -150t-24 -201t24 -201.5t77 -151.5t144 -98t219 -33zM764 1595
q-14 76 9 130t99 98q55 32 70.5 47t15.5 37q0 53 -98 53q-104 0 -188 -41l-90 182q112 56 292 56q154 0 240 -58t86 -151q0 -81 -31 -127.5t-96 -83.5q-57 -34 -76.5 -63t-19.5 -79h-213z" />
    <glyph glyph-name="uni1ECF" unicode="&#x1ecf;" horiz-adv-x="1353" 
d="M678 -23q-318 0 -462 152t-144 453t143.5 452.5t462.5 151.5q318 0 461 -151.5t143 -452.5t-143 -453t-461 -152zM678 252q157 0 220 81t63 240t-63 239.5t-220 80.5q-158 0 -220.5 -80.5t-62.5 -239.5q0 -78 13 -134t44.5 -99.5t87.5 -65.5t138 -22zM569 1260
q-14 76 9.5 129.5t99.5 97.5q55 32 70.5 47t15.5 37q0 53 -98 53q-105 0 -189 -41l-90 182q112 56 293 56q154 0 240 -58t86 -151q0 -81 -31 -127.5t-96 -83.5q-57 -34 -77 -63t-20 -78h-213z" />
    <glyph glyph-name="uni1ED0" unicode="&#x1ed0;" horiz-adv-x="1746" 
d="M121 1808l289 377h387l-391 -377h-285zM387 1599l318 375h331l318 -375h-301l-185 177l-186 -177h-295zM872 -25q-802 0 -802 785q0 782 802 782q805 0 805 -782q0 -785 -805 -785zM872 270q128 0 219 33t144.5 98t77.5 151.5t24 201.5t-24 201t-77.5 150t-144.5 97
t-219 33t-219 -33t-144 -97t-77 -150t-24 -201t24 -201.5t77 -151.5t144 -98t219 -33z" />
    <glyph glyph-name="uni1ED1" unicode="&#x1ed1;" horiz-adv-x="1353" 
d="M-74 1479l289 376h387l-391 -376h-285zM193 1270l317 375h332l317 -375h-301l-184 176l-187 -176h-294zM678 -23q-318 0 -462 152t-144 453t143.5 452.5t462.5 151.5q318 0 461 -151.5t143 -452.5t-143 -453t-461 -152zM678 252q157 0 220 81t63 240t-63 239.5t-220 80.5
q-158 0 -220.5 -80.5t-62.5 -239.5q0 -78 13 -134t44.5 -99.5t87.5 -65.5t138 -22z" />
    <glyph glyph-name="uni1ED2" unicode="&#x1ed2;" horiz-adv-x="1746" 
d="M1339 1808l-389 377h385l289 -377h-285zM389 1599l318 375h331l318 -375h-301l-187 177l-184 -177h-295zM872 -25q-802 0 -802 785q0 782 802 782q805 0 805 -782q0 -785 -805 -785zM872 270q128 0 219 33t144.5 98t77.5 151.5t24 201.5t-24 201t-77.5 150t-144.5 97
t-219 33t-219 -33t-144 -97t-77 -150t-24 -201t24 -201.5t77 -151.5t144 -98t219 -33z" />
    <glyph glyph-name="uni1ED3" unicode="&#x1ed3;" horiz-adv-x="1353" 
d="M1143 1479l-389 376h385l288 -376h-284zM193 1270l317 375h332l317 -375h-301l-186 176l-185 -176h-294zM678 -23q-318 0 -462 152t-144 453t143.5 452.5t462.5 151.5q318 0 461 -151.5t143 -452.5t-143 -453t-461 -152zM678 252q157 0 220 81t63 240t-63 239.5
t-220 80.5q-158 0 -220.5 -80.5t-62.5 -239.5q0 -78 13 -134t44.5 -99.5t87.5 -65.5t138 -22z" />
    <glyph glyph-name="uni1ED4" unicode="&#x1ed4;" horiz-adv-x="1746" 
d="M768 2032q-13 76 11 129.5t100 97.5q55 34 69.5 48t14.5 36q0 55 -99 55q-102 0 -186 -43l-92 185q119 55 295 55q154 0 239.5 -58t85.5 -153q0 -81 -31.5 -126.5t-97.5 -82.5q-57 -34 -76.5 -63.5t-17.5 -79.5h-215zM389 1599l318 375h331l318 -375h-301l-187 177
l-184 -177h-295zM872 -25q-802 0 -802 785q0 782 802 782q805 0 805 -782q0 -785 -805 -785zM872 270q128 0 219 33t144.5 98t77.5 151.5t24 201.5t-24 201t-77.5 150t-144.5 97t-219 33t-219 -33t-144 -97t-77 -150t-24 -201t24 -201.5t77 -151.5t144 -98t219 -33z" />
    <glyph glyph-name="uni1ED5" unicode="&#x1ed5;" horiz-adv-x="1353" 
d="M569 1702q-13 76 11 129.5t100 97.5q55 34 69.5 48t14.5 36q0 55 -98 55q-103 0 -187 -43l-92 185q119 55 295 55q155 0 240.5 -58t85.5 -153q0 -81 -31.5 -126.5t-97.5 -82.5q-57 -34 -77 -63.5t-18 -79.5h-215zM190 1270l318 375h332l317 -375h-301l-186 176l-185 -176
h-295zM678 -23q-318 0 -462 152t-144 453t143.5 452.5t462.5 151.5q318 0 461 -151.5t143 -452.5t-143 -453t-461 -152zM678 252q157 0 220 81t63 240t-63 239.5t-220 80.5q-158 0 -220.5 -80.5t-62.5 -239.5q0 -78 13 -134t44.5 -99.5t87.5 -65.5t138 -22z" />
    <glyph glyph-name="uni1ED6" unicode="&#x1ed6;" horiz-adv-x="1746" 
d="M872 -25q-802 0 -802 785q0 782 802 782q805 0 805 -782q0 -785 -805 -785zM872 270q128 0 219 33t144.5 98t77.5 151.5t24 201.5t-24 201t-77.5 150t-144.5 97t-219 33t-219 -33t-144 -97t-77 -150t-24 -201t24 -201.5t77 -151.5t144 -98t219 -33zM567 2021l-180 146
q179 221 346 221q47 0 90 -17t69 -37.5t59.5 -37.5t64.5 -17q71 0 172 121l178 -147q-183 -223 -346 -223q-45 0 -87 17t-68 38t-60 38t-66 17q-78 0 -172 -119zM389 1599l318 375h331l318 -375h-301l-187 177l-184 -177h-295z" />
    <glyph glyph-name="uni1ED7" unicode="&#x1ed7;" horiz-adv-x="1353" 
d="M678 -23q-318 0 -462 152t-144 453t143.5 452.5t462.5 151.5q318 0 461 -151.5t143 -452.5t-143 -453t-461 -152zM678 252q157 0 220 81t63 240t-63 239.5t-220 80.5q-158 0 -220.5 -80.5t-62.5 -239.5q0 -78 13 -134t44.5 -99.5t87.5 -65.5t138 -22zM371 1692l-181 145
q179 221 347 221q47 0 90 -17t69 -37t59 -37t64 -17q71 0 172 121l178 -148q-183 -223 -346 -223q-45 0 -87 17t-68 38t-59.5 38t-65.5 17q-79 0 -172 -118zM193 1270l317 375h332l317 -375h-301l-186 176l-185 -176h-294z" />
    <glyph glyph-name="uni1ED8" unicode="&#x1ed8;" horiz-adv-x="1746" 
d="M389 1599l318 375h331l318 -375h-301l-187 177l-184 -177h-295zM709 -403v284h325v-284h-325zM872 -25q-802 0 -802 785q0 782 802 782q805 0 805 -782q0 -785 -805 -785zM872 270q128 0 219 33t144.5 98t77.5 151.5t24 201.5t-24 201t-77.5 150t-144.5 97t-219 33
t-219 -33t-144 -97t-77 -150t-24 -201t24 -201.5t77 -151.5t144 -98t219 -33z" />
    <glyph glyph-name="uni1ED9" unicode="&#x1ed9;" horiz-adv-x="1353" 
d="M193 1270l317 375h332l317 -375h-301l-186 176l-185 -176h-294zM514 -403v284h326v-284h-326zM678 -23q-318 0 -462 152t-144 453t143.5 452.5t462.5 151.5q318 0 461 -151.5t143 -452.5t-143 -453t-461 -152zM678 252q157 0 220 81t63 240t-63 239.5t-220 80.5
q-158 0 -220.5 -80.5t-62.5 -239.5q0 -78 13 -134t44.5 -99.5t87.5 -65.5t138 -22z" />
    <glyph glyph-name="uni1EDA" unicode="&#x1eda;" horiz-adv-x="1746" 
d="M662 1599l288 375h387l-391 -375h-284zM1675 1845v-280q0 -90 -39 -159t-120 -103q161 -194 161 -543q0 -785 -805 -785q-802 0 -802 785q0 782 802 782q306 0 494 -112q137 5 145 110h-141v305h305zM872 270q128 0 219 33t144.5 98t77.5 151.5t24 201.5t-24 201
t-77.5 150t-144.5 97t-219 33t-219 -33t-144 -97t-77 -150t-24 -201t24 -201.5t77 -151.5t144 -98t219 -33z" />
    <glyph glyph-name="uni1EDB" unicode="&#x1edb;" horiz-adv-x="1386" 
d="M373 1270l289 375h387l-392 -375h-284zM1339 1516v-279q0 -193 -153 -262q96 -143 96 -393q0 -302 -142.5 -453.5t-461.5 -151.5t-462.5 151.5t-143.5 453.5t143.5 453t462.5 151q231 0 373 -82q115 10 127 108h-144v304h305zM678 252q158 0 220.5 80t62.5 241
t-62.5 240.5t-220.5 79.5q-159 0 -221 -79.5t-62 -240.5t62 -241t221 -80z" />
    <glyph glyph-name="uni1EDC" unicode="&#x1edc;" horiz-adv-x="1746" 
d="M1675 1845v-280q0 -90 -39 -159t-120 -103q161 -194 161 -543q0 -785 -805 -785q-802 0 -802 785q0 782 802 782q306 0 494 -112q137 5 145 110h-141v305h305zM872 270q128 0 219 33t144.5 98t77.5 151.5t24 201.5t-24 201t-77.5 150t-144.5 97t-219 33t-219 -33
t-144 -97t-77 -150t-24 -201t24 -201.5t77 -151.5t144 -98t219 -33zM799 1599l-391 375h387l288 -375h-284z" />
    <glyph glyph-name="uni1EDD" unicode="&#x1edd;" horiz-adv-x="1386" 
d="M1339 1516v-279q0 -193 -153 -262q96 -143 96 -393q0 -302 -142.5 -453.5t-461.5 -151.5t-462.5 151.5t-143.5 453.5t143.5 453t462.5 151q231 0 373 -82q115 10 127 108h-144v304h305zM678 252q158 0 220.5 80t62.5 241t-62.5 240.5t-220.5 79.5q-159 0 -221 -79.5
t-62 -240.5t62 -241t221 -80zM602 1270l-391 375h387l289 -375h-285z" />
    <glyph glyph-name="uni1EDE" unicode="&#x1ede;" horiz-adv-x="1746" 
d="M1675 1845v-280q0 -90 -39 -159t-120 -103q161 -194 161 -543q0 -785 -805 -785q-802 0 -802 785q0 782 802 782q306 0 494 -112q137 5 145 110h-141v305h305zM872 270q128 0 219 33t144.5 98t77.5 151.5t24 201.5t-24 201t-77.5 150t-144.5 97t-219 33t-219 -33
t-144 -97t-77 -150t-24 -201t24 -201.5t77 -151.5t144 -98t219 -33zM758 1595q-14 76 9 130t99 98q55 32 70.5 47t15.5 37q0 53 -98 53q-104 0 -188 -41l-91 182q112 56 293 56q154 0 240 -58t86 -151q0 -81 -31 -127.5t-96 -83.5q-57 -34 -76.5 -63t-19.5 -79h-213z" />
    <glyph glyph-name="uni1EDF" unicode="&#x1edf;" horiz-adv-x="1386" 
d="M1339 1516v-279q0 -193 -153 -262q96 -143 96 -393q0 -302 -142.5 -453.5t-461.5 -151.5t-462.5 151.5t-143.5 453.5t143.5 453t462.5 151q231 0 373 -82q115 10 127 108h-144v304h305zM678 252q158 0 220.5 80t62.5 241t-62.5 240.5t-220.5 79.5q-159 0 -221 -79.5
t-62 -240.5t62 -241t221 -80zM518 1260q-14 76 9.5 129.5t99.5 97.5q55 32 70.5 47t15.5 37q0 53 -99 53q-104 0 -188 -41l-90 182q112 56 293 56q154 0 239.5 -58t85.5 -151q0 -81 -31 -127.5t-96 -83.5q-57 -34 -76.5 -62.5t-19.5 -78.5h-213z" />
    <glyph glyph-name="uni1EE0" unicode="&#x1ee0;" horiz-adv-x="1746" 
d="M1675 1845v-280q0 -90 -39 -159t-120 -103q161 -194 161 -543q0 -785 -805 -785q-802 0 -802 785q0 782 802 782q306 0 494 -112q137 5 145 110h-141v305h305zM872 270q128 0 219 33t144.5 98t77.5 151.5t24 201.5t-24 201t-77.5 150t-144.5 97t-219 33t-219 -33
t-144 -97t-77 -150t-24 -201t24 -201.5t77 -151.5t144 -98t219 -33zM496 1591l-179 146q179 221 345 221q48 0 91 -17.5t68.5 -38t58.5 -38t64 -17.5q71 0 172 121l178 -145q-183 -226 -344 -226q-46 0 -88 17.5t-68.5 38t-60 38t-65.5 17.5q-77 0 -172 -117z" />
    <glyph glyph-name="uni1EE1" unicode="&#x1ee1;" horiz-adv-x="1386" 
d="M1339 1516v-279q0 -193 -153 -262q96 -143 96 -393q0 -302 -142.5 -453.5t-461.5 -151.5t-462.5 151.5t-143.5 453.5t143.5 453t462.5 151q231 0 373 -82q115 10 127 108h-119v304h280zM678 252q158 0 220.5 80t62.5 241t-62.5 240.5t-220.5 79.5q-159 0 -221 -79.5
t-62 -240.5t62 -241t221 -80zM303 1274l-156 131q43 103 117 162t160 59q47 0 92.5 -17t74.5 -37t65 -37t67 -17q87 0 139 112l156 -139q-43 -101 -116 -159t-159 -58q-46 0 -91 17.5t-74 38.5t-65.5 38.5t-68.5 17.5q-38 0 -76.5 -27t-64.5 -85z" />
    <glyph glyph-name="uni1EE2" unicode="&#x1ee2;" horiz-adv-x="1746" 
d="M1675 1845v-280q0 -90 -39 -159t-120 -103q161 -194 161 -543q0 -785 -805 -785q-802 0 -802 785q0 782 802 782q306 0 494 -112q137 5 145 110h-141v305h305zM872 270q128 0 219 33t144.5 98t77.5 151.5t24 201.5t-24 201t-77.5 150t-144.5 97t-219 33t-219 -33
t-144 -97t-77 -150t-24 -201t24 -201.5t77 -151.5t144 -98t219 -33zM709 -403v284h325v-284h-325z" />
    <glyph glyph-name="uni1EE3" unicode="&#x1ee3;" horiz-adv-x="1386" 
d="M1339 1516v-279q0 -193 -153 -262q96 -143 96 -393q0 -302 -142.5 -453.5t-461.5 -151.5t-462.5 151.5t-143.5 453.5t143.5 453t462.5 151q231 0 373 -82q115 10 127 108h-144v304h305zM678 252q158 0 220.5 80t62.5 241t-62.5 240.5t-220.5 79.5q-159 0 -221 -79.5
t-62 -240.5t62 -241t221 -80zM514 -403v284h326v-284h-326z" />
    <glyph glyph-name="uni1EE4" unicode="&#x1ee4;" horiz-adv-x="1671" 
d="M836 -29q-105 0 -192.5 11.5t-153.5 31.5t-119 51t-89 64t-62 77.5t-41 86t-24 94t-11.5 96t-2.5 97.5v938h336v-895q0 -72 8 -123.5t31 -98t63.5 -74t105 -43.5t155.5 -16t155 15t104.5 42t64 73t32 98.5t8.5 126.5v895h326v-938q0 -54 -2.5 -97.5t-11.5 -96t-24 -94
t-41.5 -86t-62.5 -77.5t-88.5 -64t-118 -51t-153.5 -31.5t-192 -11.5zM672 -403v284h325v-284h-325z" />
    </font>
</defs>
</svg>
